<svg width="38" height="38" viewBox="0 0 38 38" fill="none" xmlns="http://www.w3.org/2000/svg">
<path d="M5.23242 4.80371C5.4652 4.80371 5.69798 4.80371 5.93782 4.80371C6.6748 7.56692 7.22859 10.3704 7.80745 13.17C7.97227 13.9669 8.13806 14.7637 8.30409 15.5604C8.34725 15.7705 8.39042 15.9806 8.4349 16.1971C8.47497 16.3893 8.51505 16.5814 8.55634 16.7793C8.59142 16.949 8.62649 17.1187 8.66263 17.2935C8.72294 17.671 8.72294 17.671 8.93578 17.8537C9.02777 18.3199 9.11142 18.7848 9.18929 19.2534C9.23596 19.5276 9.2828 19.8018 9.32982 20.076C9.35266 20.2092 9.37551 20.3425 9.39905 20.4798C9.50492 21.0782 9.62974 21.6722 9.75898 22.2659C9.81754 22.6151 9.81754 22.6151 9.81754 23.3205C9.95598 23.358 10.0944 23.3956 10.2371 23.4342C11.0936 23.7548 11.8425 24.2117 12.6281 24.6762C15.5414 26.5903 15.5414 26.5903 18.8114 27.2003C21.4822 26.4361 24.004 24.6412 26.3242 23.1559C26.9236 22.7915 26.9236 22.7915 27.2763 22.7915C27.2965 22.5735 27.3167 22.3556 27.3375 22.1311C27.453 21.0975 27.6661 20.09 27.8832 19.0737C27.9476 18.7677 27.9476 18.7677 28.0133 18.4556C28.1526 17.7955 28.293 17.1357 28.4336 16.4759C28.5295 16.0228 28.6254 15.5696 28.7213 15.1165C29.4514 11.6738 30.2018 8.2359 30.9796 4.80371C31.2706 4.86191 31.5616 4.9201 31.8614 4.98006C31.8482 5.0981 31.8351 5.21613 31.8216 5.33774C31.4958 8.26455 31.1709 11.1914 30.85 14.1188C30.8037 14.541 30.7572 14.9632 30.7105 15.3854C30.6414 16.0111 30.5728 16.6369 30.5043 17.2626C30.4837 17.448 30.4632 17.6334 30.442 17.8244C30.3002 19.1257 30.1915 20.4278 30.0979 21.7334C32.2232 23.0977 34.394 24.131 36.7992 24.9077C36.9541 26.8187 36.9948 28.7221 36.9976 30.6391C36.9988 30.9847 36.9988 30.9847 37 31.3374C36.9997 31.5525 36.9993 31.7676 36.999 31.9893C36.9988 32.1835 36.9986 32.3778 36.9984 32.5779C36.9755 33.0198 36.9755 33.0198 36.7992 33.1962C35.3211 33.1651 33.8486 32.9676 32.384 32.7803C29.3731 32.3969 26.3603 32.1773 23.3304 32.0058C23.1316 31.9944 22.9327 31.983 22.7279 31.9712C22.1522 31.9385 21.5765 31.9071 21.0007 31.8763C20.8315 31.867 20.6623 31.8576 20.488 31.848C18.3856 31.7409 16.3208 31.7877 14.2235 31.9659C13.8809 31.994 13.8809 31.994 13.5314 32.0226C13.0512 32.0621 12.571 32.1021 12.0909 32.1427C11.4849 32.1939 10.8788 32.2438 10.2727 32.2933C6.9271 32.5642 6.9271 32.5642 3.59446 32.9589C2.73312 33.0391 1.86506 33.0198 1 33.0198C1 30.2846 1 27.5494 1 24.7313C1.93113 24.4986 2.86226 24.2658 3.82161 24.0259C4.37546 23.7884 4.86893 23.5671 5.38672 23.2764C6.61321 22.6151 6.61321 22.6151 6.99592 22.6151C6.84777 21.175 6.69902 19.735 6.54961 18.295C6.48018 17.6256 6.41091 16.9562 6.3421 16.2868C6.26209 15.5087 6.18146 14.7306 6.10039 13.9526C6.08701 13.8238 6.07362 13.695 6.05983 13.5624C5.90496 12.0783 5.73996 10.5961 5.55653 9.11526C5.53972 8.97929 5.52292 8.84333 5.5056 8.70324C5.42462 8.05055 5.34219 7.39808 5.25777 6.74583C5.22877 6.51615 5.19978 6.28647 5.1699 6.04983C5.14364 5.84687 5.11737 5.6439 5.09031 5.43478C5.07901 5.28472 5.06771 5.13467 5.05607 4.98006C5.11426 4.92187 5.17246 4.86367 5.23242 4.80371ZM6.99592 14.1503C7.17227 14.8557 7.17227 14.8557 7.17227 14.8557L6.99592 14.1503ZM29.7452 14.3266C29.7452 14.6176 29.7452 14.9086 29.7452 15.2084C29.8034 15.2084 29.8616 15.2084 29.9215 15.2084C29.9215 14.9174 29.9215 14.6264 29.9215 14.3266C29.8633 14.3266 29.8051 14.3266 29.7452 14.3266ZM7.17227 15.0321C7.11586 16.5817 7.32965 18.0949 7.52498 19.6282C7.55905 19.9013 7.59303 20.1745 7.62693 20.4476C7.7095 21.1115 7.79326 21.7752 7.87768 22.4388C8.16866 22.5552 8.45964 22.6716 8.75943 22.7915C8.67989 21.5388 8.44337 20.3748 8.14561 19.1603C7.91953 18.2312 7.73912 17.3032 7.59455 16.3574C7.52479 15.9126 7.43981 15.4729 7.34863 15.0321C7.29043 15.0321 7.23223 15.0321 7.17227 15.0321ZM29.5688 15.2084C29.5327 15.3891 29.4965 15.5699 29.4593 15.7561C29.3194 16.4553 29.1796 17.1545 29.0398 17.8537C29.0107 18.0021 28.9816 18.1506 28.9516 18.3035C28.8815 18.6466 28.8068 18.9888 28.7305 19.3306C28.6834 19.5416 28.6363 19.7525 28.5879 19.9699C28.5166 20.2863 28.5166 20.2863 28.4439 20.6091C28.3497 21.1211 28.3118 21.5682 28.3344 22.0861C28.6253 21.9697 28.9163 21.8533 29.2161 21.7334C29.3059 20.9767 29.3935 20.2198 29.4806 19.4629C29.5185 19.1444 29.5185 19.1444 29.5571 18.8195C29.6952 17.6094 29.7832 16.4264 29.7452 15.2084C29.687 15.2084 29.6288 15.2084 29.5688 15.2084Z" fill="black"/>
<path d="M17.6421 28.0254C17.8896 27.9371 18.187 27.9408 18.5952 28C18.8034 28.1526 18.919 28.2704 19.0044 28.4072C19.0931 28.5494 19.1521 28.7179 19.2407 28.9834C19.2732 29.336 19.2883 29.6023 19.2544 29.8564C19.2209 30.1065 19.1393 30.3495 18.9741 30.6514C18.7702 30.8284 18.6793 30.9074 18.5776 30.957C18.4764 31.0065 18.3624 31.0288 18.105 31.0771C17.8505 31.0294 17.731 31.0061 17.6245 30.9678C17.5201 30.9301 17.4272 30.8768 17.23 30.7627C16.8231 30.0912 16.8393 29.4416 16.9673 28.6465C17.1871 28.2962 17.3978 28.1127 17.6421 28.0254Z" fill="#333333" stroke="white" stroke-width="0.2"/>
</svg>
