<svg width="38" height="38" viewBox="0 0 38 38" fill="none" xmlns="http://www.w3.org/2000/svg">
<path d="M11.9715 5.23881C12.7864 6.39902 13.0365 7.71074 13.0333 9.1145C13.0338 9.36504 13.0338 9.36504 13.0344 9.62065C13.0143 10.1172 13.0143 10.1172 12.9378 10.5271C12.8467 11.1519 12.8466 11.7536 12.8531 12.384C12.8537 12.5118 12.8543 12.6397 12.8549 12.7714C12.8573 13.3141 12.8616 13.8568 12.8657 14.3996C12.8763 15.9112 12.879 17.405 12.7109 18.9098C12.8369 18.9477 12.9628 18.9857 13.0925 19.0249C15.1647 19.7832 17.3366 21.1667 18.3229 23.2289C18.5176 23.8228 18.4847 24.3006 18.4746 24.9258C18.7749 24.9258 19.0752 24.9258 19.3847 24.9258C19.4069 24.8065 19.4292 24.6871 19.4522 24.5642C19.6894 23.4439 19.99 22.685 20.7497 21.8406C20.8225 21.751 20.8952 21.6613 20.9701 21.5689C21.714 20.7188 22.6689 20.2199 23.6423 19.6876C23.9805 19.5017 24.3165 19.3121 24.6525 19.1219C24.7741 19.0531 24.8958 18.9843 25.0211 18.9134C25.1131 18.8613 25.2052 18.8092 25.3 18.7555C25.3038 17.696 25.3065 16.6365 25.3083 15.577C25.3091 15.2167 25.3101 14.8564 25.3114 14.4961C25.3133 13.9777 25.3141 13.4592 25.3148 12.9408C25.3156 12.7802 25.3164 12.6197 25.3172 12.4542C25.3172 11.7066 25.2926 11.0075 25.1483 10.2714C25.0617 8.55667 25.1128 7.12207 25.8688 5.55696C26.3259 5.05325 26.6073 5.08096 27.2718 5.02671C27.8571 5.05201 27.8571 5.05201 28.4472 5.12312C28.6435 5.14419 28.8398 5.16527 29.0421 5.18699C29.5469 5.33522 29.5469 5.33522 29.8336 5.66663C30.2667 6.7988 30.1827 8.0132 30.182 9.21091C30.1821 9.40179 30.1822 9.59267 30.1823 9.78933C30.1758 10.964 30.123 12.121 30.0019 13.2891C29.9819 13.4881 29.9819 13.4881 29.9615 13.6912C29.9088 14.2064 29.8534 14.7204 29.7874 15.2341C29.679 16.6148 30.3974 17.7554 31.0636 18.9098C31.1413 19.0452 31.2189 19.1806 31.2989 19.3201C32.0872 20.5283 33.3594 20.8009 34.6914 21.0817C34.8457 21.1126 34.9999 21.1435 35.1589 21.1754C35.4718 21.2398 35.7846 21.3047 36.0974 21.37C36.234 21.3976 36.3707 21.4252 36.5115 21.4536C36.8273 21.5321 36.8273 21.5321 36.979 21.6864C36.9943 21.9779 36.9988 22.27 36.9991 22.5619C36.9994 22.7483 36.9997 22.9347 37 23.1267C36.9993 23.3291 36.9986 23.5314 36.9979 23.7399C36.9977 23.8933 36.9977 23.8933 36.9975 24.0497C36.9941 26.2463 36.9219 28.4388 36.8273 30.6332C35.7252 30.9243 34.6137 31.1643 33.4999 31.4045C32.9516 31.5232 32.4033 31.6419 31.8551 31.7613C31.5561 31.8262 31.257 31.8905 30.9577 31.9537C30.3454 32.0856 29.782 32.2387 29.2056 32.494C27.5247 33.2342 25.6384 33.1027 23.9349 32.4843C23.1274 32.1199 22.4452 31.7982 21.9039 31.0731C21.4252 30.5717 20.9871 30.5485 20.3148 30.5049C20.0134 30.502 19.7118 30.4993 19.4103 30.5041C19.1017 30.5079 18.7944 30.501 18.4859 30.4931C17.1895 30.4922 17.1895 30.4922 16.1124 31.149C15.9387 31.3366 15.7654 31.5245 15.5928 31.713C13.8251 32.8335 11.9995 33.2228 9.93695 32.8591C9.31729 32.7106 8.76103 32.5638 8.19802 32.2559C7.56596 31.955 6.94823 31.839 6.26475 31.713C5.99396 31.6607 5.7232 31.6083 5.45246 31.5558C5.2538 31.5177 5.2538 31.5177 5.05113 31.4789C4.36793 31.3448 3.68943 31.19 3.01025 31.0364C2.6653 30.9657 2.31735 30.9098 1.96867 30.8616C1.48698 30.7875 1.48698 30.7875 1.33531 30.6332C1.15826 29.1228 1.15154 27.5819 1.09831 26.0634C1.09167 25.8761 1.08502 25.6889 1.07817 25.4959C1.06003 24.946 1.04501 24.3961 1.03196 23.846C1.02466 23.5618 1.02466 23.5618 1.01722 23.2719C1.01446 23.0911 1.0117 22.9103 1.00885 22.724C1.00593 22.5615 1.00301 22.3989 1 22.2315C1.03196 21.8406 1.03196 21.8406 1.33531 21.5321C1.61729 21.4503 1.90317 21.382 2.19026 21.3212C2.36241 21.2832 2.53457 21.2453 2.71194 21.2061C3.07403 21.1285 3.43623 21.0513 3.79855 20.9748C5.48976 20.6246 5.48976 20.6246 6.72155 19.472C6.83424 19.2765 6.94423 19.0794 7.05156 18.8808C7.1068 18.7849 7.16203 18.689 7.21894 18.5901C7.38894 18.289 7.54746 17.9834 7.70566 17.6757C7.76487 17.5719 7.82407 17.468 7.88507 17.3611C8.42127 16.3281 8.33228 15.4285 8.20809 14.2917C8.19215 14.1196 8.17622 13.9475 8.1598 13.7702C8.09979 13.1311 8.03236 12.4929 7.96343 11.8547C7.87701 11.0293 7.82799 10.2146 7.8289 9.38444C7.82902 9.26622 7.82914 9.14799 7.82927 9.02618C7.85806 6.25966 7.85806 6.25966 8.46404 5.33522C8.8389 5.24994 9.1841 5.19242 9.56368 5.15204C9.76155 5.12758 9.95941 5.10312 10.1633 5.07792C11.5409 4.9554 11.5409 4.9554 11.9715 5.23881ZM10.5754 5.59054C9.71648 6.65714 9.76206 8.29529 9.77401 9.61161C9.77394 9.77616 9.77386 9.94071 9.77379 10.1102C9.77414 10.4552 9.7756 10.8001 9.77813 11.145C9.78171 11.6686 9.78124 12.1921 9.78024 12.7157C9.78108 13.0533 9.78216 13.3908 9.78349 13.7283C9.78336 13.8825 9.78322 14.0366 9.78308 14.1954C9.78765 16.2283 9.78765 16.2283 10.6011 18.0252C11.5806 18.9297 12.8004 19.5658 13.9533 20.2103C15.4482 21.046 16.7925 21.8801 17.7162 23.3832C17.7663 23.2814 17.8163 23.1796 17.8679 23.0747C16.7495 21.3805 15.2694 20.4224 13.5167 19.5172C10.7658 18.0961 10.7658 18.0961 10.2841 16.5959C10.11 15.3876 10.1092 14.1905 10.1135 12.9709C10.1137 12.8685 10.114 12.7661 10.1142 12.6606C10.1306 6.57112 10.1306 6.57112 11.3459 5.33522C10.883 5.28719 10.883 5.28719 10.5754 5.59054ZM26.8167 5.33522C26.9356 5.49111 27.0545 5.64701 27.177 5.80763C28.3076 7.68427 27.9437 10.6159 27.9733 12.7299C27.9791 13.0761 27.985 13.4222 27.991 13.7684C28.0054 14.608 28.0184 15.4477 28.0301 16.2874C28.0802 16.2874 28.1302 16.2874 28.1818 16.2874C28.325 14.7749 28.3664 13.2721 28.3699 11.7535C28.3714 11.3721 28.3761 10.9908 28.3809 10.6095C28.437 8.0242 28.437 8.0242 27.5871 5.65706C27.483 5.55085 27.379 5.44464 27.2718 5.33522C27.1216 5.33522 26.9714 5.33522 26.8167 5.33522ZM8.91906 5.79799C8.55757 6.63198 8.56711 7.62841 8.5778 8.52639C8.57868 8.71389 8.57868 8.71389 8.57957 8.90518C8.59264 9.87437 8.67171 10.8308 8.76739 11.7947C9.24555 16.8192 9.24555 16.8192 7.85734 18.9098C7.74609 19.0782 7.63484 19.2466 7.52022 19.4201C7.02914 20.12 6.54101 20.7543 5.88556 21.3007C5.38399 21.7157 5.38399 21.7157 5.27886 22.3034C5.13843 25.1931 5.38506 28.2397 7.36854 30.4742C8.44121 31.5272 9.62582 31.8966 11.0994 31.9444C13.1532 31.8807 14.8181 31.184 16.2374 29.6788C17.4037 28.2753 17.9531 26.5436 17.9159 24.7215C17.7771 23.5276 16.9928 22.5547 16.0988 21.8147C14.9845 21.0418 13.8433 20.337 12.6673 19.6647C10.3663 18.343 10.3663 18.343 9.98079 17.2129C9.6021 15.4879 9.62582 13.7265 9.62956 11.969C9.63004 11.4961 9.62646 11.0235 9.62264 10.5507C9.61709 8.76122 9.72416 7.198 10.2841 5.48947C9.73456 5.45842 9.38336 5.48886 8.91906 5.79799ZM27.8785 5.48947C27.9095 5.60162 27.9406 5.71377 27.9727 5.82932C28.7281 8.69651 28.5484 11.724 28.4283 14.6677C28.4236 14.7975 28.4189 14.9272 28.4141 15.0609C28.3572 16.2513 28.2081 17.3585 27.4234 18.2927C26.4908 19.1144 25.4496 19.7116 24.371 20.3077C22.7291 21.2158 20.7963 22.3457 20.1993 24.2804C19.908 26.0239 20.6444 27.9151 21.5555 29.3606C22.5071 30.651 23.9497 31.5337 25.5115 31.8233C27.394 32.0328 29.0413 31.9499 30.5707 30.7297C32.4817 28.8488 32.7644 26.171 32.8363 23.6146C32.8448 23.4395 32.8533 23.2645 32.8621 23.0842C32.8943 22.1746 32.8943 22.1746 32.4879 21.4078C32.2784 21.2588 32.0637 21.1173 31.8447 20.9832C31.265 20.5879 30.9411 20.001 30.5707 19.4111C30.4944 19.2958 30.4182 19.1804 30.3396 19.0616C28.8228 16.7033 29.0614 14.6452 29.3194 11.949C29.61 9.27833 29.61 9.27833 29.3194 6.62711C29.2771 6.4406 29.2349 6.25408 29.1914 6.06191C29.1585 5.92391 29.1257 5.78591 29.0919 5.64373C28.6914 5.59283 28.291 5.54192 27.8785 5.48947ZM11.6492 5.48947C11.4991 5.56583 11.4991 5.56583 11.3459 5.64373C11.4139 5.77706 11.4139 5.77706 11.4833 5.91308C12.0047 7.00576 12.2149 8.15485 12.4076 9.34588C11.5817 9.57495 11.5817 9.57495 10.7392 9.80865C10.8393 10.1141 10.9394 10.4195 11.0425 10.7342C11.7933 10.6578 11.7933 10.6578 12.5593 10.5799C13.0022 9.22838 12.7782 7.56323 12.2559 6.26076C11.9566 5.78501 11.9566 5.78501 11.6492 5.48947ZM26.21 5.64373C25.5148 6.89294 25.1885 8.20936 25.3 9.65439C25.4382 10.1668 25.4382 10.1668 25.6033 10.5799C26.0538 10.6308 26.5043 10.6817 26.9684 10.7342C27.1186 10.4288 27.2687 10.1233 27.4234 9.80865C26.7727 9.65594 26.1221 9.50322 25.4517 9.34588C25.4517 9.24407 25.4517 9.14226 25.4517 9.03737C25.5518 9.03737 25.6519 9.03737 25.755 9.03737C25.7964 8.81963 25.7964 8.81963 25.8385 8.5975C25.8767 8.40541 25.9148 8.21333 25.9541 8.01542C25.991 7.82572 26.028 7.63602 26.0661 7.44057C26.2063 6.89242 26.4079 6.4519 26.6651 5.95224C26.6651 5.85043 26.6651 5.74862 26.6651 5.64373C26.5149 5.64373 26.3647 5.64373 26.21 5.64373ZM8.46404 5.79799C8.61571 6.41501 8.61571 6.41501 8.61571 6.41501L8.46404 5.79799ZM29.3952 5.79799C29.5469 6.1065 29.5469 6.1065 29.5469 6.1065L29.3952 5.79799ZM11.0425 5.95224C10.6361 6.6584 10.4922 7.14083 10.5875 7.95757C10.7611 8.43601 10.9672 8.8914 11.1942 9.34588C11.4945 9.29498 11.7948 9.24407 12.1042 9.19162C12.1736 8.11026 12.0147 7.01531 11.3174 6.16434C11.2267 6.09435 11.136 6.02436 11.0425 5.95224ZM26.8167 5.95224C26.2099 7.00136 26.0436 7.98957 25.9067 9.19162C26.2571 9.24253 26.6074 9.29343 26.9684 9.34588C27.4323 8.35769 27.7159 7.64758 27.4234 6.56927C27.136 6.18604 27.136 6.18604 26.8167 5.95224ZM29.5469 6.1065C29.6986 6.72352 29.6986 6.72352 29.6986 6.72352L29.5469 6.1065ZM8.31236 6.41501C8.31236 6.72044 8.31236 7.02587 8.31236 7.34055C8.36242 7.34055 8.41247 7.34055 8.46404 7.34055C8.46404 7.03512 8.46404 6.72969 8.46404 6.41501C8.41399 6.41501 8.36393 6.41501 8.31236 6.41501ZM29.6986 6.87778C29.6986 7.28502 29.6986 7.69225 29.6986 8.11183C29.7486 8.11183 29.7987 8.11183 29.8502 8.11183C29.8502 7.70459 29.8502 7.29736 29.8502 6.87778C29.8002 6.87778 29.7501 6.87778 29.6986 6.87778ZM8.16069 7.64906C8.10478 9.65591 8.18229 11.6296 8.36924 13.6265C8.37883 13.7335 8.38842 13.8406 8.3983 13.9509C8.42609 14.2567 8.45627 14.5622 8.48655 14.8678C8.51277 15.1335 8.51277 15.1335 8.53951 15.4045C8.57918 15.8458 8.57918 15.8458 8.91906 16.1332C8.81861 13.2971 8.56139 10.4747 8.31236 7.64906C8.26231 7.64906 8.21226 7.64906 8.16069 7.64906ZM10.4358 8.26609C10.4358 8.62242 10.4358 8.97875 10.4358 9.34588C10.636 9.39678 10.8362 9.44769 11.0425 9.50014C10.8924 9.0929 10.7422 8.68566 10.5875 8.26609C10.5374 8.26609 10.4874 8.26609 10.4358 8.26609ZM27.4234 8.42034C27.3233 8.77667 27.2232 9.13301 27.1201 9.50014C27.2702 9.50014 27.4204 9.50014 27.5751 9.50014C27.6252 9.1438 27.6752 8.78747 27.7268 8.42034C27.6267 8.42034 27.5266 8.42034 27.4234 8.42034ZM29.8502 8.5746C29.5826 9.39116 29.5688 10.2657 29.4927 11.1201C29.4622 11.4593 29.4301 11.7984 29.3979 12.1376C29.2657 13.5773 29.2167 14.9955 29.2435 16.4417C29.2936 16.4417 29.3436 16.4417 29.3952 16.4417C29.4827 15.5941 29.5691 14.7464 29.6544 13.8987C29.6835 13.611 29.713 13.3233 29.7427 13.0356C29.9799 10.8105 29.9799 10.8105 30.0019 8.5746C29.9519 8.5746 29.9018 8.5746 29.8502 8.5746ZM10.2841 9.80865C10.2766 10.6456 10.2711 11.4826 10.2675 12.3196C10.266 12.6041 10.2639 12.8885 10.2613 13.1729C10.2576 13.583 10.2559 13.9931 10.2545 14.4032C10.253 14.5292 10.2514 14.6552 10.2498 14.7851C10.2496 15.711 10.2857 16.5523 10.9098 17.2804C11.0037 17.36 11.0975 17.4395 11.1942 17.5215C11.2131 16.671 11.2268 15.8206 11.2359 14.97C11.2396 14.6812 11.2448 14.3925 11.2514 14.1038C11.3405 11.8351 11.3405 11.8351 10.4358 9.80865C10.3858 9.80865 10.3357 9.80865 10.2841 9.80865ZM27.5751 9.96291C27.4672 10.1872 27.4672 10.1872 27.3571 10.416C27.1201 10.8884 27.1201 10.8884 26.9684 11.0427C26.9499 11.2509 26.9415 11.4601 26.9373 11.6691C26.9342 11.8019 26.9312 11.9347 26.9281 12.0715C26.9256 12.2158 26.923 12.3601 26.9204 12.5087C26.9173 12.6557 26.9141 12.8028 26.9109 12.9542C26.9009 13.4257 26.892 13.8973 26.8831 14.3688C26.8765 14.6877 26.8699 15.0066 26.8632 15.3254C26.847 16.1088 26.8316 16.8923 26.8167 17.6757C27.9016 16.6147 27.8489 15.4276 27.8868 13.9605C27.9106 12.6198 27.8853 11.2959 27.7268 9.96291C27.6767 9.96291 27.6267 9.96291 27.5751 9.96291ZM11.8009 10.7342C11.7008 10.836 11.6007 10.9378 11.4975 11.0427C11.7979 11.0427 12.0982 11.0427 12.4076 11.0427C12.2074 10.9409 12.0072 10.8391 11.8009 10.7342ZM25.6033 11.0427C25.9036 11.0427 26.204 11.0427 26.5134 11.0427C26.4633 10.9409 26.4133 10.8391 26.3617 10.7342C26.0093 10.7057 26.0093 10.7057 25.6033 11.0427ZM11.3459 11.3512C11.3116 13.153 11.413 14.9511 11.4975 16.7502C11.7979 16.7502 12.0982 16.7502 12.4076 16.7502C12.4076 14.9685 12.4076 13.1869 12.4076 11.3512C11.7091 11.1271 11.7091 11.1271 11.3459 11.3512ZM25.755 11.3512C25.6294 13.1538 25.5846 14.9432 25.6033 16.7502C25.9537 16.7502 26.3041 16.7502 26.6651 16.7502C26.6651 14.9685 26.6651 13.1869 26.6651 11.3512C26.21 11.1455 26.21 11.1455 25.755 11.3512ZM8.61571 16.2874C8.76739 16.5959 8.76739 16.5959 8.76739 16.5959L8.61571 16.2874ZM27.8785 16.2874C27.8431 16.3844 27.8077 16.4815 27.7712 16.5815C27.0131 18.3904 25.4418 19.0895 23.8051 19.9446C22.5593 20.6024 21.5633 21.4256 20.5981 22.4577C20.6481 22.5595 20.6982 22.6613 20.7497 22.7662C20.9468 22.5419 20.9468 22.5419 21.1479 22.313C22.2121 21.235 23.5709 20.4947 24.8811 19.7688C26.7836 18.7582 26.7836 18.7582 28.0301 17.0587C28.0555 16.6473 28.0555 16.6473 28.0301 16.2874C27.9801 16.2874 27.93 16.2874 27.8785 16.2874ZM29.3952 16.5959C29.5469 16.9044 29.5469 16.9044 29.5469 16.9044L29.3952 16.5959ZM8.46404 16.7502C8.61571 17.0587 8.61571 17.0587 8.61571 17.0587L8.46404 16.7502ZM29.5469 16.9044C29.6986 17.2129 29.6986 17.2129 29.6986 17.2129L29.5469 16.9044ZM8.31236 17.0587C8.46404 17.3672 8.46404 17.3672 8.46404 17.3672L8.31236 17.0587ZM11.4975 17.0587C11.4214 17.4954 11.4214 17.4954 11.4975 17.9842C11.9351 18.3582 11.9351 18.3582 12.4076 18.6013C12.4076 18.0922 12.4076 17.5832 12.4076 17.0587C12.1073 17.0587 11.807 17.0587 11.4975 17.0587ZM25.6033 17.0587C25.6534 17.5168 25.7034 17.975 25.755 18.447C25.9552 18.3452 26.1554 18.2434 26.3617 18.1385C26.4618 18.0876 26.5619 18.0367 26.6651 17.9842C26.6651 17.6788 26.6651 17.3734 26.6651 17.0587C26.3147 17.0587 25.9643 17.0587 25.6033 17.0587ZM29.6986 17.2129C29.8502 17.5215 29.8502 17.5215 29.8502 17.5215L29.6986 17.2129ZM8.16069 17.3672C8.31236 17.6757 8.31236 17.6757 8.31236 17.6757L8.16069 17.3672ZM29.8502 17.5215C30.0019 17.83 30.0019 17.83 30.0019 17.83L29.8502 17.5215ZM8.00901 17.6757C8.16069 17.9842 8.16069 17.9842 8.16069 17.9842L8.00901 17.6757ZM30.0019 17.83C30.1536 18.1385 30.1536 18.1385 30.1536 18.1385L30.0019 17.83ZM7.85734 17.9842C8.00901 18.2927 8.00901 18.2927 8.00901 18.2927L7.85734 17.9842ZM30.1536 18.1385C30.3053 18.447 30.3053 18.447 30.3053 18.447L30.1536 18.1385ZM31.822 20.6066C32.0682 20.8702 32.3215 21.1271 32.5804 21.3779C32.6805 21.3779 32.7806 21.3779 32.8837 21.3779C33.0304 28.0618 33.0304 28.0618 31.0713 30.4724C29.9382 31.6203 28.646 32.0224 27.0916 32.0698C25.1314 32.0328 23.3692 31.4925 21.9062 30.1355C20.3682 28.4284 20.0518 26.221 19.9914 24.0002C19.9413 24.0002 19.8912 24.0002 19.8397 24.0002C19.824 24.172 19.8084 24.3438 19.7923 24.5208C19.7407 24.7976 19.7407 24.7976 19.688 25.08C19.5378 25.1818 19.3877 25.2836 19.233 25.3885C19.7106 27.9147 20.8142 29.9638 22.8353 31.5395C24.5006 32.6434 26.4337 32.9356 28.3738 32.5367C30.2519 31.9711 31.8922 30.6616 32.8843 28.9412C33.6754 27.3005 33.5105 25.3071 33.4999 23.5278C33.4992 23.3038 33.4985 23.0797 33.4978 22.8557C33.4962 22.3116 33.4936 21.7676 33.4904 21.2236C33.2696 21.1201 33.0483 21.0174 32.8269 20.9151C32.7037 20.8578 32.5805 20.8006 32.4536 20.7416C32.1375 20.5873 32.1375 20.5873 31.822 20.6066ZM4.67216 21.0694C4.66077 21.8455 4.65259 22.6215 4.64717 23.3977C4.6449 23.6608 4.64181 23.9239 4.63783 24.1871C4.57229 27.3391 4.57229 27.3391 6.03724 30.0162C6.13226 30.1302 6.22728 30.2441 6.32518 30.3615C7.48624 31.6674 9.04993 32.5492 10.7919 32.6753C12.9749 32.7197 14.7114 32.1186 16.379 30.6501C17.5497 29.434 18.6016 27.4452 18.8348 25.7452C18.8134 25.3603 18.8134 25.3603 18.471 25.1349C18.3226 25.0314 18.3226 25.0314 18.1712 24.9258C18.138 25.1047 18.1048 25.2837 18.0705 25.4681C17.6684 27.5265 17.1609 29.4556 15.4411 30.7875C13.5633 31.9434 11.4145 32.3653 9.26033 31.848C7.85191 31.4084 6.9372 30.4482 6.17943 29.1871C5.18597 27.0103 4.70892 23.8864 5.27886 21.5321C5.66753 21.0597 5.66753 21.0597 6.03724 20.7608C5.55896 20.7608 5.12801 20.932 4.67216 21.0694ZM33.7938 21.2236C33.6038 21.3818 33.6038 21.3818 33.6297 21.7195C33.6338 21.9438 33.6338 21.9438 33.638 22.1726C33.6401 22.339 33.6422 22.5053 33.6443 22.6767C33.6467 22.8558 33.6491 23.0348 33.6516 23.2193C33.6704 26.5392 33.5718 28.8077 31.2153 31.2503C31.0652 31.403 31.0652 31.403 30.912 31.5588C31.8622 31.4537 32.7609 31.2631 33.6866 31.0264C34.6245 30.7928 35.5703 30.6317 36.5239 30.479C36.5675 29.4691 36.6107 28.4592 36.6535 27.4492C36.6682 27.106 36.6829 26.7628 36.6977 26.4196C36.719 25.9249 36.74 25.4301 36.7609 24.9354C36.7709 24.7071 36.7709 24.7071 36.781 24.4741C36.8157 23.6468 36.834 22.823 36.8273 21.9949C35.843 21.5714 34.8602 21.3277 33.7938 21.2236ZM3.30531 21.3586C3.13301 21.4003 3.13301 21.4003 2.95722 21.4429C2.83806 21.4724 2.71889 21.5018 2.59611 21.5321C2.47518 21.5616 2.35425 21.591 2.22966 21.6213C1.93143 21.694 1.63335 21.7672 1.33531 21.8406C1.31811 23.7447 1.33714 25.6449 1.40167 27.5481C1.40762 27.7329 1.41357 27.9177 1.4197 28.1081C1.42607 28.2828 1.43243 28.4575 1.43899 28.6376C1.44455 28.7921 1.45011 28.9466 1.45584 29.1057C1.48821 29.571 1.55628 30.0203 1.63866 30.479C2.20731 30.6018 2.77614 30.7236 3.345 30.8453C3.58256 30.8966 3.58256 30.8966 3.82491 30.949C4.91226 31.1811 6.00166 31.3818 7.09896 31.5588C6.89219 31.2441 6.89219 31.2441 6.64394 30.9418C6.54383 30.9418 6.44373 30.9418 6.34059 30.9418C6.29972 30.8499 6.25886 30.758 6.21676 30.6634C6.03831 30.3268 5.85426 30.1131 5.59169 29.8427C4.51923 28.6003 4.50942 26.779 4.47249 25.2005C4.46934 25.0859 4.46619 24.9712 4.46294 24.8531C4.45313 24.4917 4.44414 24.1303 4.43517 23.7688C4.42861 23.5218 4.42199 23.2747 4.41532 23.0277C4.3992 22.4263 4.38381 21.825 4.36881 21.2236C3.97191 21.2236 3.68606 21.2654 3.30531 21.3586ZM20.4464 22.7662C20.4464 23.2289 20.4464 23.2289 20.4464 23.2289V22.7662ZM20.143 23.2289C20.2947 23.5375 20.2947 23.5375 20.2947 23.5375L20.143 23.2289ZM17.8679 23.3832C18.0196 23.6917 18.0196 23.6917 18.0196 23.6917L17.8679 23.3832ZM19.9914 23.5375C20.143 24.0002 20.143 24.0002 20.143 24.0002L19.9914 23.5375ZM18.0196 23.6917C18.1712 24.3087 18.1712 24.3087 18.1712 24.3087L18.0196 23.6917ZM18.9296 26.1598C18.9296 26.3634 18.9296 26.567 18.9296 26.7768C19.0297 26.7768 19.1298 26.7768 19.233 26.7768C19.1829 26.5732 19.1329 26.3696 19.0813 26.1598C19.0312 26.1598 18.9812 26.1598 18.9296 26.1598ZM17.1095 30.1705C18.3608 30.1705 19.6122 30.1705 20.9014 30.1705C20.7512 29.865 20.6011 29.5596 20.4464 29.2449C20.0037 29.2199 19.5623 29.2016 19.1192 29.1871C18.9941 29.1793 18.869 29.1716 18.74 29.1636C18.6188 29.1606 18.4976 29.1576 18.3727 29.1546C18.2615 29.1497 18.1503 29.1449 18.0357 29.1399C17.5738 29.2546 17.5738 29.2546 17.1095 30.1705Z" fill="#8C9091"/>
</svg>
