<svg width="38" height="38" viewBox="0 0 38 38" fill="none" xmlns="http://www.w3.org/2000/svg">
<path d="M28.8989 2.71319C29.3196 4.2445 29.5913 5.74326 29.7615 7.32081C29.8135 7.76423 29.8658 8.20763 29.9182 8.651C29.998 9.33773 30.0763 10.0245 30.151 10.7118C30.4448 13.3874 30.7726 15.6147 32.1017 17.9733C32.2575 18.3159 32.409 18.6604 32.555 19.0073C33.8848 22.1687 33.8848 22.1687 36.3031 24.5194C36.6232 24.7556 36.6232 24.7556 37 25.3208C36.9334 26.6267 36.4202 27.8023 35.969 29.0166C35.377 30.6464 35.2805 32.1066 35.3283 33.8218C35.3339 34.1909 35.3205 34.5602 35.3044 34.929C35.1801 35.0533 35.0557 35.1777 34.9276 35.3058C33.9378 35.2404 32.9998 35.0295 32.0358 34.804C24.4434 33.0677 16.7888 33.291 9.07022 33.8693C8.9229 33.88 8.77558 33.8907 8.62379 33.9017C7.13264 34.0135 5.70806 34.1626 4.27659 34.6277C3.80233 34.751 3.38818 34.76 2.90023 34.7406C2.50252 34.0761 2.43116 33.4664 2.34829 32.7021C2.31867 32.447 2.28899 32.1918 2.25924 31.9367C2.21449 31.5388 2.17055 31.1408 2.12797 30.7427C1.97182 29.3024 1.80162 27.9739 1.16819 26.6491C0.890164 25.9421 0.995618 25.4811 1.20466 24.7556C1.57923 24.2929 1.95668 23.9478 2.44249 23.6046C3.72085 22.6414 4.39189 21.2248 5.16099 19.8573C5.37847 19.4745 5.59607 19.0919 5.81375 18.7092C6.41561 17.6493 7.01393 16.5873 7.61014 15.5242C7.73449 15.5242 7.85883 15.5242 7.98694 15.5242C7.99412 15.3717 8.0013 15.2192 8.00869 15.062C8.12592 12.9765 8.37875 10.9148 8.6518 8.8445C8.72936 8.25449 8.80474 7.66422 8.87998 7.07391C8.92928 6.69551 8.97871 6.31712 9.02827 5.93875C9.05046 5.76389 9.07265 5.58902 9.09551 5.40886C9.21282 4.5326 9.36382 3.73253 9.68251 2.90159C10.242 2.90159 10.8016 2.90159 11.3781 2.90159C11.6603 5.38206 11.9287 7.86037 12.1127 10.3502C12.1847 11.3203 12.2645 12.2898 12.3447 13.2593C12.3836 13.7532 12.419 14.2474 12.4512 14.7418C12.6515 18.5688 12.6515 18.5688 14.7554 21.6063C14.8506 21.688 14.9458 21.7696 15.0439 21.8537C15.5651 22.328 15.9962 22.8805 16.4412 23.425C16.6116 23.6265 16.7824 23.8276 16.9534 24.0285C17.2236 24.3496 17.4914 24.6727 17.7541 24.9999C18.131 25.4653 18.508 25.8637 18.9846 26.2274C19.7081 26.2791 20.0325 25.9774 20.5793 25.5246C21.3627 24.7696 22.017 23.9188 22.6819 23.06C22.8622 22.8307 23.0427 22.6016 23.2235 22.3727C23.6523 21.8292 24.0795 21.2844 24.5053 20.7386C24.7542 20.4225 24.7542 20.4225 25.134 20.012C25.582 19.375 25.638 18.9681 25.7084 18.1965C25.7208 18.071 25.7332 17.9456 25.7459 17.8163C25.7859 17.4028 25.8213 16.989 25.8566 16.5751C25.8839 16.2842 25.9115 15.9933 25.9394 15.7024C26.0121 14.9358 26.081 14.1689 26.1489 13.4018C26.2312 12.4809 26.3179 11.5603 26.404 10.6397C26.4712 9.92072 26.5378 9.20169 26.6022 8.48244C26.6735 7.68938 26.7486 6.89675 26.8266 6.10433C26.841 5.95675 26.8553 5.80918 26.8702 5.65713C26.9147 5.2093 26.962 4.76184 27.0101 4.31438C27.0306 4.10616 27.0306 4.10616 27.0515 3.89373C27.0887 3.56124 27.1443 3.23091 27.2034 2.90159C27.7604 2.62308 28.2852 2.70183 28.8989 2.71319ZM10.0593 3.27838C9.37377 5.69543 9.17295 8.19656 8.8936 10.6847C8.84184 11.1365 8.78996 11.5882 8.73795 12.0399C8.61175 13.1384 8.48712 14.237 8.36373 15.3358C8.83001 15.2425 8.83001 15.2425 9.30571 15.1474C9.51715 13.7261 9.72832 12.3049 9.9393 10.8836C10.011 10.4005 10.0829 9.91733 10.1547 9.4342C10.2583 8.73835 10.3615 8.04246 10.4648 7.34657C10.5128 7.02444 10.5128 7.02444 10.5617 6.69581C10.721 5.62071 10.8721 4.54593 11.0013 3.46678C10.6904 3.40461 10.3796 3.34244 10.0593 3.27838ZM27.5802 3.27838C27.7354 4.57532 27.9242 5.8663 28.1167 7.15817C28.1498 7.38185 28.183 7.60553 28.2172 7.83598C28.3226 8.54617 28.4283 9.25631 28.5339 9.96646C28.6057 10.4497 28.6775 10.933 28.7492 11.4162C28.9245 12.5972 29.1001 13.7781 29.2757 14.959C29.5866 15.0211 29.8975 15.0833 30.2177 15.1474C30.0646 13.8168 29.9104 12.4864 29.7555 11.1561C29.703 10.7043 29.6507 10.2524 29.5987 9.80056C29.5236 9.14807 29.4476 8.49569 29.3714 7.84332C29.3486 7.64385 29.3259 7.44438 29.3024 7.23886C29.225 5.12143 29.225 5.12143 28.5222 3.27838C28.2083 3.27073 27.8941 3.27034 27.5802 3.27838ZM27.3918 5.35075C27.2434 6.81976 27.0959 8.28886 26.9496 9.75808C26.8816 10.4404 26.8134 11.1228 26.7443 11.805C26.6776 12.4646 26.6118 13.1242 26.5465 13.7839C26.5095 14.1556 26.4716 14.5271 26.4337 14.8987C26.3136 16.119 26.2335 17.3123 26.2614 18.5385C26.4129 18.387 26.5645 18.2354 26.7206 18.0793C26.9443 17.8556 27.1681 17.6318 27.3918 17.4081C27.449 16.9558 27.4952 16.5073 27.5338 16.0533C27.5461 15.9143 27.5584 15.7754 27.571 15.6322C27.5969 15.3356 27.6224 15.039 27.6475 14.7423C27.6852 14.2993 27.7251 13.8566 27.7653 13.4139C28.0042 10.6898 28.098 8.05096 27.5802 5.35075C27.518 5.35075 27.4558 5.35075 27.3918 5.35075ZM11.0013 5.53914C10.9357 5.89187 10.8736 6.24527 10.8129 6.59887C10.7779 6.79559 10.7429 6.9923 10.7069 7.19497C10.4334 9.32313 10.6483 11.5294 10.8142 13.6604C10.8371 13.9635 10.858 14.2667 10.8771 14.57C10.9053 15.016 10.939 15.4613 10.9741 15.9068C10.9816 16.0411 10.9891 16.1753 10.9968 16.3136C11.0887 17.3538 11.419 17.8227 12.1317 18.5385C12.1938 18.5385 12.256 18.5385 12.3201 18.5385C12.3497 17.1373 12.2598 15.7677 12.1206 14.3739C12.1002 14.1623 12.0797 13.9506 12.0586 13.7325C12.0155 13.2881 11.9719 12.8437 11.9279 12.3993C11.8609 11.721 11.7951 11.0426 11.7295 10.3642C11.6872 9.93064 11.6449 9.49706 11.6025 9.06348C11.5829 8.86191 11.5633 8.66034 11.543 8.45266C11.4463 7.47739 11.3386 6.50787 11.1897 5.53914C11.1275 5.53914 11.0653 5.53914 11.0013 5.53914ZM10.2477 11.5678C9.72872 13.7122 9.72872 13.7122 9.68251 15.9009C10.1428 16.3254 10.1428 16.3254 10.6245 16.6545C10.6438 14.947 10.6377 13.2668 10.4361 11.5678C10.3739 11.5678 10.3118 11.5678 10.2477 11.5678ZM28.1454 11.5678C27.9775 13.2048 27.9351 14.8212 27.957 16.4661C28.4363 16.1312 28.4363 16.1312 28.8989 15.7126C28.9708 15.148 28.9658 14.7611 28.8989 14.2054C28.8744 13.9956 28.8499 13.7857 28.8246 13.5695C28.7036 12.6573 28.7036 12.6573 28.5222 11.7562C28.3978 11.6941 28.2735 11.6319 28.1454 11.5678ZM7.88533 16.0377C7.80399 16.1903 7.72265 16.3428 7.63885 16.5C7.54386 16.6724 7.44887 16.8447 7.35101 17.0223C7.25001 17.2118 7.14901 17.4013 7.04496 17.5965C6.81841 17.9978 6.59098 18.3987 6.36275 18.799C6.00175 19.4363 5.64127 20.0737 5.28426 20.7132C4.33086 22.3887 3.40389 23.7194 1.76985 24.7556C1.76985 24.8799 1.76985 25.0043 1.76985 25.1324C2.69949 25.0504 3.17904 24.6363 3.84221 24.002C4.28741 23.395 4.28741 23.395 4.4074 22.6832C4.53175 22.6832 4.65609 22.6832 4.7842 22.6832C4.6788 22.8918 4.5734 23.1004 4.46481 23.3154C4.07229 24.3665 4.41605 25.1277 4.80775 26.1332C4.93447 26.4824 5.06081 26.8317 5.18675 27.1812C5.24804 27.3473 5.30933 27.5134 5.37248 27.6846C5.6694 28.5147 5.8926 29.3636 6.10297 30.2191C6.38274 30.1258 6.38274 30.1258 6.66816 30.0307C6.54382 30.0307 6.41948 30.0307 6.29137 30.0307C6.29137 29.9063 6.29137 29.782 6.29137 29.6539C6.43125 29.8016 6.57114 29.9492 6.71526 30.1013C7.55845 30.8097 8.61142 30.9121 9.68251 30.9727C10.1529 30.9 10.5904 30.7937 11.0484 30.6665C11.1572 30.6432 11.266 30.6199 11.3781 30.5959C11.4402 30.658 11.5024 30.7202 11.5665 30.7843C12.006 30.792 12.4457 30.7923 12.8852 30.7843C12.8852 30.9086 12.8852 31.033 12.8852 31.1611C13.6313 30.9746 13.6313 30.9746 14.3924 30.7843C13.7578 30.0182 13.7578 30.0182 12.8264 29.7834C12.6593 29.8028 12.4922 29.8223 12.3201 29.8423C12.3201 29.5314 12.3201 29.2206 12.3201 28.9003C12.1335 28.9625 11.947 29.0247 11.7549 29.0887C11.817 29.213 11.8792 29.3374 11.9433 29.4655C11.8189 29.4655 11.6946 29.4655 11.5665 29.4655C11.5509 29.3256 11.5354 29.1857 11.5194 29.0416C11.351 28.4244 11.1077 28.1776 10.6245 27.7699C10.5623 27.7699 10.5001 27.7699 10.4361 27.7699C10.3575 28.4056 10.3575 28.4056 10.4361 29.0887C10.8831 29.4671 10.8831 29.4671 11.3781 29.6539C10.4619 29.5754 10.0848 29.2074 9.49411 28.5235C9.29575 28.2157 9.10362 27.9033 8.92892 27.5815C9.05326 27.5815 9.1776 27.5815 9.30571 27.5815C9.36011 27.7331 9.41451 27.8846 9.47056 28.0408C9.63213 28.5485 9.63213 28.5485 10.0593 28.7119C10.0593 28.2145 10.0593 27.7172 10.0593 27.2047C10.2342 27.3291 10.409 27.4534 10.5892 27.5815C11.1513 28.0084 11.1513 28.0084 11.7549 27.9583C11.7549 27.2049 11.4297 26.8652 11.0013 26.2628C12.3559 27.6173 13.5995 29.0809 14.7692 30.5959C14.9825 30.4248 15.1941 30.2517 15.4051 30.0778C15.5231 29.9816 15.6411 29.8854 15.7627 29.7864C16.1036 29.4501 16.2766 29.1491 16.4648 28.7119C16.0841 28.8253 15.7072 28.9518 15.3344 29.0887C15.2722 29.213 15.2101 29.3374 15.146 29.4655C15.0829 27.8558 15.0829 27.8558 15.5228 27.2047C16.0688 26.8993 16.6319 26.6672 17.2184 26.4512C17.1562 26.9485 17.094 27.4459 17.03 27.9583C17.5506 27.3509 17.8817 26.8213 18.1603 26.0744C18.0576 25.976 17.9549 25.8776 17.8491 25.7763C16.9069 24.8567 16.0536 23.9022 15.2306 22.8753C14.7117 22.2355 14.1771 21.6111 13.6388 20.9877C12.956 20.1959 12.2832 19.3984 11.6253 18.5856C11.3551 18.2555 11.0842 17.9258 10.8129 17.5965C10.665 17.4161 10.5171 17.2356 10.3647 17.0497C10.2173 16.8766 10.0699 16.7034 9.918 16.525C9.78686 16.3689 9.65572 16.2127 9.5206 16.0518C9.14446 15.6756 9.14446 15.6756 8.65465 15.6421C8.15723 15.6628 8.15723 15.6628 7.88533 16.0377ZM29.8409 16.0893C29.5628 16.3637 29.5628 16.3637 29.2875 16.7134C28.9245 17.1563 28.5566 17.5744 28.1454 17.9733C28.2075 17.6625 28.2697 17.3516 28.3338 17.0313C26.7947 18.5373 25.4626 20.2095 24.189 21.9414C23.2046 23.2758 22.1647 24.5281 20.9863 25.6976C20.8988 25.7871 20.8113 25.8766 20.7212 25.9688C20.4432 26.2311 20.4432 26.2311 19.8559 26.6396C19.6364 26.6294 19.4168 26.6192 19.1906 26.6086C18.5532 26.5679 18.5532 26.5679 18.2597 26.9003C17.985 27.282 17.74 27.671 17.501 28.0761C16.8325 29.173 16.1737 30.0022 15.146 30.7843C15.3103 31.503 15.609 31.8527 16.194 32.2679C17.0591 32.774 17.7752 32.7283 18.7255 32.4798C18.9121 32.3866 18.9121 32.3866 19.1023 32.2914C19.2345 31.0495 18.819 30.3145 18.1603 29.2771C17.7873 29.3704 17.7873 29.3704 17.4068 29.4655C17.4068 29.3412 17.4068 29.2168 17.4068 29.0887C17.7798 29.0887 18.1528 29.0887 18.5371 29.0887C18.5993 29.3996 18.6615 29.7104 18.7255 30.0307C18.8499 30.0307 18.9742 30.0307 19.1023 30.0307C19.1645 30.3415 19.2267 30.6524 19.2907 30.9727C19.8269 30.4365 19.818 30.0232 19.8559 29.2771C19.6249 28.729 19.6249 28.729 19.2907 28.3351C19.2286 28.3351 19.1664 28.3351 19.1023 28.3351C19.0402 28.646 18.978 28.9568 18.9139 29.2771C18.9139 28.7176 18.9139 28.158 18.9139 27.5815C19.0383 27.5815 19.1626 27.5815 19.2907 27.5815C19.349 27.7292 19.4073 27.8768 19.4674 28.029C19.6541 28.5091 19.6541 28.5091 19.8559 28.9003C19.8839 29.754 19.8758 30.5165 19.6675 31.3495C19.5432 31.3495 19.4188 31.3495 19.2907 31.3495C19.2752 31.5282 19.2596 31.7069 19.2436 31.8911C19.197 32.0854 19.1504 32.2797 19.1023 32.4798C18.7167 32.705 18.7167 32.705 18.3487 32.8566C18.4512 32.8584 18.5536 32.8602 18.6592 32.862C23.4717 32.963 28.3071 33.4182 32.9892 34.561C33.5858 34.7044 34.1216 34.7863 34.7392 34.7406C34.646 33.9013 34.646 33.9013 34.5508 33.045C34.4265 33.045 34.3022 33.045 34.1741 33.045C34.1585 32.9362 34.143 32.8274 34.127 32.7153C33.947 32.1754 33.6494 31.9148 33.2321 31.5379C33.0405 32.038 33.0191 32.2333 33.2313 32.7359C33.3209 32.8846 33.4106 33.0332 33.5029 33.1863C33.592 33.3369 33.6811 33.4875 33.773 33.6426C33.8432 33.7563 33.9133 33.8699 33.9857 33.987C33.3052 33.3233 33.0528 32.9424 33.0201 31.9618C33.0279 31.7597 33.0357 31.5576 33.0437 31.3495C33.2302 31.2873 33.4167 31.2251 33.6089 31.1611C33.6594 31.266 33.7099 31.3709 33.7619 31.479C34.0053 31.9528 34.264 32.4077 34.5508 32.8566C34.613 32.8566 34.6752 32.8566 34.7392 32.8566C34.8014 31.9241 34.8636 30.9915 34.9276 30.0307C34.7295 30.1511 34.5313 30.2716 34.3271 30.3957C33.7769 30.7122 33.3042 30.8954 32.6669 30.9727C32.7601 30.5996 32.7601 30.5996 32.8553 30.2191C33.0418 30.2191 33.2283 30.2191 33.4205 30.2191C33.2961 30.4056 33.1718 30.5921 33.0437 30.7843C33.7579 30.5112 34.4354 30.1905 35.116 29.8423C34.5178 29.1969 34.5178 29.1969 33.7973 28.7119C33.704 29.0849 33.704 29.0849 33.6089 29.4655C33.5467 29.0925 33.4845 28.7194 33.4205 28.3351C34.0142 28.6814 34.5734 29.0434 35.116 29.4655C36.2164 27.4939 36.2164 27.4939 36.4348 25.3208C36.0661 24.9537 35.7089 24.6419 35.3044 24.3199C33.9869 23.1928 33.3062 21.981 32.6316 20.4032C32.4035 19.8706 32.1568 19.3468 31.9133 18.8211C31.7871 18.5388 31.6612 18.2563 31.5365 17.9733C31.3038 18.6713 31.4216 18.8466 31.694 19.5151C31.7702 19.7053 31.8465 19.8956 31.9251 20.0917C32.0067 20.2902 32.0883 20.4887 32.1723 20.6933C32.3312 21.0854 32.4897 21.4776 32.6477 21.87C32.719 22.044 32.7902 22.218 32.8636 22.3973C33.0187 22.8058 33.1379 23.1993 33.2321 23.6252C32.859 23.8117 32.859 23.8117 32.4785 24.002C32.8349 24.1304 32.8349 24.1304 33.2321 24.1904C33.4186 24.0039 33.4186 24.0039 33.6089 23.8136C33.7332 23.9379 33.8575 24.0623 33.9857 24.1904C34.1034 24.2487 34.2212 24.307 34.3426 24.367C34.7636 24.5795 35.0783 24.8238 35.434 25.1324C35.5474 25.2295 35.6608 25.3267 35.7776 25.4267C36.058 25.6976 36.058 25.6976 36.2464 26.0744C36.1221 26.0744 35.9977 26.0744 35.8696 26.0744C35.8152 26.2453 35.7608 26.4163 35.7048 26.5925C35.4928 27.2047 35.4928 27.2047 35.116 27.9583C34.4943 27.9583 33.8726 27.9583 33.2321 27.9583C33.1388 27.3988 33.1388 27.3988 33.0437 26.8279C32.4166 27.7686 32.1955 28.8703 31.878 29.9483C31.8062 30.1852 31.7344 30.4221 31.6605 30.6662C31.5601 31.0048 31.5601 31.0048 31.4578 31.3502C31.396 31.5577 31.3343 31.7653 31.2707 31.9791C31.1063 32.4719 31.1063 32.4719 31.3481 32.8566C31.7211 32.5769 31.7211 32.5769 32.1017 32.2914C32.596 32.8682 32.6669 32.9945 32.6669 33.7986C32.4804 33.8919 32.4804 33.8919 32.2901 33.987C32.3523 33.6762 32.4144 33.3653 32.4785 33.045C32.1588 32.7985 32.1588 32.7985 31.7249 32.6682C31.2071 32.9097 31.2071 32.9097 30.7829 33.2334C31.0341 32.1031 31.2853 30.9727 31.5365 29.8423C31.3798 29.9007 31.3798 29.9007 31.2199 29.9604C30.7447 30.1373 30.2693 30.3136 29.7938 30.4899C29.6294 30.5512 29.465 30.6125 29.2956 30.6757C29.1365 30.7346 28.9775 30.7935 28.8136 30.8542C28.6676 30.9085 28.5215 30.9627 28.3711 31.0186C27.6749 31.2581 27.0764 31.3734 26.3387 31.3745C26.0937 31.3748 26.0937 31.3748 25.8438 31.3752C25.59 31.3741 25.59 31.3741 25.3312 31.373C25.1628 31.3737 24.9944 31.3745 24.8208 31.3752C24.0219 31.374 23.2718 31.3658 22.4935 31.1611C22.4313 31.4719 22.3691 31.7828 22.3051 32.1031C22.2429 32.1031 22.1807 32.1031 22.1167 32.1031C22.1167 31.73 22.1167 31.357 22.1167 30.9727C21.9923 30.9727 21.868 30.9727 21.7399 30.9727C21.8021 31.2835 21.8642 31.5944 21.9283 31.9147C21.8039 31.9147 21.6796 31.9147 21.5515 31.9147C21.5282 31.7942 21.5049 31.6737 21.4808 31.5496C21.442 31.4214 21.4031 31.2932 21.3631 31.1611C21.1766 31.0678 21.1766 31.0678 20.9863 30.9727C21.0485 31.3457 21.1106 31.7187 21.1747 32.1031C20.8039 31.7322 20.8615 31.0955 20.7979 30.5959C21.1088 30.658 21.4196 30.7202 21.7399 30.7843C21.6763 30.6745 21.6126 30.5647 21.5471 30.4516C20.8668 29.2012 20.5834 28.0491 20.4211 26.6396C20.5454 26.6396 20.6698 26.6396 20.7979 26.6396C20.8028 26.7581 20.8076 26.8766 20.8126 26.9987C20.8875 28.1293 21.0618 29.0985 21.7399 30.0307C22.1266 30.351 22.1266 30.351 22.4935 30.5959C22.5962 30.4703 22.6989 30.3448 22.8048 30.2154C23.8314 28.9607 24.858 27.7059 25.8846 26.4512C25.3333 27.4802 24.6931 28.3639 23.9535 29.2653C23.8491 29.3942 23.7447 29.523 23.6371 29.6557C23.3823 29.9698 23.1264 30.2829 22.8703 30.5959C23.5334 31.259 24.294 31.2002 25.2017 31.2199C27.5385 31.1981 29.5125 30.3892 31.5365 29.2771C31.5365 29.0906 31.5365 28.9041 31.5365 28.7119C31.6521 28.5725 31.7677 28.4331 31.8868 28.2895C32.3587 27.6815 32.5158 27.1685 32.714 26.4276C32.7771 26.1979 32.8403 25.9681 32.9053 25.7314C33.0649 25.1431 33.0649 25.1431 33.0437 24.5672C32.7639 24.4739 32.7639 24.4739 32.4785 24.3788C31.8152 23.8418 31.5637 23.5645 31.3834 22.7185C31.3718 22.5204 31.3601 22.3222 31.3481 22.118C31.4724 22.118 31.5968 22.118 31.7249 22.118C31.6627 22.4911 31.6006 22.8641 31.5365 23.2484C31.8163 23.3417 31.8163 23.3417 32.1017 23.4368C32.3325 22.0822 32.3325 22.0822 31.9133 20.7993C31.5403 20.8614 31.1672 20.9236 30.7829 20.9877C30.6897 21.2674 30.6897 21.2674 30.5945 21.5528C29.4633 21.5036 28.8203 21.398 27.957 20.6109C27.7705 20.6109 27.5839 20.6109 27.3918 20.6109C27.2985 19.8648 27.2985 19.8648 27.2034 19.1037C27.3277 19.1037 27.4521 19.1037 27.5802 19.1037C27.5802 19.4767 27.5802 19.8497 27.5802 20.2341C27.8599 20.3273 27.8599 20.3273 28.1454 20.4225C28.0521 19.6764 28.0521 19.6764 27.957 18.9153C28.1744 19.3501 28.246 19.7579 28.3338 20.2341C29.1731 20.4206 29.1731 20.4206 30.0293 20.6109C29.532 20.6109 29.0346 20.6109 28.5222 20.6109C28.9603 21.1501 29.1634 21.3487 29.8645 21.4469C30.0432 21.4197 30.222 21.3925 30.4061 21.3644C30.5926 21.0847 30.5926 21.0847 30.7829 20.7993C31.2775 20.6697 31.2775 20.6697 31.7249 20.6109C31.6885 20.5016 31.652 20.3923 31.6145 20.2797C31.1987 19.0323 31.1987 19.0323 30.7829 17.7849C30.7207 17.7849 30.6586 17.7849 30.5945 17.7849C30.5576 18.5797 30.6318 19.1357 30.9713 19.8573C30.7829 20.0457 30.7829 20.0457 30.4348 20.0641C30.0485 20.0579 29.6621 20.0518 29.2757 20.0457C29.4001 19.9213 29.5244 19.797 29.6525 19.6689C29.7691 19.7349 29.8857 19.801 30.0058 19.8691C30.1379 19.9273 30.27 19.9856 30.4061 20.0457C30.5926 19.9524 30.5926 19.9524 30.7829 19.8573C30.5964 19.1112 30.4099 18.3652 30.2177 17.5965C29.5649 17.8763 29.5649 17.8763 28.8989 18.1617C29.3435 17.7665 29.567 17.6023 30.1706 17.5612C30.3105 17.5729 30.4504 17.5845 30.5945 17.5965C30.408 16.8505 30.408 16.8505 30.2177 16.0893C30.0934 16.0893 29.969 16.0893 29.8409 16.0893ZM30.9713 17.0313C31.1597 17.4081 31.1597 17.4081 31.1597 17.4081L30.9713 17.0313ZM31.1597 17.5965C31.3481 17.9733 31.3481 17.9733 31.3481 17.9733L31.1597 17.5965ZM32.2901 22.3064C32.2429 22.7616 32.2429 22.7616 32.2901 23.2484C32.5699 23.4349 32.5699 23.4349 32.8553 23.6252C32.7309 23.19 32.6066 22.7548 32.4785 22.3064C32.4163 22.3064 32.3541 22.3064 32.2901 22.3064ZM33.6089 24.3788C33.5137 24.6807 33.4197 24.983 33.3263 25.2855C33.2738 25.4537 33.2214 25.622 33.1673 25.7954C33.0196 26.2733 33.0196 26.2733 33.0437 26.8279C33.3545 26.8279 33.6654 26.8279 33.9857 26.8279C34.0899 26.4369 34.1741 26.1038 34.1741 25.6976C34.4227 25.5732 34.6714 25.4489 34.9276 25.3208C34.6218 24.9988 34.3072 24.685 33.9857 24.3788C33.8613 24.3788 33.737 24.3788 33.6089 24.3788ZM3.84221 24.5672C3.72856 24.6308 3.6149 24.6944 3.4978 24.76C3.34723 24.844 3.19666 24.9281 3.04153 25.0146C2.81859 25.1392 2.81859 25.1392 2.59114 25.2663C2.19579 25.4823 1.79743 25.6875 1.39306 25.886C1.45887 26.0611 1.52469 26.2362 1.5925 26.4166C1.72109 26.7659 1.72109 26.7659 1.85228 27.1223C1.93752 27.3518 2.02276 27.5813 2.11059 27.8178C2.3267 28.4973 2.43185 29.1372 2.52344 29.8423C2.72436 30.0865 2.72436 30.0865 3.1946 30.0425C3.42191 30.0366 3.42191 30.0366 3.65382 30.0307C3.46731 29.5955 3.28079 29.1603 3.08863 28.7119C3.39948 28.7741 3.71034 28.8363 4.03061 28.9003C3.8441 28.9003 3.65759 28.9003 3.46542 28.9003C3.51745 29.2659 3.51745 29.2659 3.65382 29.6539C3.84033 29.7782 4.02684 29.9026 4.21901 30.0307C4.21901 30.155 4.21901 30.2794 4.21901 30.4075C3.72164 30.4075 3.22427 30.4075 2.71184 30.4075C2.71184 30.8427 2.71184 31.2779 2.71184 31.7263C3.08486 31.5397 3.45789 31.3532 3.84221 31.1611C3.90439 31.2854 3.96656 31.4098 4.03061 31.5379C4.1161 31.3552 4.20158 31.1726 4.28966 30.9844C4.5958 30.4075 4.5958 30.4075 4.97259 30.2191C5.10955 29.8333 5.10955 29.8333 5.19631 29.3831C5.23007 29.2318 5.26383 29.0805 5.29861 28.9246C5.38834 28.5141 5.38834 28.5141 5.16099 28.1467C4.98225 28.0884 4.80351 28.0302 4.61935 27.9701C3.77904 27.6844 3.77904 27.6844 3.46542 27.2047C3.5243 26.7926 3.5243 26.7926 3.65382 26.4512C3.65382 26.6998 3.65382 26.9485 3.65382 27.2047C3.97963 27.6405 3.97963 27.6405 4.4074 27.9583C4.59392 27.9583 4.78043 27.9583 4.97259 27.9583C4.97259 27.7718 4.97259 27.5853 4.97259 27.3931C4.78608 27.3931 4.59957 27.3931 4.4074 27.3931C4.46569 27.0959 4.46569 27.0959 4.52515 26.7926C4.59573 26.0751 4.54235 25.76 4.21901 25.1324C4.08495 25.3189 4.08495 25.3189 3.94819 25.5092C3.85105 25.6335 3.7539 25.7579 3.65382 25.886C3.59165 25.886 3.52948 25.886 3.46542 25.886C3.56256 25.7383 3.65971 25.5907 3.75979 25.4385C3.84916 25.2753 3.93853 25.1121 4.03061 24.944C3.96844 24.8196 3.90627 24.6953 3.84221 24.5672ZM34.9276 25.5092C34.9898 26.0065 35.052 26.5039 35.116 27.0163C35.2404 27.0163 35.3647 27.0163 35.4928 27.0163C35.555 26.6433 35.6172 26.2703 35.6812 25.886C35.4325 25.7616 35.1839 25.6373 34.9276 25.5092ZM34.5508 25.886C34.3604 26.4604 34.3604 26.4604 34.5508 27.0163C34.6752 26.892 34.7995 26.7677 34.9276 26.6396C34.8676 26.2424 34.8676 26.2424 34.7392 25.886C34.6771 25.886 34.6149 25.886 34.5508 25.886ZM4.5958 26.8279C4.7842 27.2047 4.7842 27.2047 4.7842 27.2047L4.5958 26.8279ZM15.5228 27.5815C15.2786 27.7824 15.2786 27.7824 15.3226 28.2527C15.3265 28.4042 15.3304 28.5558 15.3344 28.7119C15.8924 28.5965 16.1597 28.4757 16.6532 28.1467C16.7918 27.4746 16.7918 27.4746 16.8416 26.8279C16.3903 26.8279 15.8801 27.3359 15.5228 27.5815ZM33.6089 27.0163C33.8886 27.2029 33.8886 27.2029 34.1741 27.3931C34.2362 27.2688 34.2984 27.1445 34.3624 27.0163C34.1138 27.0163 33.8651 27.0163 33.6089 27.0163ZM34.9276 27.0163C34.8033 27.1407 34.679 27.265 34.5508 27.3931C34.0265 27.4325 33.7055 27.4414 33.2321 27.2047C33.2942 27.4534 33.3564 27.7021 33.4205 27.9583C34.0682 27.9242 34.0682 27.9242 34.7392 27.7699C35.0243 27.4052 35.0243 27.4052 35.116 27.0163C35.0539 27.0163 34.9917 27.0163 34.9276 27.0163ZM11.9433 27.7699C11.8811 28.0186 11.8189 28.2673 11.7549 28.5235C12.0036 28.5857 12.2522 28.6479 12.5085 28.7119C12.5706 29.0228 12.6328 29.3336 12.6969 29.6539C12.9455 29.5917 13.1942 29.5296 13.4504 29.4655C13.2353 29.1824 13.0192 28.8999 12.8028 28.6177C12.6826 28.4603 12.5624 28.303 12.4385 28.1408C12.3373 28.0184 12.236 27.896 12.1317 27.7699C12.0695 27.7699 12.0073 27.7699 11.9433 27.7699ZM31.7249 28.5235C31.9133 28.9003 31.9133 28.9003 31.9133 28.9003L31.7249 28.5235ZM5.34939 29.2771C5.34939 29.5258 5.34939 29.7745 5.34939 30.0307C5.41156 29.782 5.47373 29.5333 5.53778 29.2771C5.47561 29.2771 5.41344 29.2771 5.34939 29.2771ZM5.53778 30.0307C5.72618 30.4075 5.72618 30.4075 5.72618 30.4075L5.53778 30.0307ZM4.7842 30.4075C4.44017 30.8448 4.44017 30.8448 4.21901 31.3495C4.28118 31.4738 4.34335 31.5981 4.4074 31.7263C4.84836 31.3254 5.10579 30.9509 5.34939 30.4075C5.16287 30.4075 4.97636 30.4075 4.7842 30.4075ZM5.34939 30.7843C5.27556 30.9358 5.20173 31.0874 5.12567 31.2435C4.7842 31.7263 4.7842 31.7263 4.27788 31.8793C4.13411 31.891 3.99034 31.9026 3.84221 31.9147C3.7917 32.0973 3.74119 32.2799 3.68914 32.4681C3.61531 32.6585 3.54149 32.8489 3.46542 33.045C3.27891 33.1072 3.0924 33.1694 2.90023 33.2334C3.02457 33.6065 3.14892 33.9795 3.27703 34.3638C4.27176 34.1151 5.26649 33.8664 6.29137 33.6102C6.24086 33.2139 6.19034 32.8175 6.1383 32.4092C6.10988 32.1863 6.08147 31.9633 6.05219 31.7336C5.96978 31.1054 5.96978 31.1054 5.34939 30.7843ZM6.29137 30.7843C6.31809 31.114 6.34575 31.4437 6.37379 31.7734C6.38909 31.957 6.40439 32.1406 6.42016 32.3297C6.47064 32.7759 6.55434 33.1776 6.66816 33.6102C7.81769 33.5337 8.96719 33.4566 10.1167 33.3791C10.5071 33.3528 10.8976 33.3267 11.2881 33.3007C11.8516 33.2632 12.4152 33.2252 12.9787 33.1871C13.1513 33.1757 13.3239 33.1643 13.5016 33.1525C14.5563 33.0807 15.6034 32.9803 16.6532 32.8566C16.5094 32.744 16.3656 32.6313 16.2175 32.5152C15.2347 31.7152 15.2347 31.7152 14.9576 31.1611C14.8119 31.1912 14.6662 31.2213 14.5161 31.2523C12.2153 31.5768 9.79546 31.5009 7.5498 30.9079C7.00959 30.7544 7.00959 30.7544 6.29137 30.7843ZM10.8129 30.7843C10.7507 30.9086 10.6885 31.033 10.6245 31.1611C10.8732 31.0989 11.1219 31.0367 11.3781 30.9727C11.1916 30.9105 11.005 30.8483 10.8129 30.7843ZM3.46542 31.5379C3.21674 31.7244 2.96806 31.9109 2.71184 32.1031C2.83618 32.3517 2.96052 32.6004 3.08863 32.8566C3.3954 32.5157 3.3954 32.5157 3.65382 32.1031C3.59165 31.9165 3.52948 31.73 3.46542 31.5379Z" fill="#8C9091"/>
<path d="M8.74076 16.4658C9.73224 16.7055 10.1088 17.0347 10.6836 17.867C10.8302 18.0728 10.9771 18.2784 11.1244 18.4837C11.198 18.5876 11.2715 18.6915 11.3473 18.7985C12.3801 20.2336 13.56 21.4901 14.8217 22.7234C15.4967 23.4139 16.095 24.1465 16.6954 24.9032C17.0227 25.3267 17.0227 25.3267 17.407 25.6972C17.407 25.8838 17.407 26.0703 17.407 26.2624C16.8472 26.0149 16.5004 25.7669 16.1103 25.2969C16.0119 25.1803 15.9135 25.0637 15.8121 24.9435C15.6573 24.7571 15.6573 24.7571 15.4995 24.5669C14.7683 23.7015 14.0331 22.8683 13.2152 22.0824C12.352 21.2446 11.6625 20.3378 10.9662 19.3617C10.6659 18.9011 10.6659 18.9011 10.2479 18.7266C10.1858 18.9753 10.1236 19.2239 10.0595 19.4802C9.81085 19.5423 9.56216 19.6045 9.30594 19.6686C9.14215 19.4351 8.98189 19.1991 8.82318 18.9621C8.73357 18.8309 8.64395 18.6998 8.55162 18.5647C8.36396 18.1614 8.36396 18.1614 8.40591 17.7463C8.55236 17.4078 8.55236 17.4078 8.92915 17.2194C8.86698 16.9707 8.80481 16.722 8.74076 16.4658ZM8.74076 17.7846C9.30029 17.8779 9.30029 17.8779 9.87113 17.973C9.80896 17.7865 9.74679 17.6 9.68274 17.4078C9.24498 17.373 9.24498 17.373 8.74076 17.7846ZM8.74076 17.973C8.92727 18.4082 9.11378 18.8434 9.30594 19.2918C9.55463 19.2296 9.80331 19.1674 10.0595 19.1034C9.99736 18.7925 9.93519 18.4817 9.87113 18.1614C9.3116 18.0681 9.3116 18.0681 8.74076 17.973Z" fill="#8C9091"/>
<path d="M26.6735 21.3057C27.6344 21.3258 28.2597 21.4399 29.0874 21.9297C29.5466 22.436 29.5466 22.436 29.8409 22.8717C29.9031 22.7474 29.9653 22.623 30.0293 22.4949C30.1537 22.4949 30.278 22.4949 30.4061 22.4949C30.7821 23.2704 30.8624 23.8971 30.7829 24.7557C30.571 25.1089 30.571 25.1089 30.2177 25.3209C29.6172 25.4504 29.6172 25.4504 29.0874 25.5093C29.1495 25.3655 29.2117 25.2217 29.2758 25.0736C29.497 24.569 29.497 24.569 29.4641 24.0021C28.6967 24.3962 28.3635 24.7542 27.957 25.5093C27.8326 25.6336 27.7083 25.7579 27.5802 25.8861C27.5152 26.1367 27.453 26.388 27.3918 26.6396C27.2139 27.0844 27.0204 27.5203 26.8266 27.9584C26.3354 27.4673 26.4048 27.1156 26.3998 26.4461C26.4498 26.0745 26.4498 26.0745 26.8266 25.5093C26.982 25.4549 27.1375 25.4005 27.2976 25.3444C27.8137 25.1777 27.8137 25.1777 27.957 24.6615C28.1454 24.1905 28.1454 24.1905 28.6399 23.9432C28.8614 23.8791 28.8614 23.8791 29.0874 23.8137C29.1556 23.0452 29.1556 23.0452 28.8754 22.3536C27.9996 21.7698 27.109 21.6436 26.073 21.7413C25.4162 22.1401 25.2147 22.9387 24.9426 23.6253C25.5022 23.9983 26.0617 24.3713 26.6382 24.7557C25.8846 24.9441 25.8846 24.9441 25.5292 24.7763C25.4172 24.6918 25.3053 24.6073 25.1899 24.5202C25.0765 24.4376 24.9631 24.355 24.8462 24.27C24.5658 24.0021 24.5658 24.0021 24.3774 23.4369C24.5519 23.024 24.5519 23.024 24.8131 22.5773C24.8979 22.4294 24.9826 22.2815 25.0699 22.1292C25.5466 21.3882 25.8141 21.3092 26.6735 21.3057ZM30.0293 23.0601C29.8112 23.7145 29.828 24.2584 29.8409 24.9441C30.0275 24.8819 30.214 24.8197 30.4061 24.7557C30.6449 24.2413 30.6026 24.0259 30.4179 23.484C30.3518 23.3441 30.2858 23.2042 30.2177 23.0601C30.1556 23.0601 30.0934 23.0601 30.0293 23.0601ZM27.015 25.8861C26.5804 26.3976 26.5804 26.3976 26.7088 26.8634C26.7477 26.976 26.7866 27.0887 26.8266 27.2048C27.0131 26.7696 27.1996 26.3344 27.3918 25.8861C27.2674 25.8861 27.1431 25.8861 27.015 25.8861Z" fill="#8C9091"/>
<path d="M8.74074 19.8574C9.28457 20.3776 9.48398 20.6235 9.52965 21.3999C9.49433 22.1182 9.49433 22.1182 9.27061 22.8011C9.04665 23.4346 9.04665 23.4346 9.37658 23.9668C9.47761 24.1028 9.57864 24.2388 9.68273 24.3789C9.68273 24.5033 9.68273 24.6276 9.68273 24.7557C9.55838 24.7557 9.43404 24.7557 9.30593 24.7557C9.2321 24.6003 9.15828 24.4449 9.08221 24.2847C8.77223 23.7409 8.77223 23.7409 8.09313 23.7078C7.34449 23.826 7.12632 23.9812 6.66838 24.5673C6.72278 24.7189 6.77718 24.8704 6.83323 25.0266C7.07976 25.8072 7.25471 26.5926 7.42197 27.3933C7.79499 27.4555 8.16802 27.5176 8.55235 27.5817C8.19281 28.0893 7.9737 28.1496 7.35132 28.2764C6.52982 28.1206 6.52982 28.1206 6.11497 27.5935C5.43451 26.3597 5.62397 24.7979 5.7264 23.437C5.78857 23.3126 5.85074 23.1883 5.9148 23.0602C6.5365 23.0602 7.15821 23.0602 7.79876 23.0602C7.79876 23.1223 7.79876 23.1845 7.79876 23.2486C7.05271 23.3418 7.05271 23.3418 6.29159 23.437C5.97383 25.3837 5.97383 25.3837 6.56241 27.1931C6.72172 27.3835 6.88103 27.5739 7.04517 27.7701C6.983 27.6457 6.92083 27.5214 6.85678 27.3933C6.70796 26.8329 6.59419 26.266 6.47999 25.6977C6.44939 25.559 6.41879 25.4204 6.38726 25.2775C6.27314 24.6568 6.23611 24.2889 6.55063 23.7313C7.25451 23.3124 7.93335 23.2831 8.74074 23.2486C8.67857 23.0659 8.6164 22.8833 8.55235 22.6951C8.32224 21.8898 8.2487 21.0664 8.36395 20.2342C8.48829 20.1099 8.61263 19.9855 8.74074 19.8574ZM8.74074 20.4226C8.55864 21.0107 8.55425 21.4627 8.63477 22.0711C8.65396 22.2217 8.67314 22.3722 8.69291 22.5274C8.70869 22.641 8.72448 22.7547 8.74074 22.8718C9.14909 22.2592 9.24665 21.9024 9.30593 21.1762C9.1508 20.7392 9.1508 20.7392 8.92914 20.4226C8.86697 20.4226 8.8048 20.4226 8.74074 20.4226Z" fill="#8C9091"/>
<path d="M12.4023 22.2363C13.2858 22.3293 13.4576 22.5655 14.0155 23.249C14.1335 23.3701 14.2515 23.4913 14.3731 23.6162C14.9122 24.2095 15.2982 24.665 15.4027 25.4751C15.336 26.565 15.0918 27.3123 14.3923 28.1473C13.8949 28.0851 13.3975 28.0229 12.8851 27.9589C12.8851 27.8345 12.8851 27.7102 12.8851 27.5821C13.0911 27.6015 13.297 27.6209 13.5092 27.641C14.2129 27.6607 14.2129 27.6607 14.5571 27.1935C14.7985 26.5633 14.9058 25.9935 14.9575 25.3213C14.8953 25.2591 14.8331 25.197 14.7691 25.1329C14.7283 25.4535 14.7283 25.4535 14.6867 25.7805C14.5807 26.4517 14.5807 26.4517 14.3923 26.6401C13.7553 26.7227 13.1445 26.7305 12.5083 26.6401C11.9902 26.2044 11.9902 26.2044 11.5663 25.6981C11.3643 25.6126 11.1622 25.5271 10.954 25.4391C10.7831 25.338 10.6121 25.237 10.436 25.1329C10.2711 24.4382 10.2711 24.4382 10.2476 23.8141C10.3719 23.752 10.4962 23.6898 10.6244 23.6258C10.636 23.8045 10.6477 23.9832 10.6597 24.1674C10.7102 24.3617 10.7607 24.556 10.8127 24.7561C11.2631 24.9646 11.2631 24.9646 11.7547 25.1329C12.0726 25.6157 12.0726 25.6157 12.3199 26.0749C12.7508 26.2903 12.9968 26.2828 13.4738 26.2751C13.8352 26.2692 13.8352 26.2692 14.2039 26.2633C14.3927 25.5882 14.3927 25.5882 14.2039 24.9445C14.1964 24.5678 14.1957 24.1909 14.2039 23.8141C14.0951 23.7675 13.9863 23.7209 13.8742 23.6729C13.4503 23.4374 13.4503 23.4374 13.1206 23.0252C12.7377 22.6453 12.7377 22.6453 12.314 22.6771C11.9367 22.7256 11.5626 22.7976 11.1895 22.8722C11.1274 23.0587 11.0652 23.2452 11.0011 23.4374C10.8768 23.4374 10.7525 23.4374 10.6244 23.4374C10.7656 22.9781 10.7656 22.9781 11.0011 22.4954C11.454 22.2774 11.9 22.2911 12.4023 22.2363Z" fill="#8C9091"/>
<path d="M7.98692 16.6543C8.11126 16.6543 8.2356 16.6543 8.36371 16.6543C8.25366 17.3679 8.04984 17.8904 7.68887 18.514C7.54188 18.7695 7.54188 18.7695 7.39193 19.0302C7.28908 19.2059 7.18623 19.3816 7.08026 19.5627C6.9796 19.7376 6.87894 19.9126 6.77522 20.0929C6.26395 20.9765 5.74047 21.8425 5.16097 22.683C5.03663 22.5586 4.91229 22.4343 4.78418 22.3062C5.17576 21.5757 5.5686 20.8458 5.96166 20.1161C6.07216 19.9099 6.18266 19.7037 6.2965 19.4913C7.44368 17.3645 7.44368 17.3645 7.98692 16.6543Z" fill="#8C9091"/>
<path d="M22.3052 26.2627C22.4917 26.3249 22.6782 26.387 22.8704 26.4511C22.9999 26.8397 22.9999 26.8397 23.0588 27.2047C23.3696 27.2668 23.6805 27.329 24.0008 27.3931C23.8942 28.1388 23.704 28.6733 23.2472 29.277C22.6933 29.5678 22.3676 29.6538 21.74 29.6538C21.5388 29.2837 21.3509 28.9062 21.1748 28.5235C21.237 28.3991 21.2991 28.2748 21.3632 28.1467C21.643 28.3332 21.643 28.3332 21.9284 28.5235C22.0527 28.2748 22.1771 28.0261 22.3052 27.7699C22.1187 27.7699 21.9322 27.7699 21.74 27.7699C22.0932 26.4746 22.0932 26.4746 22.3052 26.2627ZM22.3052 26.6395C22.243 26.9503 22.1808 27.2612 22.1168 27.5815C22.2411 27.6436 22.3655 27.7058 22.4936 27.7699C22.4314 28.1429 22.3692 28.5159 22.3052 28.9002C22.1808 28.9002 22.0565 28.9002 21.9284 28.9002C21.9284 29.0246 21.9284 29.1489 21.9284 29.277C22.4755 29.2567 22.4755 29.2567 23.0588 29.0886C23.4881 28.5449 23.624 28.2777 23.624 27.5815C23.3753 27.5815 23.1266 27.5815 22.8704 27.5815C22.746 27.2706 22.6217 26.9598 22.4936 26.6395C22.4314 26.6395 22.3692 26.6395 22.3052 26.6395Z" fill="#8C9091"/>
<path d="M25.508 28.1465C25.6323 28.1465 25.7567 28.1465 25.8848 28.1465C25.9676 28.2371 26.0504 28.3277 26.1357 28.421C26.5379 28.793 26.7933 28.8021 27.3331 28.8412C27.4853 28.8536 27.6376 28.866 27.7945 28.8787C27.9103 28.8858 28.0262 28.8928 28.1455 28.9001C28.1455 28.9622 28.1455 29.0244 28.1455 29.0885C27.812 29.0987 27.4783 29.106 27.1447 29.112C26.866 29.1186 26.866 29.1186 26.5817 29.1253C26.0732 29.0885 26.0732 29.0885 25.508 28.7117C25.8975 29.2387 26.1004 29.2819 26.7679 29.4064C26.9738 29.4258 27.1798 29.4452 27.392 29.4653C27.392 29.5896 27.392 29.7139 27.392 29.8421C27.0189 29.8421 26.6459 29.8421 26.2616 29.8421C26.18 30.0694 26.18 30.0694 26.0967 30.3013C25.8848 30.784 25.8848 30.784 25.508 30.9724C25.1547 30.9975 25.1547 30.9975 24.7544 30.996C24.5562 30.9967 24.5562 30.9967 24.3541 30.9975C24.0008 30.9724 24.0008 30.9724 23.624 30.784C23.73 30.4308 23.73 30.4308 24.0008 30.0304C24.6838 29.795 24.6838 29.795 25.3196 29.6537C25.3157 29.4399 25.3118 29.2262 25.3078 29.006C25.3196 28.3349 25.3196 28.3349 25.508 28.1465ZM24.7309 30.1246C24.5261 30.2033 24.5261 30.2033 24.3173 30.2836C24.2128 30.3244 24.1084 30.3652 24.0008 30.4072C24.063 30.5316 24.1252 30.6559 24.1892 30.784C25.0916 30.8282 25.0916 30.8282 25.8848 30.4072C25.8848 30.2207 25.8848 30.0342 25.8848 29.8421C25.4391 29.8421 25.1457 29.9641 24.7309 30.1246Z" fill="#8C9091"/>
<path d="M8.74057 24.002C8.80274 24.3128 8.86491 24.6237 8.92897 24.9439C9.05331 24.9439 9.17765 24.9439 9.30576 24.9439C9.67951 25.6914 9.55563 26.6122 9.30576 27.3931C8.66992 27.3342 8.66992 27.3342 7.98698 27.2047C7.60964 26.6387 7.51737 26.3174 7.39825 25.6622C7.36667 25.4924 7.3351 25.3227 7.30258 25.1478C7.27975 25.0183 7.25692 24.8889 7.2334 24.7555C7.41991 24.8177 7.60642 24.8799 7.79859 24.9439C8.0167 25.5983 7.99992 26.1423 7.98698 26.8279C8.29784 26.8901 8.60869 26.9522 8.92897 27.0163C9.15748 26.1069 9.15748 26.1069 8.84654 25.2736C8.7494 25.1648 8.65226 25.056 8.55217 24.9439C8.55217 24.7574 8.55217 24.5709 8.55217 24.3787C8.24132 24.4409 7.93047 24.5031 7.61019 24.5671C7.61019 24.4428 7.61019 24.3185 7.61019 24.1903C7.98698 24.002 7.98698 24.002 8.74057 24.002Z" fill="#8C9091"/>
<path d="M30.783 24.7559C30.8451 25.0045 30.9073 25.2532 30.9714 25.5094C30.8555 25.5937 30.7397 25.678 30.6203 25.7648C29.479 26.6007 29.479 26.6007 28.7106 27.7702C29.4567 27.3039 29.4567 27.3039 30.2178 26.8282C29.8004 27.663 29.5097 27.8879 28.7106 28.3354C28.4619 28.3354 28.2133 28.3354 27.957 28.3354C28.4563 26.8376 29.314 25.9946 30.5946 25.1327C30.6568 25.0083 30.7189 24.884 30.783 24.7559Z" fill="#8C9091"/>
<path d="M17.0301 29.6544C17.5247 29.6191 17.5247 29.6191 17.9721 29.6544C18.6831 31.1653 18.6831 31.1653 18.5373 31.9152C18.2076 32.2684 18.2076 32.2684 17.7837 32.4804C17.1569 32.4412 16.7089 32.1746 16.2765 31.7268C16.2294 31.1263 16.2294 31.1263 16.2765 30.5964C16.4009 30.5342 16.5252 30.4721 16.6533 30.408C16.5912 30.781 16.529 31.1541 16.4649 31.5384C16.5776 31.5656 16.6903 31.5928 16.8064 31.6208C17.1359 31.7055 17.4609 31.8076 17.7837 31.9152C17.908 31.853 18.0324 31.7908 18.1605 31.7268C18.0555 31.0968 17.9058 30.5902 17.5953 30.0312C17.2845 30.0934 16.9736 30.1556 16.6533 30.2196C16.7777 30.0331 16.902 29.8466 17.0301 29.6544Z" fill="#8C9091"/>
<path d="M30.9714 25.5088C31.0958 25.5088 31.2201 25.5088 31.3482 25.5088C31.5601 26.1444 31.6654 26.7254 31.725 27.3928C31.5385 27.6725 31.5385 27.6725 31.3482 27.9579C31.2239 27.8958 31.0995 27.8336 30.9714 27.7695C30.9093 27.8939 30.8471 28.0182 30.783 28.1463C30.6587 28.1463 30.5344 28.1463 30.4062 28.1463C30.4646 27.8126 30.5236 27.479 30.5829 27.1455C30.6157 26.9597 30.6484 26.7739 30.6822 26.5825C30.783 26.074 30.783 26.074 30.9714 25.5088ZM30.9714 26.6392C31.1598 27.016 31.1598 27.016 31.1598 27.016L30.9714 26.6392Z" fill="#8C9091"/>
<path d="M7.04517 19.6689C7.62339 20.2472 7.62418 20.7852 7.64568 21.5765C7.61036 22.3065 7.61036 22.3065 7.23357 22.6833C6.83322 22.6126 6.83322 22.6126 6.47998 22.4949C6.60432 22.3706 6.72866 22.2462 6.85677 22.1181C6.7946 22.0559 6.73243 21.9938 6.66838 21.9297C6.61893 21.0726 6.66924 20.4443 7.04517 19.6689ZM7.04517 20.4225C7.04517 20.9821 7.04517 21.5416 7.04517 22.1181C7.16951 22.0559 7.29385 21.9938 7.42196 21.9297C7.35979 21.4323 7.29762 20.935 7.23357 20.4225C7.1714 20.4225 7.10922 20.4225 7.04517 20.4225Z" fill="#8C9091"/>
<path d="M27.9214 22.318C28.3336 22.683 28.3336 22.683 28.416 23.2482C28.3336 23.8134 28.3336 23.8134 27.9568 24.3786C27.7081 24.3786 27.4594 24.3786 27.2032 24.3786C27.2653 24.2542 27.3275 24.1299 27.3916 24.0018C27.5159 24.0018 27.6403 24.0018 27.7684 24.0018C27.9572 23.3267 27.9572 23.3267 27.7684 22.683C27.271 22.7452 26.7736 22.8073 26.2612 22.8714C26.2612 23.0579 26.2612 23.2444 26.2612 23.4366C26.3855 23.4988 26.5099 23.5609 26.638 23.625C26.5758 23.8737 26.5136 24.1223 26.4496 24.3786C26.4496 24.192 26.4496 24.0055 26.4496 23.8134C26.2631 23.7512 26.0766 23.689 25.8844 23.625C25.8491 23.1775 25.8491 23.1775 25.8844 22.683C26.6293 22.1864 27.0636 21.9939 27.9214 22.318Z" fill="#8C9091"/>
<path d="M29.8408 27.582C29.9652 27.582 30.0895 27.582 30.2176 27.582C29.9345 28.5887 29.2742 29.331 28.5221 30.0312C27.8106 30.3727 27.2339 30.4541 26.4497 30.408C26.9359 30.0838 27.2894 29.9292 27.8274 29.7368C28.7533 29.3432 29.1298 28.7859 29.6164 27.9264C29.6905 27.8128 29.7645 27.6991 29.8408 27.582Z" fill="#8C9091"/>
<path d="M10.4362 20.0459C10.5605 20.1081 10.6849 20.1702 10.813 20.2343C10.7913 20.5602 10.7673 20.8859 10.7423 21.2116C10.7227 21.4837 10.7227 21.4837 10.7026 21.7613C10.6242 22.3095 10.4741 22.7454 10.2478 23.2486C10.01 22.5352 10.1205 22.0699 10.236 21.3293C10.2727 21.0897 10.3094 20.85 10.3472 20.603C10.3765 20.4192 10.4059 20.2353 10.4362 20.0459Z" fill="#8C9091"/>
<path d="M24.0005 25.3213C24.3891 25.4037 24.3891 25.4037 24.7541 25.5097C24.7541 25.8827 24.7541 26.2557 24.7541 26.6401C24.6298 26.6401 24.5054 26.6401 24.3773 26.6401C24.3773 26.7644 24.3773 26.8887 24.3773 27.0169C24.253 27.0169 24.1286 27.0169 24.0005 27.0169C23.7431 26.5021 23.7879 26.0783 23.8121 25.5097C23.8743 25.4475 23.9365 25.3853 24.0005 25.3213ZM24.1889 25.5097C24.0605 25.8661 24.0605 25.8661 24.0005 26.2633C24.1249 26.3876 24.2492 26.512 24.3773 26.6401C24.4395 26.3292 24.5016 26.0184 24.5657 25.6981C24.4414 25.6359 24.317 25.5737 24.1889 25.5097Z" fill="#8C9091"/>
<path d="M29.8408 31.3496C29.9029 31.474 29.9651 31.5983 30.0292 31.7264C29.6604 31.8527 29.2914 31.9781 28.9223 32.1032C28.7169 32.1731 28.5114 32.2431 28.2997 32.3151C27.7684 32.48 27.7684 32.48 27.3916 32.48C27.3916 32.3556 27.3916 32.2313 27.3916 32.1032C28.1998 31.8545 29.008 31.6058 29.8408 31.3496Z" fill="#8C9091"/>
<path d="M7.42188 32.292C8.29227 32.4163 9.16266 32.5407 10.0594 32.6688C10.0594 32.7931 10.0594 32.9175 10.0594 33.0456C9.72574 33.019 9.39213 32.9913 9.05857 32.9632C8.87279 32.9479 8.687 32.9326 8.49559 32.9168C7.98706 32.8572 7.98706 32.8572 7.42188 32.6688C7.42188 32.5444 7.42188 32.4201 7.42188 32.292Z" fill="#8C9091"/>
<path d="M30.2176 31.915C30.2176 32.0394 30.2176 32.1637 30.2176 32.2918C29.8846 32.3919 29.5508 32.4896 29.2168 32.5862C29.031 32.6408 28.8452 32.6955 28.6538 32.7518C28.1453 32.857 28.1453 32.857 27.5801 32.6686C29.8408 31.915 29.8408 31.915 30.2176 31.915Z" fill="#8C9091"/>
<path d="M7.42188 31.7266C7.82248 31.7796 8.22276 31.835 8.6229 31.8914C8.84584 31.922 9.06878 31.9526 9.29848 31.9841C9.87103 32.1034 9.87103 32.1034 10.2478 32.4801C9.91807 32.4534 9.58839 32.4258 9.25874 32.3977C9.07514 32.3824 8.89154 32.3671 8.70238 32.3514C8.25749 32.301 7.85161 32.2251 7.42188 32.1034C7.42188 31.979 7.42188 31.8547 7.42188 31.7266Z" fill="#8C9091"/>
<path d="M11.5664 23.625C12.0256 23.7781 12.0256 23.7781 12.5084 24.0018C12.5706 24.1883 12.6327 24.3748 12.6968 24.567C12.8833 24.567 13.0698 24.567 13.262 24.567C13.3241 24.94 13.3863 25.313 13.4504 25.6974C13.326 25.6974 13.2017 25.6974 13.0736 25.6974C13.0114 25.4487 12.9492 25.2 12.8852 24.9438C12.6987 24.9438 12.5122 24.9438 12.32 24.9438C12.3006 24.8233 12.2811 24.7029 12.2611 24.5788C12.2184 24.4505 12.1756 24.3223 12.1316 24.1902C11.9451 24.128 11.7586 24.0658 11.5664 24.0018C11.5664 23.8775 11.5664 23.7531 11.5664 23.625Z" fill="#8C9091"/>
<path d="M8.36369 24.9443C8.53124 25.5667 8.63926 26.1921 8.74048 26.8283C8.61614 26.8283 8.4918 26.8283 8.36369 26.8283C8.32712 26.5498 8.29208 26.2711 8.25772 25.9923C8.23805 25.8371 8.21837 25.6819 8.19811 25.522C8.19058 25.3936 8.18305 25.2651 8.17529 25.1327C8.23746 25.0706 8.29963 25.0084 8.36369 24.9443Z" fill="#8C9091"/>
<path d="M16.8418 30.5957C17.0905 30.5957 17.3392 30.5957 17.5954 30.5957C17.6576 31.0309 17.7197 31.4661 17.7838 31.9145C17.6594 31.8523 17.5351 31.7901 17.407 31.7261C17.407 31.4152 17.407 31.1044 17.407 30.7841C17.2205 30.7219 17.034 30.6598 16.8418 30.5957Z" fill="#8C9091"/>
<path d="M27.5802 22.8721C27.5802 23.1829 27.5802 23.4938 27.5802 23.8141C27.518 23.6275 27.4558 23.441 27.3918 23.2489C27.0121 23.1107 27.0121 23.1107 26.6382 23.0605C27.015 22.8721 27.015 22.8721 27.5802 22.8721Z" fill="#8C9091"/>
<path d="M7.42188 28.7119C7.73273 28.7119 8.04358 28.7119 8.36386 28.7119C8.42603 28.8984 8.4882 29.0849 8.55225 29.2771C8.17923 29.1528 7.8062 29.0284 7.42188 28.9003C7.42188 28.8381 7.42188 28.776 7.42188 28.7119Z" fill="#8C9091"/>
<path d="M8.92871 29.6543C9.11522 29.7476 9.11522 29.7476 9.3055 29.8427C9.24333 30.0914 9.18116 30.3401 9.11711 30.5963C8.92871 30.0311 8.92871 30.0311 8.92871 29.6543Z" fill="#8C9091"/>
<path d="M33.7972 25.5088C33.9215 25.571 34.0459 25.6331 34.174 25.6972C33.801 25.8837 33.801 25.8837 33.4204 26.074C33.5448 25.8875 33.6691 25.701 33.7972 25.5088Z" fill="#8C9091"/>
</svg>
