<?xml version="1.0" encoding="UTF-8"?>
<svg xmlns="http://www.w3.org/2000/svg" id="Layer_4_xA0_Image" version="1.1" viewBox="0 0 1179.82 466.67">
  <defs>
    <style>
      .st0 {
        fill: #b1ab97;
      }

      .st1 {
        fill: #317c74;
      }
    </style>
  </defs>
  <path class="st0" d="M100.1,234.82c-10.53,0-19.76-2.77-27.67-8.31-7.91-5.54-14.09-13.27-18.52-23.2-4.43-9.92-6.65-21.48-6.65-34.67s2.22-24.65,6.65-34.55,10.63-17.6,18.6-23.11c7.97-5.51,17.25-8.27,27.84-8.27,7.8,0,14.29,1.37,19.48,4.12s9.33,6.14,12.46,10.18c3.12,4.05,5.54,7.98,7.27,11.81h1.34V61.88h14.96v170.27h-14.55v-23.7h-1.76c-1.73,3.88-4.18,7.86-7.36,11.93-3.18,4.07-7.37,7.5-12.58,10.27-5.21,2.77-11.72,4.16-19.52,4.16ZM101.86,221.27c8.3,0,15.38-2.26,21.23-6.78,5.85-4.52,10.32-10.75,13.42-18.71,3.09-7.95,4.64-17.09,4.64-27.4s-1.53-19.22-4.6-27.06c-3.07-7.84-7.52-13.99-13.37-18.46-5.85-4.46-12.96-6.69-21.32-6.69s-15.81,2.31-21.69,6.94c-5.88,4.63-10.34,10.88-13.38,18.75-3.04,7.87-4.56,16.71-4.56,26.52s1.53,18.87,4.6,26.85c3.06,7.98,7.54,14.31,13.42,19,5.88,4.68,13.08,7.03,21.61,7.03Z"></path>
  <path class="st0" d="M225.3,235.07c-7.75,0-14.82-1.51-21.23-4.53-6.41-3.02-11.51-7.4-15.3-13.14-3.79-5.74-5.68-12.71-5.68-20.91,0-6.32,1.2-11.64,3.59-15.96,2.4-4.32,5.8-7.87,10.2-10.64,4.4-2.77,9.61-4.96,15.63-6.57,6.02-1.61,12.65-2.85,19.9-3.74,7.19-.89,13.28-1.66,18.27-2.33,4.99-.66,8.79-1.72,11.41-3.16,2.62-1.44,3.93-3.77,3.93-6.98v-2.99c0-8.7-2.61-15.56-7.82-20.58-5.21-5.02-12.69-7.52-22.44-7.52-9.25,0-16.42,2.54-22.61,6.07-12.31,7.03-10.45,14.25-11.35,26.27h-13.29c.15-5.13-3.14-20.16,10.3-33.8,4.62-4.68,10.87-7.2,17.22-9.06,6.35-1.86,12.79-2.79,19.31-2.79,4.9,0,10.02.64,15.34,1.91,5.32,1.28,10.27,3.48,14.84,6.61,4.57,3.13,8.28,7.48,11.12,13.05,2.84,5.57,4.26,12.62,4.26,21.16v60.24c0,2.31-.04-.54-.04,4.36,0,6.75,3.12,11.02,9.28,11.09s8.34-.33,8.34-.33l-.18,11.02s-12.27,3.28-22.81-2.19c-4.39-2.28-8.02-7.2-8.64-12.73-.29-2.62-.83-4.95-.83-4.95h-.92c-1.78,3.77-4.43,7.43-7.94,10.97-3.51,3.55-7.91,6.46-13.21,8.73-5.3,2.27-11.51,3.41-18.64,3.41ZM226.49,221.51c7.91,0,14.77-1.75,20.56-5.24,5.8-3.49,10.27-8.13,13.42-13.93,3.15-5.79,4.72-12.18,4.72-19.16v-18.46c-1.12,1.05-2.97,2-5.56,2.83-2.59.83-5.57,1.57-8.94,2.2-3.37.64-6.73,1.18-10.07,1.62-3.34.44-6.35.83-9.03,1.16-7.25.89-13.43,2.27-18.56,4.16-5.13,1.89-9.06,4.48-11.79,7.77-2.73,3.3-4.1,7.52-4.1,12.68,0,7.76,2.79,13.76,8.36,18,5.57,4.24,12.57,6.36,20.98,6.36Z"></path>
  <path class="st0" d="M320.34,152.34v79.82h-14.88v-127.71h14.46v20.04h1.34c3.01-6.54,7.7-11.79,14.09-15.76,6.38-3.96,14.28-5.94,23.7-5.94,8.64,0,16.23,1.79,22.78,5.36,6.55,3.58,11.65,8.83,15.3,15.76,3.65,6.93,5.48,15.44,5.48,25.52v82.73h-14.88v-81.81c0-10.48-2.94-18.76-8.82-24.86-5.88-6.1-13.75-9.15-23.62-9.15-6.74,0-12.73,1.44-17.97,4.32-5.24,2.88-9.38,7.03-12.41,12.43-3.04,5.4-4.56,11.82-4.56,19.25Z"></path>
  <path class="st0" d="M432.77,82.5c-3.07,0-5.68-1.04-7.86-3.12-2.17-2.08-3.26-4.59-3.26-7.52s1.1-5.45,3.3-7.52c2.2-2.08,4.81-3.12,7.82-3.12s5.68,1.04,7.86,3.12c2.17,2.08,3.26,4.59,3.26,7.52s-1.1,5.45-3.3,7.52c-2.2,2.08-4.81,3.12-7.82,3.12ZM425.16,232.16v-127.71h14.96v127.71h-14.96Z"></path>
  <path class="st0" d="M521.61,234.82c-11.98,0-22.35-2.79-31.1-8.36-8.75-5.57-15.51-13.3-20.27-23.2-4.77-9.89-7.15-21.3-7.15-34.21s2.38-24.29,7.15-34.3c4.76-10,11.37-17.85,19.81-23.53,8.44-5.68,18.21-8.52,29.3-8.52,6.97,0,13.68,1.26,20.15,3.78,6.46,2.52,12.27,6.37,17.43,11.56,5.15,5.18,9.24,11.7,12.25,19.54,3.01,7.84,4.51,17.11,4.51,27.81v7.32h-100.31v-13.05h85.1c0-8.2-1.66-15.59-4.97-22.16-3.32-6.57-7.91-11.76-13.79-15.59-5.88-3.82-12.66-5.74-20.36-5.74-8.14,0-15.3,2.16-21.48,6.48-6.19,4.32-11.02,10.03-14.5,17.13-3.48,7.1-5.25,14.86-5.31,23.28v7.82c0,10.14,1.77,19,5.31,26.56,3.54,7.57,8.57,13.43,15.09,17.58s14.24,6.24,23.16,6.24c6.07,0,11.41-.94,16.01-2.83,4.6-1.88,8.47-4.42,11.62-7.61,3.15-3.19,5.53-6.69,7.15-10.52l14.13,4.57c-1.95,5.38-5.14,10.34-9.57,14.88-4.43,4.55-9.95,8.19-16.55,10.93-6.6,2.74-14.2,4.12-22.78,4.12Z"></path>
  <path class="st0" d="M709.87,236.32c-7.75,0-14.82-1.51-21.23-4.53-6.41-3.02-11.51-7.4-15.3-13.14-3.79-5.74-5.68-12.71-5.68-20.91,0-6.32,1.2-11.64,3.59-15.96,2.4-4.32,5.8-7.87,10.2-10.64,4.4-2.77,9.61-4.96,15.63-6.57,6.02-1.61,12.65-2.85,19.9-3.74,7.19-.89,13.28-1.66,18.27-2.33,4.99-.66,8.79-1.72,11.41-3.16,2.62-1.44,3.93-3.77,3.93-6.98v-2.99c0-8.7-2.61-15.56-7.82-20.58-5.21-5.02-12.69-7.52-22.44-7.52-9.25,0-16.42,2.54-22.61,6.07-12.31,7.03-10.45,14.25-11.35,26.27h-13.29c.15-5.13-3.14-20.16,10.3-33.8,4.62-4.68,10.87-7.2,17.22-9.06,6.35-1.86,12.79-2.79,19.31-2.79,4.9,0,10.02.64,15.34,1.91,5.32,1.28,10.27,3.48,14.84,6.61,4.57,3.13,8.28,7.48,11.12,13.05,2.84,5.57,4.26,12.62,4.26,21.16v60.24c0,2.31-.04-.54-.04,4.36,0,6.75,3.12,11.02,9.28,11.09s8.34-.33,8.34-.33l-.18,11.02s-12.27,3.28-22.81-2.19c-4.39-2.28-8.02-7.2-8.64-12.73-.29-2.62-.83-4.95-.83-4.95h-.92c-1.78,3.77-4.43,7.43-7.94,10.97-3.51,3.55-7.91,6.46-13.21,8.73-5.3,2.27-11.51,3.41-18.64,3.41ZM711.06,222.77c7.91,0,14.77-1.75,20.56-5.24,5.8-3.49,10.27-8.13,13.42-13.93,3.15-5.79,4.72-12.18,4.72-19.16v-18.46c-1.12,1.05-2.97,2-5.56,2.83-2.59.83-5.57,1.57-8.94,2.2-3.37.64-6.73,1.18-10.07,1.62-3.34.44-6.35.83-9.03,1.16-7.25.89-13.43,2.27-18.56,4.16-5.13,1.89-9.06,4.48-11.79,7.77-2.73,3.3-4.1,7.52-4.1,12.68,0,7.76,2.79,13.76,8.36,18,5.57,4.24,12.57,6.36,20.98,6.36Z"></path>
  <path class="st1" d="M189.53,323.75v79.82h-14.88v-127.71h14.46v20.04h1.34c3.01-6.54,7.7-11.79,14.09-15.76,6.38-3.96,14.28-5.94,23.7-5.94,8.64,0,16.23,1.79,22.78,5.36,6.55,3.58,11.65,8.83,15.3,15.76,3.65,6.93,5.48,15.44,5.48,25.52v82.73h-14.88v-81.81c0-10.48-2.94-18.76-8.82-24.86-5.88-6.1-13.75-9.15-23.62-9.15-6.74,0-12.73,1.44-17.97,4.32-5.24,2.88-9.38,7.03-12.41,12.43-3.04,5.4-4.56,11.82-4.56,19.25Z"></path>
  <path class="st1" d="M301.36,403.56v-127.71h14.96v127.71h-14.96Z"></path>
  <path class="st1" d="M391.97,406.22c-11.48,0-21.47-2.85-29.97-8.56-8.5-5.71-15.09-13.52-19.77-23.45-4.68-9.92-7.02-21.23-7.02-33.92s2.38-24.19,7.15-34.17c4.76-9.98,11.38-17.81,19.85-23.49,8.47-5.68,18.31-8.52,29.51-8.52,8.58,0,16.36,1.65,23.32,4.95,6.97,3.3,12.72,7.93,17.26,13.88,4.54,5.96,7.4,12.9,8.57,20.83h-15.05c-1.56-7.2-5.31-13.37-11.24-18.5-5.94-5.13-13.47-7.69-22.61-7.69-8.19,0-15.44,2.2-21.73,6.61-6.3,4.41-11.22,10.53-14.75,18.37-3.54,7.84-5.31,16.92-5.31,27.23s1.73,19.53,5.18,27.48c3.45,7.95,8.32,14.18,14.59,18.67,6.27,4.49,13.61,6.73,22.03,6.73,5.68,0,10.88-1.07,15.59-3.2,4.71-2.13,8.66-5.17,11.87-9.1,3.2-3.93,5.36-8.62,6.48-14.05h15.05c-1.12,7.7-3.86,14.56-8.23,20.58-4.38,6.02-10.03,10.74-16.97,14.18-6.94,3.44-14.87,5.15-23.78,5.15Z"></path>
  <path class="st1" d="M515.27,406.22c-11.09,0-20.89-2.8-29.38-8.4-8.5-5.6-15.14-13.34-19.94-23.24-4.79-9.89-7.19-21.33-7.19-34.3s2.4-24.6,7.19-34.55c4.79-9.95,11.44-17.71,19.94-23.28,8.5-5.57,18.29-8.36,29.38-8.36s20.87,2.8,29.34,8.4c8.47,5.6,15.12,13.36,19.94,23.28,4.82,9.92,7.23,21.42,7.23,34.5s-2.4,24.4-7.19,34.3c-4.79,9.89-11.44,17.64-19.94,23.24-8.5,5.6-18.29,8.4-29.38,8.4ZM515.27,392.67c8.92,0,16.47-2.38,22.65-7.15,6.19-4.77,10.88-11.11,14.09-19.04,3.2-7.93,4.81-16.66,4.81-26.19s-1.6-18.29-4.81-26.27c-3.21-7.98-7.9-14.38-14.09-19.21-6.19-4.82-13.74-7.23-22.65-7.23s-16.4,2.41-22.61,7.23c-6.21,4.82-10.92,11.22-14.13,19.21-3.21,7.98-4.81,16.74-4.81,26.27s1.6,18.26,4.81,26.19c3.2,7.93,7.9,14.27,14.09,19.04,6.19,4.77,13.74,7.15,22.65,7.15Z"></path>
  <path class="st1" d="M611.08,47.72v355.84h-14.88V47.72h14.88Z"></path>
  <path class="st1" d="M649.65,47.72v355.84h-14.88V47.72h14.88Z"></path>
  <path class="st1" d="M675.96,403.56v-127.71h14.96v127.71h-14.96Z"></path>
  <path class="st0" d="M708.88,404.75v-50.48h7.07v21.94h23.36v-21.94h7.09v50.48h-7.09v-22.01h-23.36v22.01h-7.07Z"></path>
  <path class="st0" d="M770.27,405.52c-3.46,0-6.44-.8-8.94-2.4s-4.42-3.86-5.77-6.78c-1.35-2.92-2.02-6.34-2.02-10.27s.67-7.3,2.02-10.25,3.24-5.27,5.67-6.93,5.28-2.49,8.55-2.49c1.98,0,3.9.35,5.77,1.06,1.86.71,3.53,1.82,5.01,3.33,1.48,1.51,2.65,3.47,3.5,5.88s1.28,5.33,1.28,8.76v2.61h-27.94v-5.52h21.23c0-1.94-.37-3.66-1.1-5.16-.73-1.5-1.76-2.69-3.08-3.56-1.32-.87-2.86-1.31-4.63-1.31-1.92,0-3.6.51-5.02,1.52-1.43,1.01-2.52,2.33-3.29,3.94-.77,1.62-1.16,3.37-1.16,5.26v4.31c0,2.53.42,4.68,1.25,6.46s1.99,3.13,3.49,4.05c1.49.93,3.24,1.39,5.24,1.39,1.3,0,2.48-.2,3.55-.6s1.99-1.01,2.77-1.81c.78-.81,1.37-1.8,1.78-2.98l6.48,1.26c-.52,2.05-1.45,3.85-2.78,5.39-1.34,1.54-3.01,2.73-5.01,3.57-2.01.85-4.29,1.27-6.85,1.27Z"></path>
  <path class="st0" d="M795.39,361.05c-1.19,0-2.21-.43-3.05-1.29-.85-.86-1.27-1.89-1.27-3.09s.42-2.26,1.27-3.12c.85-.86,1.86-1.29,3.05-1.29s2.21.43,3.05,1.29c.85.86,1.27,1.89,1.27,3.09s-.42,2.26-1.27,3.12c-.85.86-1.86,1.29-3.05,1.29ZM791.94,404.75v-37.86h6.84v37.86h-6.84Z"></path>
  <path class="st0" d="M813.79,354.28v50.48h-6.84v-50.48h6.84Z"></path>
  <path class="st0" d="M821.96,418.95v-52.05h6.68v6.14h.57c.4-.79.97-1.7,1.72-2.74.75-1.04,1.78-1.94,3.11-2.72,1.33-.78,3.08-1.17,5.26-1.17,2.84,0,5.37.77,7.6,2.32,2.23,1.54,3.98,3.77,5.25,6.68,1.27,2.91,1.91,6.41,1.91,10.5s-.63,7.6-1.9,10.51c-1.27,2.92-3.01,5.16-5.22,6.73-2.21,1.57-4.74,2.35-7.57,2.35-2.14,0-3.88-.39-5.23-1.16s-2.41-1.68-3.17-2.71c-.76-1.04-1.35-1.96-1.76-2.76h-.41v20.09h-6.84ZM828.66,385.82c0,2.66.36,5,1.08,7,.72,2,1.75,3.57,3.11,4.69,1.36,1.13,3.02,1.69,4.99,1.69s3.75-.59,5.13-1.76,2.41-2.77,3.12-4.79,1.06-4.3,1.06-6.83-.35-4.74-1.04-6.73c-.69-1.99-1.73-3.56-3.11-4.71-1.38-1.15-3.1-1.73-5.16-1.73s-3.66.55-5.02,1.65c-1.37,1.1-2.4,2.64-3.1,4.61s-1.05,4.27-1.05,6.9Z"></path>
  <path class="st0" d="M860.69,404.75v-37.86h6.61v6.01h.37c.64-2.04,1.77-3.64,3.4-4.82,1.62-1.17,3.47-1.76,5.53-1.76.43,0,.93.02,1.52.05.59.03,1.05.07,1.38.12v7.05c-.27-.08-.76-.18-1.46-.28-.7-.11-1.4-.16-2.11-.16-1.62,0-3.05.37-4.31,1.1-1.26.73-2.25,1.74-2.99,3.03s-1.1,2.76-1.1,4.4v23.12h-6.84Z"></path>
  <path class="st0" d="M894.65,405.59c-2.23,0-4.24-.45-6.04-1.34-1.8-.9-3.22-2.2-4.27-3.91s-1.57-3.8-1.57-6.29c0-2.14.38-3.89,1.14-5.27.76-1.38,1.79-2.47,3.09-3.28,1.3-.8,2.75-1.41,4.35-1.82,1.6-.41,3.23-.72,4.9-.94,2.1-.26,3.81-.48,5.13-.65,1.31-.17,2.27-.46,2.86-.85.6-.39.89-1.04.89-1.92v-.17c0-2.15-.56-3.82-1.68-5-1.12-1.18-2.79-1.77-5-1.77s-4.12.55-5.43,1.64c-1.32,1.09-2.23,2.3-2.73,3.64l-6.43-1.58c.76-2.3,1.88-4.16,3.35-5.58,1.47-1.42,3.17-2.46,5.09-3.11,1.92-.65,3.94-.97,6.06-.97,1.4,0,2.89.18,4.47.53,1.58.35,3.06,1,4.44,1.93,1.38.94,2.51,2.27,3.4,4,.88,1.73,1.33,3.98,1.33,6.74v25.14h-6.68v-5.18h-.27c-.44.95-1.11,1.89-1.99,2.81-.88.92-2.02,1.68-3.41,2.29-1.39.61-3.05.91-4.99.91ZM896.14,399.67c1.89,0,3.51-.4,4.86-1.21s2.38-1.86,3.09-3.17c.71-1.31,1.06-2.71,1.06-4.2v-4.88c-.24.26-.71.51-1.41.73s-1.48.41-2.37.57c-.88.16-1.75.3-2.59.42-.84.12-1.54.23-2.11.31-1.33.18-2.54.48-3.63.91s-1.96,1.04-2.61,1.84c-.65.8-.97,1.85-.97,3.17,0,1.82.63,3.2,1.88,4.13,1.25.93,2.84,1.39,4.78,1.39Z"></path>
  <path class="st0" d="M920.07,404.75v-50.48h6.84v50.48h-6.84ZM926.36,391.91l-.05-9h1.19l14-16.02h8.19l-15.97,18.24h-1.08l-6.29,6.78ZM942.27,404.75l-12.59-17.99,4.71-5.15,16.27,23.14h-8.4Z"></path>
  <path class="st0" d="M971.3,366.89v5.92h-19.2v-5.92h19.2ZM957.25,357.82h6.84v35.81c0,1.43.2,2.5.59,3.22.4.71.91,1.2,1.54,1.45.63.25,1.32.38,2.07.38.55,0,1.03-.04,1.44-.12.41-.08.73-.15.96-.2l1.24,6.09c-.4.16-.96.33-1.69.51-.73.17-1.65.27-2.75.28-1.8.03-3.48-.31-5.03-1.04-1.56-.72-2.81-1.84-3.78-3.35s-1.44-3.41-1.44-5.69v-37.34Z"></path>
  <path class="st0" d="M981.28,361.05c-1.19,0-2.21-.43-3.05-1.29-.85-.86-1.27-1.89-1.27-3.09s.42-2.26,1.27-3.12c.85-.86,1.86-1.29,3.05-1.29s2.21.43,3.05,1.29c.85.86,1.27,1.89,1.27,3.09s-.42,2.26-1.27,3.12c-.85.86-1.86,1.29-3.05,1.29ZM977.82,404.75v-37.86h6.84v37.86h-6.84Z"></path>
  <path class="st0" d="M992.83,404.75v-50.48h6.84v50.48h-6.84ZM999.13,391.91l-.05-9h1.19l14-16.02h8.19l-15.97,18.24h-1.08l-6.29,6.78ZM1015.03,404.75l-12.59-17.99,4.71-5.15,16.27,23.14h-8.4Z"></path>
  <path class="st0" d="M1042.81,405.52c-3.46,0-6.44-.8-8.94-2.4s-4.42-3.86-5.77-6.78c-1.35-2.92-2.02-6.34-2.02-10.27s.67-7.3,2.02-10.25,3.24-5.27,5.67-6.93,5.28-2.49,8.55-2.49c1.98,0,3.9.35,5.77,1.06,1.86.71,3.53,1.82,5.01,3.33,1.48,1.51,2.65,3.47,3.5,5.88s1.28,5.33,1.28,8.76v2.61h-27.94v-5.52h21.23c0-1.94-.37-3.66-1.1-5.16-.73-1.5-1.76-2.69-3.08-3.56-1.32-.87-2.86-1.31-4.63-1.31-1.92,0-3.6.51-5.02,1.52-1.43,1.01-2.52,2.33-3.29,3.94-.77,1.62-1.16,3.37-1.16,5.26v4.31c0,2.53.42,4.68,1.25,6.46s1.99,3.13,3.49,4.05c1.49.93,3.24,1.39,5.24,1.39,1.3,0,2.48-.2,3.55-.6s1.99-1.01,2.77-1.81c.78-.81,1.37-1.8,1.78-2.98l6.48,1.26c-.52,2.05-1.45,3.85-2.78,5.39-1.34,1.54-3.01,2.73-5.01,3.57-2.01.85-4.29,1.27-6.85,1.27Z"></path>
  <path class="st0" d="M1064.48,404.75v-37.86h6.61v6.01h.37c.64-2.04,1.77-3.64,3.4-4.82,1.62-1.17,3.47-1.76,5.53-1.76.43,0,.93.02,1.52.05.59.03,1.05.07,1.38.12v7.05c-.27-.08-.76-.18-1.46-.28-.7-.11-1.4-.16-2.11-.16-1.62,0-3.05.37-4.31,1.1-1.26.73-2.25,1.74-2.99,3.03s-1.1,2.76-1.1,4.4v23.12h-6.84Z"></path>
  <path class="st0" d="M1091.66,361.05c-1.19,0-2.21-.43-3.05-1.29-.85-.86-1.27-1.89-1.27-3.09s.42-2.26,1.27-3.12c.85-.86,1.86-1.29,3.05-1.29s2.21.43,3.05,1.29c.85.86,1.27,1.89,1.27,3.09s-.42,2.26-1.27,3.12c-.85.86-1.86,1.29-3.05,1.29ZM1088.2,404.75v-37.86h6.84v37.86h-6.84Z"></path>
  <path class="st0" d="M1110.05,382.27v22.48h-6.84v-37.86h6.57v6.16h.44c.81-2,2.08-3.61,3.81-4.83s3.92-1.82,6.56-1.82c2.39,0,4.49.54,6.29,1.61,1.8,1.08,3.2,2.67,4.19,4.79s1.49,4.74,1.49,7.86v24.08h-6.84v-23.19c0-2.74-.66-4.89-1.99-6.44s-3.15-2.33-5.47-2.33c-1.59,0-2.99.37-4.22,1.11s-2.2,1.82-2.91,3.24c-.71,1.42-1.06,3.13-1.06,5.14Z"></path>
</svg>
