<svg width="49" height="44" viewBox="0 0 49 44" fill="none" xmlns="http://www.w3.org/2000/svg">
<path fill-rule="evenodd" clip-rule="evenodd" d="M0.333252 2.3125V4.46875H2.302H4.27075V6.36953V8.27031L4.97388 8.96875L5.677 9.66719V10.7996C5.677 11.8376 5.69781 11.9736 5.92628 12.4323C6.11106 12.8029 6.29322 13.0057 6.62941 13.2147L7.08325 13.4968V14.2327V14.9688H7.83325H8.58325V14.242V13.5153L9.02407 13.1873C9.73919 12.6553 9.91825 12.1947 9.97028 10.7536L10.0137 9.54934L10.7047 8.863L11.3958 8.17656V6.32266V4.46875H16.0833H20.7708V6.36953V8.27031L21.4739 8.96875L22.177 9.66719V10.6899C22.177 11.2524 22.2259 11.876 22.2858 12.0758C22.4144 12.5048 22.9283 13.1349 23.3114 13.333C23.5769 13.4703 23.5833 13.4911 23.5833 14.2212V14.9688H24.3333H25.0833V14.2212C25.0833 13.4911 25.0896 13.4703 25.3551 13.333C25.7382 13.1349 26.2521 12.5048 26.3807 12.0758C26.4406 11.876 26.4895 11.2524 26.4895 10.6899V9.66719L27.1926 8.96875L27.8958 8.27031V6.36953V4.46875H32.5833H37.2708V6.32266V8.17656L37.9618 8.863L38.6528 9.54934L38.6962 10.7536C38.7482 12.1947 38.9273 12.6553 39.6424 13.1873L40.0833 13.5153V14.242V14.9688H40.8333H41.5833V14.2327V13.4968L42.0371 13.2147C42.3733 13.0057 42.5554 12.8029 42.7402 12.4323C42.9687 11.9736 42.9895 11.8376 42.9895 10.7996V9.66719L43.6926 8.96875L44.3958 8.27031V6.37141V4.4725L46.3879 4.44719L48.3801 4.42188L48.4053 2.26562L48.4304 0.109375L27.1943 0.133187L5.95825 0.157094V0.906625V1.65625H26.4426H46.927V2.3125V2.96875H24.3333H1.7395V2.3125V1.65625H3.14575H4.552V0.90625V0.15625H2.44263H0.333252V2.3125ZM0.373564 2.3125C0.373564 3.52422 0.386971 4.01997 0.403283 3.41406C0.419596 2.80816 0.419596 1.81675 0.403283 1.21094C0.386971 0.605031 0.373564 1.10078 0.373564 2.3125ZM5.77075 6.0895V7.71016L6.21925 8.152L6.66785 8.59375H7.79285H8.91775L9.40675 8.09866L9.89575 7.60347V6.03616V4.46875H7.83325H5.77075V6.0895ZM22.2708 6.04225V7.61575L22.7658 8.10475L23.261 8.59375H24.3394H25.4178L25.9068 8.09866L26.3958 7.60347V6.03616V4.46875H24.3333H22.2708V6.04225ZM38.7708 6.04225V7.61575L39.2658 8.10475L39.761 8.59375H40.8866H42.0122L42.454 8.14525L42.8958 7.69666V6.08275V4.46875H40.8333H38.7708V6.04225ZM7.177 10.923C7.177 11.5966 7.20785 11.7786 7.34106 11.8931C7.59635 12.1124 7.81572 12.1602 8.05844 12.0497C8.38028 11.903 8.4895 11.5844 8.4895 10.7925V10.0938H7.83325H7.177V10.923ZM23.677 10.8802C23.677 11.8163 23.827 12.0937 24.3333 12.0937C24.8395 12.0937 24.9895 11.8163 24.9895 10.8802V10.0938H24.3333H23.677V10.8802ZM40.177 10.7925C40.177 11.5844 40.2862 11.903 40.6081 12.0497C40.8508 12.1602 41.0702 12.1124 41.3254 11.8931C41.4587 11.7786 41.4895 11.5966 41.4895 10.923V10.0938H40.8333H40.177V10.7925ZM17.8938 17.0626C16.3912 18.6344 15.0743 20.555 13.9188 22.86C11.1187 28.4458 11.0832 33.0294 13.8293 34.3973C14.1826 34.5733 14.4069 34.6091 15.1458 34.608C15.9356 34.6068 16.0924 34.5772 16.5318 34.347C17.4793 33.8504 18.0542 33.044 18.227 31.9691C18.3378 31.2805 18.2412 30.3056 17.8207 27.8658C17.3822 25.3214 17.267 24.1309 17.3349 22.8432C17.4483 20.6897 18.1931 18.8525 19.444 17.6406C19.6037 17.4859 19.7355 17.3218 19.7369 17.2757C19.7403 17.1658 18.9033 16.1875 18.8058 16.1875C18.7643 16.1875 18.354 16.5812 17.8938 17.0626ZM36.1751 17.0626C34.6725 18.6344 33.3556 20.555 32.2001 22.86C29.4 28.4458 29.3644 33.0294 32.1106 34.3973C32.4638 34.5733 32.6882 34.6091 33.427 34.608C34.2168 34.6068 34.3737 34.5772 34.813 34.347C36.14 33.6515 36.6984 32.4281 36.5147 30.6185C36.4698 30.1766 36.2566 28.8055 36.0408 27.5717C35.6734 25.4699 35.6486 25.2155 35.6477 23.5469C35.6467 22.0071 35.6743 21.6639 35.8508 21.0156C36.2131 19.685 36.9096 18.4308 37.7253 17.6406C37.8849 17.4859 38.0167 17.3239 38.0181 17.2805C38.0216 17.1769 37.1751 16.1875 37.083 16.1875C37.0438 16.1875 36.6352 16.5812 36.1751 17.0626ZM7.08325 17.0781V17.7812H7.83325H8.58325V17.0781V16.375H7.83325H7.08325V17.0781ZM23.5833 17.0781V17.7812H24.3333H25.0833V17.0781V16.375H24.3333H23.5833V17.0781ZM40.0833 17.0781V17.7812H40.8333H41.5833V17.0781V16.375H40.8333H40.0833V17.0781ZM7.08325 19.8906V20.5938H7.83325H8.58325V19.8906V19.1875H7.83325H7.08325V19.8906ZM23.5833 19.8906V20.5938H24.3333H25.0833V19.8906V19.1875H24.3333H23.5833V19.8906ZM40.0833 19.8906V20.5938H40.8333H41.5833V19.8906V19.1875H40.8333H40.0833V19.8906ZM3.80135 22.0475L3.29031 22.565L4.0616 23.3363L4.83297 24.1077L5.34925 23.5913L5.86553 23.075L5.089 22.3025L4.31247 21.53L3.80135 22.0475ZM20.3013 22.0475L19.7903 22.565L20.5616 23.3363L21.333 24.1077L21.8493 23.5913L22.3655 23.075L21.589 22.3025L20.8125 21.53L20.3013 22.0475ZM27.0733 22.3068L26.3008 23.0833L26.8183 23.5944L27.3358 24.1054L28.1071 23.3342L28.8784 22.5628L28.3621 22.0465L27.8458 21.5302L27.0733 22.3068ZM43.5733 22.3068L42.8008 23.0833L43.3183 23.5944L43.8358 24.1054L44.6071 23.3342L45.3784 22.5628L44.8621 22.0465L44.3458 21.5302L43.5733 22.3068ZM7.08325 23.0821V24.1641L7.80981 24.1367L8.53638 24.1094L8.56291 23.0547L8.58944 22H7.83635H7.08325V23.0821ZM23.5833 23.0781V24.1562H24.3333H25.0833V23.0781V22H24.3333H23.5833V23.0781ZM40.1036 23.0547L40.1301 24.1094L40.8567 24.1367L41.5833 24.1641V23.0821V22H40.8302H40.0771L40.1036 23.0547ZM15.1004 23.8047C12.8014 28.4978 12.6568 32.587 14.7695 33.1559C15.575 33.3728 16.5084 32.7958 16.7393 31.9382C16.88 31.4155 16.8262 30.8777 16.3593 28.1406C15.9529 25.7584 15.7579 23.8567 15.8282 22.9609C15.8535 22.6387 15.8576 22.375 15.8374 22.375C15.8172 22.375 15.4855 23.0184 15.1004 23.8047ZM33.3816 23.8047C31.0827 28.4978 30.938 32.587 33.0508 33.1559C33.8563 33.3728 34.7897 32.7958 35.0206 31.9382C35.1613 31.4155 35.1075 30.8777 34.6405 28.1406C34.2342 25.7584 34.0392 23.8567 34.1094 22.9609C34.1347 22.6387 34.1388 22.375 34.1187 22.375C34.0984 22.375 33.7668 23.0184 33.3816 23.8047ZM1.75235 25.5971C1.28528 25.7661 0.709564 26.2897 0.511658 26.7256C0.346002 27.0904 0.337283 27.5232 0.335314 35.4766L0.333252 43.8438H21.5208H42.7083V43.0938V42.3438H22.2239H1.7395V36.7645V31.1853L5.36838 31.2098L8.99716 31.2344L9.10853 31.9375C9.53866 34.6522 11.3055 36.7124 13.7377 37.3352C14.6343 37.5647 16.184 37.4853 17.0964 37.1632C18.8136 36.5568 20.1933 35.1588 20.7704 33.4405C20.9269 32.9742 21.0913 31.9934 21.1441 31.2096C21.145 31.196 22.5257 31.196 24.2121 31.2096L27.2785 31.2344L27.3899 31.9375C27.8198 34.6522 29.5867 36.7124 32.019 37.3352C32.9155 37.5647 34.4653 37.4853 35.3777 37.1632C37.0949 36.5568 38.4746 35.1588 39.0516 33.4405C39.2088 32.9728 39.3674 32.0259 39.4253 31.2109C39.4263 31.1981 41.1145 31.1875 43.177 31.1875H46.927V36.7656V42.3438H45.5208H44.1145V43.0955V43.8473L46.2473 43.8221L48.3801 43.7969L48.404 35.377C48.4173 30.746 48.3933 26.9785 48.3508 27.0047C48.3083 27.031 48.2216 26.9088 48.1581 26.7332C48.0107 26.3253 47.3269 25.7215 46.8513 25.579C46.3485 25.4283 37.0833 25.421 37.0833 25.5713C37.0833 25.6278 37.249 26.6507 37.4516 27.8447C37.9214 30.6141 37.9885 31.4901 37.7994 32.3842C37.2303 35.0737 34.5133 36.6482 31.952 35.7726C30.4948 35.2745 29.2382 33.696 28.8836 31.918C28.6005 30.4983 28.7572 28.5021 29.305 26.5513C29.4581 26.0064 29.5833 25.5399 29.5833 25.5146C29.5833 25.4894 27.1575 25.4688 24.1926 25.4688C20.3526 25.4688 18.802 25.4983 18.802 25.5713C18.802 25.6278 18.9678 26.6507 19.1703 27.8447C19.6401 30.6141 19.7073 31.4901 19.5182 32.3842C18.949 35.0737 16.232 36.6482 13.6708 35.7726C12.2135 35.2745 10.9569 33.696 10.6023 31.918C10.3192 30.4983 10.476 28.5021 11.0238 26.5513C11.1768 26.0064 11.302 25.5399 11.302 25.5146C11.302 25.4894 9.22431 25.4719 6.68481 25.4759C3.30888 25.4811 1.98288 25.5137 1.75235 25.5971ZM2.00772 27.1477C1.79978 27.3159 1.7845 27.3984 1.75525 28.5071L1.72422 29.6875H5.33547H8.94672L9.00269 29.2422C9.03344 28.9972 9.12044 28.4323 9.19591 27.9866C9.27147 27.5409 9.33325 27.1295 9.33325 27.0725C9.33325 26.9985 8.31494 26.9688 5.78116 26.9688C2.425 26.9688 2.21678 26.9786 2.00772 27.1477ZM20.7599 28.3281L20.9908 29.6875H24.1094H27.228L27.2839 29.2422C27.3147 28.9972 27.4017 28.4323 27.4772 27.9866C27.5527 27.5409 27.6145 27.1295 27.6145 27.0725C27.6145 26.9985 26.5987 26.9688 24.0718 26.9688H20.5291L20.7599 28.3281ZM39.0411 28.3281L39.272 29.6875H43.1072H46.9423L46.9113 28.5071C46.882 27.3984 46.8667 27.3159 46.6588 27.1477C46.4491 26.9781 46.2374 26.9688 42.6239 26.9688H38.8103L39.0411 28.3281ZM0.378158 35.4531C0.378158 40.0938 0.389596 41.9785 0.403564 39.6414C0.417533 37.3043 0.417533 33.5074 0.403564 31.2039C0.389596 28.9004 0.378158 30.8125 0.378158 35.4531ZM44.1145 33.25V34H44.8176H45.5208V33.25V32.5H44.8176H44.1145V33.25ZM44.1145 36.0625V36.8125H44.8176H45.5208V36.0625V35.3125H44.8176H44.1145V36.0625Z" fill="#1A8281"/>
</svg>
