<svg width="9" height="15" viewBox="0 0 9 15" fill="none" xmlns="http://www.w3.org/2000/svg">
<path fill-rule="evenodd" clip-rule="evenodd" d="M1.24087 0.683453C0.993607 0.805328 0.876498 1.09205 0.937319 1.42658C0.961537 1.55955 1.28107 1.89255 3.92017 4.53463L6.87595 7.49373L3.93892 10.4331C2.30095 12.0724 0.983764 13.421 0.960873 13.4824C0.812514 13.8801 1.03915 14.3057 1.42701 14.3578C1.81615 14.4099 1.59372 14.6069 5.08962 11.1145C6.85665 9.34931 8.3288 7.84935 8.36111 7.78127C8.42947 7.6372 8.43748 7.38955 8.37884 7.23236C8.32665 7.0924 1.99865 0.756031 1.8322 0.677047C1.67173 0.600875 1.40247 0.603805 1.24087 0.683453Z" fill="white"/>
</svg>
