<svg width="38" height="38" viewBox="0 0 38 38" fill="none" xmlns="http://www.w3.org/2000/svg">
<path d="M8.50563 4C8.85123 4 9.19684 4 9.55292 4C9.78087 5.26616 10.0085 6.53237 10.2357 7.79867C10.3412 8.38663 10.4468 8.97457 10.5527 9.56246C10.6743 10.238 10.7955 10.9136 10.9166 11.5892C10.9548 11.8008 10.993 12.0124 11.0323 12.2305C11.0672 12.4258 11.1022 12.6212 11.1382 12.8224C11.1692 12.995 11.2002 13.1676 11.2322 13.3454C11.2984 13.7585 11.2984 13.7585 11.2984 14.1134C11.4784 14.128 11.6584 14.1426 11.8439 14.1577C12.5863 14.3038 12.9894 14.5107 13.5676 15.0005C13.848 15.6647 13.6861 16.3016 13.5785 16.9966C13.5445 17.2207 13.5105 17.4448 13.4755 17.6758C13.4347 17.9324 13.4347 17.9324 13.393 18.1942C13.5402 18.2673 13.5402 18.2673 13.6903 18.3418C13.8226 18.4102 13.9549 18.4786 14.0912 18.5491C14.2271 18.6193 14.363 18.6895 14.503 18.7618C14.9885 19.0691 15.3156 19.3251 15.6622 19.7911C15.7546 20.4774 15.7271 21.1086 15.6887 21.7996C15.6551 22.6257 15.6822 23.371 16.1858 24.0493C16.6946 24.3289 17.1958 24.4544 17.7567 24.5816C17.8143 24.6401 17.8719 24.6987 17.9313 24.759C17.9163 25.1007 17.9163 25.1007 17.8658 25.5242C17.8501 25.6625 17.8343 25.8009 17.8181 25.9435C17.7567 26.3559 17.7567 26.3559 17.5822 27.0656C18.2158 27.6511 18.8494 28.2366 19.5022 28.8399C20.1022 28.23 20.1978 27.8971 20.375 27.0656C20.3714 26.8643 20.3678 26.663 20.3641 26.4557C20.3844 25.2778 20.8163 24.3826 21.5968 23.517C21.7264 23.4072 21.856 23.2975 21.9896 23.1844C22.4355 22.634 22.3516 22.2665 22.295 21.5653C22.2752 21.432 22.2554 21.2986 22.235 21.1613C22.0786 20.075 22.0786 20.075 22.3168 19.4695C23.0431 18.6082 23.6757 18.271 24.7387 18.0168C24.7009 17.918 24.6631 17.8192 24.6242 17.7174C24.285 16.7724 24.0216 16.0002 24.2151 15.0005C24.8186 14.4136 25.5123 14.0195 26.3101 13.7761C27.015 13.2744 27.0376 12.8671 27.187 12.0315C27.2154 11.8457 27.2438 11.66 27.2731 11.4686C27.3061 11.2776 27.339 11.0867 27.373 10.8899C27.4775 10.2795 27.5755 9.66824 27.6733 9.05668C27.7423 8.64469 27.8118 8.23277 27.8816 7.82093C27.9799 7.24149 28.0776 6.66203 28.1718 6.08189C28.1999 5.90959 28.2279 5.73729 28.2569 5.55977C28.2812 5.40811 28.3056 5.25645 28.3307 5.10019C28.4043 4.70971 28.4043 4.70971 28.5788 4.17743C28.9244 4.17743 29.27 4.17743 29.6261 4.17743C29.8783 6.01721 30.0216 7.85065 30.1266 9.70471C30.1701 10.4012 30.2145 11.0977 30.2594 11.7941C30.2891 12.2679 30.3144 12.7416 30.3362 13.2158C30.4917 16.4021 30.8792 18.5832 32.9425 21.033C33.0858 21.2199 33.2276 21.4078 33.3678 21.5971C33.9105 22.3286 34.4376 22.942 35.1721 23.4741C35.917 24.0465 36.5748 24.5829 36.9572 25.4687C37.1161 26.945 36.8001 28.4107 36.5418 29.8593C36.4089 30.6982 36.3696 31.5371 36.3327 32.3852C36.3253 32.5398 36.318 32.6944 36.3104 32.8537C36.2926 33.2308 36.2757 33.608 36.259 33.9853C33.3993 33.9895 30.5396 33.9926 27.6799 33.9944C26.3506 33.9953 25.0213 33.9966 23.6921 33.9986C16.417 34.0098 9.14648 33.9528 1.87275 33.8078C1.84658 33.4621 1.82042 33.1164 1.79427 32.7707C1.77211 32.478 1.74994 32.1853 1.72775 31.8926C1.68209 31.2901 1.63654 30.6876 1.59197 30.0851C1.56156 29.6741 1.53001 29.2632 1.49774 28.8523C1.48174 28.6405 1.48174 28.6405 1.46541 28.4244C1.40251 27.659 1.29429 26.9486 1.09887 26.2041C1.01074 25.8047 1.01074 25.8047 1 25.4687C1.31784 25.0107 1.50005 24.8164 1.92729 24.504C2.12567 24.3394 2.32317 24.1737 2.51981 24.007C2.66751 23.8843 2.66751 23.8843 2.81819 23.7592C4.00325 22.721 4.87494 21.2893 5.77829 20.0017C5.86773 19.8744 5.95717 19.7471 6.04932 19.616C6.13403 19.4933 6.21875 19.3706 6.30603 19.2442C6.38104 19.1358 6.45605 19.0275 6.53334 18.9158C7.05005 18.0802 7.34695 17.3826 7.4178 16.3932C7.43411 16.1811 7.45042 15.969 7.46722 15.7504C7.48251 15.5231 7.4978 15.2957 7.51356 15.0615C7.53132 14.8223 7.54931 14.5832 7.5675 14.344C7.61487 13.7151 7.65975 13.086 7.70396 12.4568C7.77469 11.4551 7.84899 10.4537 7.9237 9.45234C7.94911 9.10672 7.97325 8.76102 7.99734 8.41531C8.10535 6.9305 8.28051 5.47103 8.50563 4ZM9.02927 8.25826C8.95396 9.16714 8.87941 10.0761 8.80555 10.9851C8.78035 11.2938 8.75496 11.6025 8.72935 11.9112C8.69242 12.3569 8.65623 12.8026 8.62017 13.2484C8.60872 13.3847 8.59727 13.521 8.58546 13.6614C8.51653 14.5248 8.49548 15.3762 8.50563 16.2425C9.27379 15.5484 10.0273 14.7469 10.1113 13.6663C10.0715 13.0979 9.99161 12.5469 9.90202 11.9842C9.86186 11.693 9.82212 11.4016 9.7827 11.1103C9.73926 10.8027 9.6954 10.4952 9.65111 10.1878C9.62984 10.0384 9.60858 9.88894 9.58667 9.73499C9.56496 9.59486 9.54325 9.45473 9.52088 9.31035C9.50188 9.18453 9.48288 9.05871 9.4633 8.92907C9.39466 8.57103 9.39466 8.57103 9.02927 8.25826ZM28.7534 8.25826C28.6349 8.96393 28.5193 9.67006 28.4043 10.3763C28.371 10.5745 28.3377 10.7727 28.3033 10.9769C27.9124 12.9878 27.9124 12.9878 28.3606 14.9125C28.4902 15.0916 28.6198 15.2707 28.7534 15.4552C28.883 15.6384 29.0126 15.8216 29.1461 16.0103C29.2469 16.1455 29.3477 16.2807 29.4516 16.4199C29.6661 15.6655 29.6024 14.9649 29.5409 14.191C29.5298 14.044 29.5188 13.8971 29.5074 13.7456C29.4838 13.4354 29.4595 13.1252 29.4347 12.8151C29.3972 12.341 29.3624 11.8667 29.3278 11.3924C29.3044 11.0906 29.2809 10.7889 29.2572 10.4872C29.247 10.3456 29.2368 10.204 29.2263 10.0581C29.1707 9.38917 29.1163 8.83045 28.7534 8.25826ZM24.3896 15.1779C24.3019 15.6517 24.3019 15.6517 24.3896 16.0651C24.9023 15.5714 25.3382 15.0219 25.786 14.4682C25.1849 14.4682 24.8436 14.8068 24.3896 15.1779ZM26.3097 14.4682C25.2905 15.1985 25.2905 15.1985 24.8042 16.2979C24.8752 16.7986 24.8752 16.7986 25.2624 17.1296C25.4714 16.7535 25.6783 16.3764 25.8842 15.9985C25.9439 15.8915 26.0037 15.7845 26.0652 15.6742C26.2156 15.3962 26.3511 15.11 26.4842 14.8231C26.4266 14.706 26.369 14.5889 26.3097 14.4682ZM10.3432 15.0761C10.2516 15.1865 10.16 15.297 10.0657 15.4108C9.92762 15.5745 9.92762 15.5745 9.78679 15.7414C9.51929 16.0769 9.51929 16.0769 9.37837 16.5974C10.0663 16.3015 10.5634 15.8473 11.1239 15.3554C11.0663 15.1797 11.0087 15.0041 10.9493 14.8231C10.5824 14.7819 10.5824 14.7819 10.3432 15.0761ZM11.8221 14.8231C11.8221 14.9402 11.8221 15.0573 11.8221 15.1779C11.9949 15.1194 12.1677 15.0608 12.3457 15.0005C12.1729 14.942 12.0001 14.8834 11.8221 14.8231ZM27.1824 14.8231C27.0672 15.0573 26.952 15.2915 26.8333 15.5328C27.0876 15.7365 27.3422 15.9397 27.597 16.1427C27.7387 16.2559 27.8805 16.3691 28.0265 16.4858C28.3858 16.7787 28.3858 16.7787 28.7534 16.9522C28.5 16.2224 28.1632 15.62 27.7061 15.0005C27.5333 14.942 27.3605 14.8834 27.1824 14.8231ZM12.8694 15.0005C12.914 15.4162 12.9728 15.8306 13.0439 16.2425C13.1591 16.3011 13.2743 16.3596 13.393 16.4199C13.393 16.0101 13.393 15.6002 13.393 15.1779C13.2202 15.1194 13.0474 15.0608 12.8694 15.0005ZM11.9966 15.3554C12.1118 15.5896 12.227 15.8238 12.3457 16.0651C12.5185 16.0651 12.6913 16.0651 12.8694 16.0651C12.8118 15.8309 12.7542 15.5967 12.6948 15.3554C12.4644 15.3554 12.234 15.3554 11.9966 15.3554ZM10.4911 16.2425C10.3257 16.3907 10.3257 16.3907 10.157 16.5419C10.0729 16.6188 9.98872 16.6956 9.90202 16.7748C10.1612 16.9504 10.1612 16.9504 10.4257 17.1296C10.8865 16.8954 11.3473 16.6612 11.8221 16.4199C11.7069 16.1857 11.5917 15.9515 11.473 15.7102C10.9894 15.7102 10.8478 15.9202 10.4911 16.2425ZM26.6588 15.7102C26.6588 15.9444 26.6588 16.1786 26.6588 16.4199C26.9469 16.602 27.2382 16.7789 27.5315 16.9522C27.6143 17.1022 27.6971 17.2523 27.7824 17.4069C28.1413 17.9759 28.4785 18.015 29.1025 18.1942C29.1601 18.3113 29.2177 18.4284 29.277 18.5491C29.3922 18.3734 29.5074 18.1978 29.6261 18.0168C28.2506 16.5772 28.2506 16.5772 26.6588 15.7102ZM12.5203 16.2425C12.6931 16.506 12.6931 16.506 12.8694 16.7748C12.8694 16.5991 12.8694 16.4235 12.8694 16.2425C12.7542 16.2425 12.639 16.2425 12.5203 16.2425ZM26.3097 16.4199C26.1945 16.7127 26.0793 17.0054 25.9606 17.3071C26.2433 17.4603 26.5272 17.6115 26.8115 17.7617C26.9695 17.8461 27.1274 17.9305 27.2901 18.0175C27.4274 18.0758 27.5647 18.1341 27.7061 18.1942C27.8213 18.1357 27.9365 18.0771 28.0552 18.0168C27.8967 17.8159 27.7363 17.6166 27.5752 17.418C27.486 17.3068 27.3969 17.1956 27.3051 17.0811C26.9936 16.76 26.7147 16.5971 26.3097 16.4199ZM10.6002 17.1296C10.773 17.3931 10.773 17.3931 10.9493 17.6619C11.4101 17.6034 11.8709 17.5448 12.3457 17.4845C12.2305 17.1917 12.1153 16.899 11.9966 16.5974C11.459 16.5974 11.0695 16.8807 10.6002 17.1296ZM13.0439 16.7748C13.2185 17.3071 13.2185 17.3071 13.2185 17.3071L13.0439 16.7748ZM9.37837 17.1296C9.09037 17.4809 8.80236 17.8323 8.50563 18.1942C9.10571 18.162 9.10571 18.162 9.72747 18.0168C9.99155 17.6733 9.99155 17.6733 10.0766 17.3071C9.84617 17.2485 9.61576 17.19 9.37837 17.1296ZM10.2511 17.6619C10.1935 17.779 10.1359 17.8961 10.0766 18.0168C10.307 17.8997 10.5374 17.7826 10.7748 17.6619C10.602 17.6619 10.4292 17.6619 10.2511 17.6619ZM25.6115 17.6619C25.6115 17.8376 25.6115 18.0132 25.6115 18.1942C25.9367 18.4705 25.9367 18.4705 26.3533 18.7154C26.9379 19.0889 27.3923 19.4722 27.8806 19.9685C28.0534 19.9685 28.2262 19.9685 28.4043 19.9685C28.5195 19.7343 28.6347 19.5001 28.7534 19.2588C27.7994 18.348 26.9757 17.6619 25.6115 17.6619ZM11.473 17.8393C11.5882 18.0736 11.7034 18.3078 11.8221 18.5491C12.1101 18.432 12.3981 18.3149 12.6948 18.1942C12.6372 18.0771 12.5796 17.96 12.5203 17.8393C12.1747 17.8393 11.829 17.8393 11.473 17.8393ZM9.86929 18.5491C9.68198 18.6973 9.68198 18.6973 9.49088 18.8485C9.39615 18.9253 9.30142 19.0022 9.20382 19.0813C9.26142 19.1984 9.31903 19.3155 9.37837 19.4362C10.1664 19.342 10.6607 19.0164 11.2984 18.5491C11.2408 18.3734 11.1832 18.1978 11.1239 18.0168C10.4945 18.0168 10.3535 18.1617 9.86929 18.5491ZM9.02927 18.3716C8.97167 18.4887 8.91407 18.6058 8.85472 18.7265C9.08513 18.6679 9.31553 18.6094 9.55292 18.5491C9.38012 18.4905 9.20731 18.432 9.02927 18.3716ZM25.2624 18.3716C25.1472 18.6644 25.032 18.9571 24.9133 19.2588C25.4893 19.2588 26.0653 19.2588 26.6588 19.2588C26.2175 18.7622 25.9249 18.4678 25.2624 18.3716ZM28.4043 18.3716C28.5771 18.6351 28.5771 18.6351 28.7534 18.9039C28.8686 18.8454 28.9838 18.7868 29.1025 18.7265C28.8721 18.6094 28.6416 18.4923 28.4043 18.3716ZM11.0148 18.9926C10.878 19.139 10.7412 19.2854 10.6002 19.4362C11.2379 19.2145 11.4347 19.1397 11.8221 18.5491C11.4096 18.5083 11.4096 18.5083 11.0148 18.9926ZM12.5203 18.5491C12.4051 18.6662 12.2899 18.7833 12.1712 18.9039C12.4016 18.9039 12.632 18.9039 12.8694 18.9039C12.8694 18.7868 12.8694 18.6697 12.8694 18.5491C12.7542 18.5491 12.639 18.5491 12.5203 18.5491ZM23.1678 19.4362C23.067 19.7846 23.067 19.7846 23.0478 20.1681C23.0298 20.395 23.0118 20.6219 22.9932 20.8556C23.1084 20.8556 23.2236 20.8556 23.3423 20.8556C23.4595 20.6269 23.5757 20.3976 23.6914 20.1681C23.7562 20.0405 23.821 19.9128 23.8878 19.7813C24.0644 19.4453 24.0644 19.4453 24.0405 19.0813C23.6349 19.0485 23.6349 19.0485 23.1678 19.4362ZM12.3457 19.0813C11.9382 19.4067 11.9382 19.4067 11.6475 19.7911C12.4251 19.7032 12.4251 19.7032 13.2185 19.6136C13.2185 19.4965 13.2185 19.3794 13.2185 19.2588C12.8182 19.1062 12.8182 19.1062 12.3457 19.0813ZM22.6441 19.4362C22.3704 19.9927 22.403 20.6022 22.4696 21.2105C22.5848 21.4447 22.7 21.6789 22.8187 21.9202C22.8187 21.1005 22.8187 20.2808 22.8187 19.4362C22.7611 19.4362 22.7035 19.4362 22.6441 19.4362ZM24.7387 19.4362C24.6811 19.6704 24.6235 19.9046 24.5642 20.1459C25.6874 20.0581 25.6874 20.0581 26.8333 19.9685C26.8333 19.8514 26.8333 19.7343 26.8333 19.6136C26.3302 19.4432 26.0132 19.4174 25.4915 19.4251C25.3504 19.4267 25.2093 19.4283 25.064 19.43C24.9566 19.432 24.8493 19.4341 24.7387 19.4362ZM10.0766 19.9685C10.0766 20.0856 10.0766 20.2027 10.0766 20.3233C10.4292 20.2166 10.7785 20.0975 11.1239 19.9685C11.1815 19.8514 11.2391 19.7343 11.2984 19.6136C10.8365 19.6136 10.4988 19.7877 10.0766 19.9685ZM14.4403 19.7911C14.5555 20.1424 14.6707 20.4937 14.7894 20.8556C14.9046 20.8556 15.0198 20.8556 15.1385 20.8556C15.0809 20.5629 15.0233 20.2701 14.964 19.9685C14.7912 19.9099 14.6183 19.8514 14.4403 19.7911ZM27.0079 19.7911C27.146 20.1459 27.146 20.1459 27.357 20.5008C27.5298 20.5593 27.7026 20.6179 27.8806 20.6782C27.823 20.444 27.7654 20.2098 27.7061 19.9685C27.4757 19.9099 27.2453 19.8514 27.0079 19.7911ZM11.473 19.9685C11.033 20.3936 11.033 20.3936 10.7748 20.8556C11.287 21.0292 11.7639 21.0911 12.298 21.1536C12.9636 21.249 13.6116 21.4095 14.2658 21.5653C13.9778 20.9798 13.6897 20.3943 13.393 19.7911C12.4217 19.7883 12.4217 19.7883 11.473 19.9685ZM24.3896 20.3233C24.2744 20.6746 24.1592 21.0259 24.0405 21.3879C24.7317 21.4464 25.423 21.505 26.1351 21.5653C26.3079 21.1555 26.4807 20.7456 26.6588 20.3233C26.4815 20.1039 26.4815 20.1039 26.1133 20.1237C25.5305 20.1495 24.9656 20.2315 24.3896 20.3233ZM10.4257 20.5008C10.6002 20.8556 10.6002 20.8556 10.6002 20.8556L10.4257 20.5008ZM26.8333 20.5008C26.7181 20.8521 26.6029 21.2034 26.4842 21.5653C26.657 21.6239 26.8298 21.6824 27.0079 21.7428C27.1807 21.45 27.3535 21.1572 27.5315 20.8556C27.3011 20.7385 27.0707 20.6214 26.8333 20.5008ZM11.1239 21.2105C11.0663 21.3276 11.0087 21.4447 10.9493 21.5653C11.1162 22.0502 11.1162 22.0502 11.473 22.4525C12.0187 22.5265 12.0187 22.5265 12.5203 22.4525C12.3101 22.01 12.0919 21.6218 11.8221 21.2105C11.5917 21.2105 11.3613 21.2105 11.1239 21.2105ZM15.1385 21.2105C15.3131 21.5653 15.3131 21.5653 15.3131 21.5653L15.1385 21.2105ZM12.5203 21.7428C12.7507 22.1526 12.9811 22.5625 13.2185 22.9847C13.6793 22.8676 14.1401 22.7505 14.6149 22.6299C14.5573 22.4542 14.4997 22.2786 14.4403 22.0976C13.8067 21.9805 13.1731 21.8634 12.5203 21.7428ZM23.6914 21.7428C23.6338 21.977 23.5762 22.2112 23.5169 22.4525C24.2185 22.7344 24.7178 22.9262 25.4369 22.6299C25.6097 22.3371 25.7825 22.0444 25.9606 21.7428C25.2118 21.7428 24.4629 21.7428 23.6914 21.7428ZM26.1351 21.9202C25.7062 22.3815 25.7062 22.3815 25.6115 22.9847C25.9457 22.9631 25.9457 22.9631 26.3097 22.8073C26.6189 22.3674 26.6189 22.3674 26.8333 21.9202C26.6029 21.9202 26.3725 21.9202 26.1351 21.9202ZM11.8221 22.6299C11.9373 22.9226 12.0525 23.2154 12.1712 23.517C12.4016 23.4585 12.632 23.3999 12.8694 23.3396C12.8118 23.1054 12.7542 22.8712 12.6948 22.6299C12.4068 22.6299 12.1188 22.6299 11.8221 22.6299ZM23.5169 22.8073C23.8625 23.2172 24.2081 23.627 24.5642 24.0493C24.737 23.8151 24.9098 23.5809 25.0878 23.3396C24.6057 22.8495 24.1789 22.8821 23.5169 22.8073ZM14.4403 22.8073C14.0857 22.9731 13.7359 23.1502 13.393 23.3396C13.5658 23.6031 13.5658 23.6031 13.7421 23.8719C14.0877 23.5791 14.4333 23.2864 14.7894 22.9847C14.6742 22.9262 14.559 22.8676 14.4403 22.8073ZM23.1678 23.1622C23.0526 23.3964 22.9374 23.6306 22.8187 23.8719C23.0141 24.0504 23.2107 24.2276 23.4078 24.4042C23.5171 24.503 23.6265 24.6018 23.7392 24.7036C24.0238 24.9722 24.0238 24.9722 24.3896 24.9364C24.4472 24.7022 24.5048 24.468 24.5642 24.2267C24.1034 23.8754 23.6426 23.5241 23.1678 23.1622ZM25.4369 23.1622C25.2641 23.5135 25.0913 23.8648 24.9133 24.2267C25.0861 24.2853 25.2589 24.3438 25.4369 24.4042C25.5521 24.0529 25.6673 23.7016 25.786 23.3396C25.6708 23.281 25.5556 23.2225 25.4369 23.1622ZM14.6149 23.3396C14.2306 23.7724 14.2306 23.7724 13.9167 24.2267C14.2623 24.4024 14.2623 24.4024 14.6149 24.5816C14.8453 24.4059 15.0757 24.2303 15.3131 24.0493C15.2555 23.8151 15.1979 23.5809 15.1385 23.3396C14.9657 23.3396 14.7929 23.3396 14.6149 23.3396ZM12.8694 23.517C12.6966 23.7805 12.6966 23.7805 12.5203 24.0493C12.5779 24.1664 12.6355 24.2835 12.6948 24.4042C12.9252 24.3456 13.1556 24.2871 13.393 24.2267C13.3354 23.9925 13.2778 23.7583 13.2185 23.517C13.1033 23.517 12.9881 23.517 12.8694 23.517ZM22.6441 24.2267C22.5289 24.578 22.4137 24.9294 22.295 25.2913C22.871 25.467 23.4471 25.6426 24.0405 25.8236C23.9544 24.9428 23.9544 24.9428 23.4405 24.5261C23.0339 24.1942 23.0339 24.1942 22.6441 24.2267ZM13.393 24.4042C13.1995 24.7383 13.1995 24.7383 13.0439 25.1139C13.1015 25.231 13.1591 25.3481 13.2185 25.4687C13.4489 25.4102 13.6793 25.3516 13.9167 25.2913C13.9167 25.0571 13.9167 24.8229 13.9167 24.5816C13.7439 24.523 13.571 24.4645 13.393 24.4042ZM14.8549 24.6703C14.7757 24.7581 14.6965 24.846 14.6149 24.9364C14.8741 25.1121 14.8741 25.1121 15.1385 25.2913C15.3113 25.1742 15.4841 25.0571 15.6622 24.9364C15.6046 24.7608 15.5469 24.5851 15.4876 24.4042C15.1169 24.3641 15.1169 24.3641 14.8549 24.6703ZM24.7387 24.5816C24.6811 24.8158 24.6235 25.05 24.5642 25.2913C24.737 25.3791 24.737 25.3791 24.9133 25.4687C24.9709 25.176 25.0285 24.8832 25.0878 24.5816C24.9726 24.5816 24.8574 24.5816 24.7387 24.5816ZM16.7094 24.9364C16.8139 25.3537 16.931 25.7679 17.0585 26.1784C17.1738 26.237 17.289 26.2955 17.4076 26.3559C17.5228 25.8875 17.6381 25.4191 17.7567 24.9364C17.4111 24.9364 17.0655 24.9364 16.7094 24.9364ZM20.8986 25.1139C21.0732 25.4687 21.0732 25.4687 21.0732 25.4687L20.8986 25.1139ZM13.8948 25.6462C13.7868 25.7633 13.6788 25.8804 13.5676 26.001C13.9132 25.8839 14.2588 25.7668 14.6149 25.6462C14.6149 25.5291 14.6149 25.412 14.6149 25.2913C14.2232 25.2508 14.2232 25.2508 13.8948 25.6462ZM15.4876 25.2913C15.4876 25.5255 15.4876 25.7597 15.4876 26.001C15.6028 26.0596 15.718 26.1181 15.8367 26.1784C15.9519 26.0613 16.0671 25.9442 16.1858 25.8236C16.0706 25.6479 15.9554 25.4723 15.8367 25.2913C15.7215 25.2913 15.6063 25.2913 15.4876 25.2913ZM22.1205 25.4687C22.4987 25.8724 22.8877 26.2203 23.3423 26.5333C23.4575 26.5333 23.5727 26.5333 23.6914 26.5333C23.6914 26.3576 23.6914 26.182 23.6914 26.001C22.9472 25.5824 22.9472 25.5824 22.1205 25.4687ZM24.3896 25.4687C24.332 25.7029 24.2744 25.9371 24.2151 26.1784C24.3879 26.2663 24.3879 26.2663 24.5642 26.3559C24.6218 26.1217 24.6794 25.8875 24.7387 25.6462C24.6235 25.5876 24.5083 25.5291 24.3896 25.4687ZM20.7241 25.6462C20.6665 25.9975 20.6089 26.3488 20.5495 26.7107C20.6647 26.6522 20.7799 26.5936 20.8986 26.5333C20.8986 26.2405 20.8986 25.9478 20.8986 25.6462C20.841 25.6462 20.7834 25.6462 20.7241 25.6462ZM13.5676 26.3559C13.6252 26.5901 13.6828 26.8243 13.7421 27.0656C14.2605 26.8899 14.7789 26.7143 15.3131 26.5333C15.3131 26.3576 15.3131 26.182 15.3131 26.001C14.6043 25.6962 14.2034 25.9886 13.5676 26.3559ZM21.9459 26.001C21.8307 26.2938 21.7155 26.5865 21.5968 26.8882C22.1728 26.9467 22.7489 27.0053 23.3423 27.0656C23.2091 26.8899 23.0759 26.7143 22.9387 26.5333C22.8638 26.4345 22.7888 26.3357 22.7116 26.2339C22.4617 25.94 22.4617 25.94 21.9459 26.001ZM16.0113 26.3559C16.1841 27.0585 16.3569 27.7611 16.5349 28.485C16.7077 28.485 16.8805 28.485 17.0585 28.485C16.9753 28.1966 16.8916 27.9083 16.8076 27.62C16.7611 27.4595 16.7145 27.2989 16.6665 27.1335C16.5478 26.7138 16.5478 26.7138 16.3603 26.3559C16.2451 26.3559 16.1299 26.3559 16.0113 26.3559ZM23.866 26.5333C23.866 26.7089 23.866 26.8846 23.866 27.0656C24.0388 27.0656 24.2116 27.0656 24.3896 27.0656C24.3896 26.8899 24.3896 26.7143 24.3896 26.5333C24.2168 26.5333 24.044 26.5333 23.866 26.5333ZM14.4949 26.9769C14.3538 27.0263 14.2127 27.0757 14.0673 27.1266C13.96 27.165 13.8527 27.2034 13.7421 27.243C13.7997 27.4187 13.8573 27.5943 13.9167 27.7753C14.6079 27.5996 15.2991 27.424 16.0113 27.243C15.9536 27.0674 15.896 26.8917 15.8367 26.7107C15.3105 26.7107 14.9869 26.8029 14.4949 26.9769ZM21.4223 27.243C21.4223 27.3016 21.4223 27.3601 21.4223 27.4204C21.8831 27.4204 22.3439 27.4204 22.8187 27.4204C22.8187 27.3619 22.8187 27.3033 22.8187 27.243C22.3579 27.243 21.8971 27.243 21.4223 27.243ZM14.7567 27.6866C14.5208 27.7607 14.5208 27.7607 14.2801 27.8363C14.1601 27.8747 14.0402 27.9131 13.9167 27.9527C13.9167 28.304 13.9167 28.6553 13.9167 29.0173C14.8241 29.0726 15.4206 29.0036 16.1858 28.485C16.3707 28.1338 16.3707 28.1338 16.3603 27.7753C16.3027 27.6582 16.2451 27.5411 16.1858 27.4204C15.6449 27.4204 15.2704 27.5238 14.7567 27.6866ZM21.2477 27.9527C21.4421 28.0039 21.6365 28.0552 21.8368 28.108C22.4696 28.3076 22.4696 28.3076 22.8187 28.6624C22.9339 28.3697 23.0491 28.0769 23.1678 27.7753C22.9763 27.5417 22.9763 27.5417 22.5023 27.5646C21.9691 27.5965 21.6949 27.673 21.2477 27.9527ZM23.6914 27.5979C23.9506 27.7735 23.9506 27.7735 24.2151 27.9527C24.2151 27.8356 24.2151 27.7185 24.2151 27.5979C24.0423 27.5979 23.8695 27.5979 23.6914 27.5979ZM17.9313 27.9527C18.1058 28.3076 18.1058 28.3076 18.1058 28.3076L17.9313 27.9527ZM23.3423 27.9527C23.2271 28.304 23.1119 28.6553 22.9932 29.0173C23.6187 29.1951 23.6187 29.1951 24.2151 29.0173C24.1575 28.7245 24.0999 28.4318 24.0405 28.1301C23.8101 28.0716 23.5797 28.013 23.3423 27.9527ZM21.2477 28.1301C21.0749 28.3936 21.0749 28.3936 20.8986 28.6624C21.7627 28.8381 21.7627 28.8381 22.6441 29.0173C22.3419 28.5593 22.3419 28.5593 21.9459 28.1301C21.7155 28.1301 21.4851 28.1301 21.2477 28.1301ZM18.1058 28.3076C18.2804 28.8399 18.2804 28.8399 18.2804 28.8399L18.1058 28.3076ZM18.6295 28.485C18.7447 28.8949 18.8599 29.3047 18.9786 29.727C19.1134 29.4011 19.1134 29.4011 19.1531 29.0173C18.9167 28.7029 18.9167 28.7029 18.6295 28.485ZM16.0113 29.1947C16.4721 29.1947 16.9329 29.1947 17.4076 29.1947C17.35 29.0191 17.2924 28.8434 17.2331 28.6624C16.6192 28.6624 16.4701 28.8087 16.0113 29.1947ZM18.2804 28.8399C18.4549 29.1947 18.4549 29.1947 18.4549 29.1947L18.2804 28.8399ZM20.8986 28.8399C20.7834 29.0741 20.6682 29.3083 20.5495 29.5496C21.1255 29.5496 21.7016 29.5496 22.295 29.5496C22.295 29.4325 22.295 29.3154 22.295 29.1947C21.8342 29.0776 21.3734 28.9605 20.8986 28.8399ZM13.9167 29.3721C13.9743 29.5478 14.0319 29.7234 14.0912 29.9044C14.4368 29.7288 14.7824 29.5531 15.1385 29.3721C14.6131 29.2064 14.4636 29.1868 13.9167 29.3721ZM18.4549 29.1947C18.6295 29.727 18.6295 29.727 18.6295 29.727L18.4549 29.1947ZM19.5022 29.1947C19.6768 29.5496 19.6768 29.5496 19.6768 29.5496L19.5022 29.1947ZM22.8187 29.1947C22.8763 29.3704 22.9339 29.546 22.9932 29.727C23.3964 29.727 23.7996 29.727 24.2151 29.727C24.2151 29.6099 24.2151 29.4928 24.2151 29.3721C23.7543 29.3136 23.2935 29.255 22.8187 29.1947ZM14.964 29.5496C15.4624 29.8874 15.8247 30.0277 16.3931 30.1927C16.629 30.262 16.629 30.262 16.8697 30.3327C16.9896 30.367 17.1095 30.4014 17.2331 30.4367C17.0987 29.9612 17.0987 29.9612 16.7094 29.5496C16.1217 29.4678 15.5537 29.4989 14.964 29.5496ZM17.0585 29.5496C17.2314 29.8423 17.4042 30.1351 17.5822 30.4367C17.6398 30.261 17.6974 30.0854 17.7567 29.9044C17.6991 29.7873 17.6415 29.6702 17.5822 29.5496C17.4094 29.5496 17.2366 29.5496 17.0585 29.5496ZM19.3277 29.5496C19.5022 30.0818 19.5022 30.0818 19.5022 30.0818L19.3277 29.5496ZM18.6295 29.727C18.804 30.0818 18.804 30.0818 18.804 30.0818L18.6295 29.727ZM20.5495 29.727C20.3767 29.9905 20.3767 29.9905 20.2004 30.2593C20.258 30.4349 20.3156 30.6106 20.375 30.7916C20.663 30.4403 20.951 30.0889 21.2477 29.727C21.0173 29.727 20.7869 29.727 20.5495 29.727ZM14.4403 29.9044C15.0558 30.6773 15.9409 30.9255 16.8731 31.091C17.0495 31.1093 17.2259 31.1276 17.4076 31.1464C16.9768 30.6301 16.547 30.4482 15.924 30.226C15.7566 30.1649 15.5892 30.1039 15.4167 30.041C14.959 29.8792 14.959 29.8792 14.4403 29.9044ZM20.7241 30.6141C20.6665 30.7898 20.6089 30.9654 20.5495 31.1464C20.7799 31.1464 21.0103 31.1464 21.2477 31.1464C21.4781 30.7366 21.7085 30.3267 21.9459 29.9044C21.3889 29.9044 21.1258 30.2476 20.7241 30.6141ZM22.295 29.9044C21.9108 30.3372 21.9108 30.3372 21.5968 30.7916C22.1331 31.0401 22.1331 31.0401 22.6769 30.7139C22.8389 30.6224 23.0009 30.531 23.1678 30.4367C23.0526 30.261 22.9374 30.0854 22.8187 29.9044C22.6459 29.9044 22.4731 29.9044 22.295 29.9044ZM23.3423 29.9044C23.4575 30.0215 23.5727 30.1386 23.6914 30.2593C23.8642 30.1422 24.037 30.0251 24.2151 29.9044C23.9271 29.9044 23.6391 29.9044 23.3423 29.9044ZM19.1531 30.0818C19.3277 30.4367 19.3277 30.4367 19.3277 30.4367L19.1531 30.0818ZM20.0259 30.7916C20.2004 31.1464 20.2004 31.1464 20.2004 31.1464L20.0259 30.7916Z" fill="black"/>
</svg>
