<svg width="48" height="64" viewBox="0 0 48 64" fill="none" xmlns="http://www.w3.org/2000/svg">
<path fill-rule="evenodd" clip-rule="evenodd" d="M21.1451 0.033843C20.9488 0.0678207 20.1779 0.198592 19.4319 0.324224C15.9055 0.918119 11.8625 2.77675 9.22436 5.01642C4.75901 8.80736 1.78725 13.9651 0.418011 20.3007C0.127059 21.6472 0.1085 22.1699 0.0556776 30.4821L0 39.2443L0.318504 39.5833C0.750506 40.0432 1.56211 40.0474 1.98998 39.592C2.30006 39.2618 2.30034 39.2548 2.30163 32.1326C2.3022 28.2116 2.36773 24.2695 2.44725 23.3721C3.18705 15.0126 7.96019 7.59373 14.6756 4.36571C19.5497 2.02282 25.6781 1.65563 30.9244 3.39235C37.1561 5.45528 42.0165 10.5791 44.34 17.535C45.548 21.1521 45.6951 22.7972 45.6981 32.7236L45.7004 40.3008L46.0307 40.6113C46.4876 41.0404 47.2646 41.0272 47.6819 40.583L48 40.2444L47.948 30.9822L47.8961 21.72L47.5236 20.0782C46.08 13.7141 43.1141 8.62605 38.713 4.96346C36.0726 2.7659 32.5019 1.09315 28.8921 0.362484C27.6721 0.115503 26.7521 0.0431229 24.4286 0.0115722C22.819 -0.0102706 21.3414 -0.000277399 21.1451 0.033843ZM21.0023 5.75494C16.5157 6.35069 12.876 8.40434 9.87565 12.033C8.50412 13.6919 7.94663 14.6231 7.38928 16.1864L6.94343 17.4371L6.87034 21.2722L6.79739 25.1072L6.08357 25.3736C5.11878 25.7335 4.44393 26.3207 3.94184 27.2369C3.57408 27.9081 3.51612 28.1763 3.46858 29.4292C3.4039 31.1337 3.64846 32.2425 4.40967 33.6944C4.97958 34.7814 6.28572 36.1951 7.32632 36.8511C7.91294 37.221 8.0193 37.3651 8.16691 37.9916C8.96725 41.3866 11.2632 45.4822 13.8255 48.0852L14.764 49.0385L14.6766 49.9412C14.4875 51.8947 13.5334 54.524 12.4234 56.1506C11.7284 57.1693 10.3372 58.5803 9.39439 59.2231C7.40242 60.5812 5.36262 61.2477 2.44311 61.4948C0.374325 61.67 0.0161321 61.8573 0.0161321 62.7644C0.0161321 63.6497 0.43757 63.9071 1.88119 63.9037C6.03517 63.894 9.96387 62.3493 12.6425 59.6728C14.6952 57.6218 16.2836 54.563 16.8668 51.5382L17.0357 50.6624L18.2007 51.2085C20.3338 52.208 21.3251 52.4141 24.0004 52.4141C26.6756 52.4141 27.6669 52.208 29.8 51.2085L30.9651 50.6624L31.1339 51.5382C31.7176 54.5655 33.2126 57.4556 35.2952 59.5825C37.9947 62.3394 41.8957 63.894 46.1395 63.9037C47.2366 63.9063 47.396 63.8723 47.6742 63.5762C48.0954 63.1278 48.0902 62.3414 47.6634 61.9445C47.3964 61.6963 47.0411 61.6203 45.5576 61.4948C41.6449 61.1636 39.0001 59.987 36.767 57.5836C35.1793 55.875 34.0913 53.7719 33.5661 51.3959C33.1017 49.2952 33.1295 49.1478 34.1968 48.0634C36.7374 45.4819 39.0365 41.3742 39.8338 37.9916C39.9814 37.3651 40.0878 37.221 40.6744 36.8511C41.715 36.1951 43.0211 34.7814 43.591 33.6944C44.3523 32.2425 44.5968 31.1337 44.5321 29.4292C44.4846 28.1763 44.4266 27.9081 44.0589 27.2369C43.5568 26.3207 42.8819 25.7335 41.9171 25.3736L41.2033 25.1072L41.1275 21.2722C41.0531 17.5148 41.0433 17.4131 40.6416 16.2502C39.9626 14.2846 38.8823 12.6935 37.0171 10.9115C34.5608 8.56509 31.696 6.97699 28.4252 6.14882C27.1096 5.81575 26.5965 5.76464 24.2145 5.7291C22.7226 5.70683 21.2771 5.71853 21.0023 5.75494ZM22.0017 8.09868C19.2136 8.33581 16.6246 9.27691 14.592 10.7921C12.9037 12.0505 10.9108 14.2928 10.1617 15.7766C9.775 16.5427 9.24606 18.2202 9.35642 18.3305C9.38326 18.3575 9.78228 18.0484 10.2428 17.6437C12.0399 16.0649 14.9563 14.3988 17.3433 13.5875C19.8901 12.7219 20.6757 12.6071 24.1747 12.5894L27.4184 12.573L27.8357 12.1733C28.918 11.1364 28.6235 9.13571 27.2868 8.4446C26.9399 8.26514 24.1772 7.90738 23.5721 7.96348C23.4543 7.97433 22.7476 8.03529 22.0017 8.09868ZM30.832 10.6903C30.7932 11.5995 30.6975 12.0407 30.4156 12.6101L30.0494 13.3494L30.9152 13.6602C33.1206 14.4516 35.7088 15.9444 37.5482 17.4858C38.1289 17.9726 38.6242 18.3508 38.6487 18.3262C38.7711 18.2037 38.1909 16.4646 37.7415 15.6066C36.7805 13.7725 34.2329 11.3975 31.6886 9.96388L30.8824 9.50961L30.832 10.6903ZM22.3801 14.9477C18.078 15.3292 13.8752 17.3449 10.6163 20.5899L9.15298 22.0471V24.3927C9.15298 26.6425 9.13985 26.7504 8.83176 27.0338C8.64017 27.21 8.2086 27.3694 7.76261 27.4288C6.28272 27.6257 5.61131 28.5555 5.80276 30.143C6.06815 32.3426 7.30991 34.1938 9.15298 35.137C10.0395 35.5907 10.2483 35.8733 10.3672 36.7815C10.8016 40.0993 13.3882 44.6108 16.3153 47.1558C20.847 51.0963 27.1499 51.0998 31.6757 47.1643C34.5874 44.6325 37.2022 40.0755 37.6335 36.7815C37.7543 35.8591 37.9595 35.5905 38.9114 35.1078C39.8751 34.6191 41.1411 33.3137 41.6048 32.3305C41.8152 31.8845 42.0548 31.0493 42.1374 30.4745C42.414 28.5508 41.8478 27.6428 40.2381 27.4288C39.7921 27.3694 39.3605 27.21 39.169 27.0338C38.8612 26.7507 38.8477 26.6415 38.8477 24.4195V22.1006L37.7605 20.9448C35.3081 18.3378 31.8626 16.3001 28.448 15.4371C27.3553 15.161 24.0535 14.7285 23.7148 14.8171C23.6756 14.8274 23.075 14.8862 22.3801 14.9477ZM15.2204 21.878C13.9727 22.0534 12.1233 22.5573 11.8028 22.8093C11.4125 23.1164 11.3044 23.8462 11.5745 24.351C11.8661 24.8958 12.435 24.9714 13.6599 24.6282C15.2447 24.1842 17.1423 24.172 17.9329 24.6005C18.247 24.7707 18.7081 25.0211 18.9577 25.1567C19.3414 25.3655 19.4773 25.3763 19.8382 25.2268C20.4141 24.9883 20.7359 24.3157 20.5412 23.7572C20.3623 23.244 19.516 22.6106 18.5028 22.2315C17.748 21.9491 16.031 21.7641 15.2204 21.878ZM30.3178 21.9995C29.2797 22.2348 28.0887 22.8441 27.6991 23.3395C26.861 24.405 28.0458 25.8132 29.1727 25.0908C30.2423 24.4052 30.604 24.3022 31.9237 24.3066C32.8049 24.3097 33.5644 24.4107 34.3408 24.6282C35.2831 24.8922 35.5413 24.917 35.881 24.7764C36.3789 24.5703 36.5635 24.2508 36.5635 23.5956C36.5635 22.9025 36.11 22.5896 34.5947 22.237C32.8664 21.8348 31.4036 21.7536 30.3178 21.9995ZM11.9877 29.146C11.4803 29.4217 11.2734 30.0358 11.504 30.5813C11.7601 31.1866 12.9031 32.181 13.8313 32.606C15.8818 33.5448 18.6599 32.9556 20.1418 31.2679C20.6965 30.636 20.7281 29.9272 20.2236 29.4228C19.6956 28.8947 19.1224 28.9578 18.3938 29.6242C17.5292 30.4149 17.0034 30.6429 16.0484 30.6414C15.3887 30.6403 15.0667 30.5518 14.4638 30.2061C14.0476 29.9674 13.6704 29.6766 13.6256 29.5597C13.5364 29.3271 12.8461 28.9261 12.5507 28.9353C12.4487 28.9384 12.1953 29.0332 11.9877 29.146ZM34.8317 29.1451C34.6249 29.2573 34.4194 29.4444 34.3748 29.5607C34.3301 29.6771 33.9531 29.9674 33.5369 30.2061C32.9341 30.5518 32.612 30.6403 31.9523 30.6414C30.9973 30.6429 30.4715 30.4149 29.607 29.6242C28.8783 28.9578 28.3051 28.8947 27.7772 29.4228C27.2726 29.9272 27.3042 30.636 27.859 31.2679C29.3988 33.0217 32.2048 33.5656 34.3257 32.5216C36.3771 31.5117 37.2245 29.7808 35.9822 29.1384C35.4877 28.8827 35.3128 28.8837 34.8317 29.1451ZM3.80464 39.3427C3.65203 39.5895 2.73877 45.6358 2.82143 45.8514C2.95092 46.1886 3.38877 46.2275 4.24778 45.9778C4.81055 45.8142 5.08822 45.7875 5.12363 45.8937C5.23727 46.2347 6.79439 48.6223 7.55717 49.6251C8.00302 50.2111 8.91828 51.2551 9.59098 51.945C10.697 53.0791 10.8653 53.1993 11.3464 53.1993C12.0277 53.1993 12.5793 52.6879 12.5793 52.0561C12.5793 51.6944 12.3476 51.3704 11.3103 50.2816C10.6123 49.549 9.68549 48.4763 9.25063 47.8979C8.46857 46.8579 7.43982 45.2412 7.43982 45.0524C7.43982 44.9987 7.6444 44.9138 7.89438 44.8638C8.40162 44.7624 8.86745 44.4032 8.86745 44.1137C8.86745 44.0092 7.92907 42.8788 6.78211 41.6018C5.15233 39.7873 4.6094 39.2703 4.29717 39.2362C4.07732 39.2121 3.85575 39.26 3.80464 39.3427ZM41.239 41.5714C40.0808 42.867 39.1333 44.0118 39.1333 44.1154C39.1333 44.3984 39.5753 44.7323 40.0969 44.8431C40.3522 44.8973 40.5609 44.9877 40.5609 45.0439C40.5609 45.2273 39.3099 47.181 38.6069 48.0955C38.2297 48.5863 37.3587 49.5787 36.6713 50.3008C35.6514 51.3722 35.4214 51.695 35.4214 52.0561C35.4214 52.6879 35.9731 53.1993 36.6543 53.1993C37.1354 53.1993 37.3038 53.0791 38.4097 51.945C39.0824 51.2551 39.9977 50.2111 40.4435 49.6251C41.2063 48.6223 42.7634 46.2347 42.8771 45.8937C42.9125 45.7875 43.1902 45.8142 43.7529 45.9778C44.6119 46.2275 45.0498 46.1886 45.1793 45.8514C45.2604 45.6401 44.3503 39.5921 44.2011 39.3507C44.1527 39.2725 43.9402 39.2101 43.729 39.2121C43.4143 39.2151 42.9637 39.6419 41.239 41.5714ZM18.9323 41.0866C18.4761 41.336 18.2898 41.6543 18.2898 42.1844C18.2898 42.8148 19.0106 43.5124 20.3525 44.1801C23.2477 45.621 27.0097 45.1563 29.2469 43.0812C29.8412 42.53 29.8871 41.7987 29.3604 41.2721C28.8556 40.7673 28.3582 40.8277 27.3821 41.5124C25.8907 42.5586 23.9651 42.9058 22.3363 42.4221C21.9423 42.305 21.1788 41.9196 20.6397 41.5655C19.612 40.8905 19.3995 40.8309 18.9323 41.0866ZM0.3265 47.1053C0.017703 47.4342 0.0161321 47.4662 0.0161321 53.6476V59.8593L0.346487 60.1699C0.799332 60.5951 1.58039 60.5857 1.98998 60.1499C2.29877 59.8209 2.30034 59.789 2.30034 53.6076V47.3958L1.96999 47.0853C1.51714 46.66 0.736088 46.6695 0.3265 47.1053ZM46.0107 47.1053C45.7019 47.4342 45.7004 47.4662 45.7004 53.6476V59.8593L46.0307 60.1699C46.4836 60.5951 47.2646 60.5857 47.6742 60.1499C47.983 59.8209 47.9846 59.789 47.9846 53.6076V47.3958L47.6542 47.0853C47.2014 46.66 46.4203 46.6695 46.0107 47.1053Z" fill="#1A8281"/>
</svg>
