<svg width="49" height="48" viewBox="0 0 49 48" fill="none" xmlns="http://www.w3.org/2000/svg">
<path fill-rule="evenodd" clip-rule="evenodd" d="M19.0416 2.10938V4.21875H19.7448H20.4479V2.8125V1.40625H24.6666H28.8854V6.42188V11.4375H24.6666H20.4479V8.53125V5.625H19.7448H19.0416V8.58047V11.5359L18.8254 11.6181C18.1085 11.8907 17.6354 12.6944 17.6354 13.6396V14.25H16.5573H15.4791V16.7344V19.2188H16.1697H16.8602L16.9067 19.868C16.9654 20.6898 17.2925 21.2883 17.8763 21.6424L18.2857 21.8906L18.2886 22.6172L18.2916 23.3438H9.47913H0.666626V35.6719V48H21.151H41.6354V47.2969V46.5938H40.23H38.8247L39.1222 45.9902C39.3135 45.6024 39.4891 45.3702 39.6136 45.3407C39.7201 45.3154 40.5114 45.1609 41.372 44.9974L42.9369 44.7001L44.2716 45.6235L45.6063 46.5469L44.3239 46.5729L43.0416 46.599V47.3009V48.0027L45.8776 47.978L48.7135 47.9531L48.7373 35.625L48.761 23.2969L39.9014 23.3212L31.0416 23.3456L31.0446 22.6181L31.0475 21.8906L31.4569 21.6424C32.0407 21.2883 32.3678 20.6898 32.4266 19.868L32.4731 19.2188H33.1636H33.8541V16.7344V14.25H32.776H31.6979V13.6396C31.6979 12.6944 31.2247 11.8907 30.5078 11.6181L30.2916 11.5359V5.76797V0H24.6666H19.0416V2.10938ZM26.0729 3.51562V4.21875H26.776H27.4791V3.51562V2.8125H26.776H26.0729V3.51562ZM26.0729 6.32812V7.03125H26.776H27.4791V6.32812V5.625H26.776H26.0729V6.32812ZM19.5004 12.9482C19.2032 13.0573 19.0416 13.3851 19.0416 13.8794V14.25H24.6666H30.2916V13.9358C30.2916 13.4034 30.1196 13.055 29.8021 12.9443C29.4318 12.8152 19.8529 12.8188 19.5004 12.9482ZM16.9791 16.6875V17.7188H24.6666H32.3541V16.6875V15.6562H24.6666H16.9791V16.6875ZM18.3854 19.6712C18.3854 20.0228 18.4337 20.1689 18.6023 20.3274L18.8193 20.5312H24.6798H30.5402L30.7441 20.3143C30.8934 20.1552 30.9479 19.98 30.9479 19.6581V19.2188H24.6666H18.3854V19.6712ZM19.7916 22.6875V23.3438H20.4479H21.1041V22.6875V22.0312H20.4479H19.7916V22.6875ZM22.6041 22.6875V23.3438H23.2604H23.9166V22.6875V22.0312H23.2604H22.6041V22.6875ZM25.4166 22.6875V23.3438H26.0729H26.7291V22.6875V22.0312H26.0729H25.4166V22.6875ZM28.2291 22.6875V23.3438H28.8854H29.5416V22.6875V22.0312H28.8854H28.2291V22.6875ZM0.712095 35.6719C0.712095 42.4781 0.723251 45.2486 0.736938 41.8286C0.750532 38.4086 0.750532 32.8399 0.736938 29.4536C0.723251 26.0674 0.712095 28.8656 0.712095 35.6719ZM2.07288 26.2373V27.6307L2.48556 27.6873C3.11041 27.773 3.94797 28.0878 5.44431 28.7994C7.38269 29.7212 7.87881 29.8606 9.19788 29.8538C10.455 29.8475 11.0851 29.6687 12.6912 28.8626C16.0282 27.1879 17.6568 27.1614 20.8229 28.7304C22.5815 29.602 23.5694 29.9034 24.6666 29.9034C25.771 29.9034 26.7539 29.6018 28.5398 28.7147C31.6584 27.1658 33.3213 27.1961 36.6421 28.8626C38.2482 29.6687 38.8783 29.8475 40.1354 29.8538C41.4578 29.8606 41.9615 29.7186 43.9246 28.7849C45.3078 28.1271 46.6036 27.6562 47.0309 27.6562H47.2604V26.25V24.8438H39.151H31.0416V25.5469V26.25H30.2916H29.5416V25.5469V24.8438H28.8854H28.2291V25.5469V26.25H27.4791H26.7291V25.5469V24.8438H26.0729H25.4166V25.5469V26.25H24.6666H23.9166V25.5469V24.8438H23.2604H22.6041V25.5469V26.25H21.8541H21.1041V25.5469V24.8438H20.4479H19.7916V25.5469V26.25H19.0416H18.2916V25.5469V24.8438H10.1823H2.07288V26.2373ZM15.7312 29.2042C15.4316 29.28 14.415 29.6991 13.4721 30.1354C11.2648 31.157 10.5423 31.3551 9.05725 31.3462C7.63234 31.3378 6.94206 31.1401 4.74475 30.1111C3.21653 29.3955 2.59225 29.1579 2.23694 29.1568C2.08272 29.1563 2.07288 29.4595 2.07288 34.217V39.2777L2.28381 39.3205C2.39988 39.3442 2.79006 39.3893 3.151 39.4209C4.18741 39.5118 5.42303 39.8126 7.45459 40.4685C9.94956 41.2741 11.0548 41.5238 12.4323 41.5933C14.294 41.6872 15.3445 41.4934 18.6344 40.4485C21.5357 39.5271 22.555 39.3402 24.6666 39.3424C26.7501 39.3445 27.8331 39.5378 30.4603 40.3763C33.8808 41.4682 35.0806 41.6935 36.94 41.5938C38.2741 41.5222 39.4118 41.2629 41.9096 40.4614C43.9807 39.7967 45.1534 39.5111 46.1823 39.4209C46.5432 39.3893 46.9334 39.3442 47.0494 39.3205L47.2604 39.2777V34.217C47.2604 29.4595 47.2505 29.1563 47.0963 29.1568C46.7398 29.1579 46.1159 29.3957 44.6016 30.1075C42.4312 31.1278 41.7059 31.3358 40.276 31.3479C38.7978 31.3606 38.0866 31.1653 35.8648 30.1371C33.8652 29.2117 33.1872 29.0225 32.1198 29.092C31.2125 29.1512 30.6576 29.3382 28.8854 30.1824C27.3158 30.93 26.657 31.1597 25.6351 31.3157C24.0986 31.5502 22.6428 31.2327 20.4479 30.1842C19.7002 29.8271 18.8354 29.4457 18.526 29.3366C17.7922 29.078 16.4764 29.0156 15.7312 29.2042ZM17.9166 33.2344V33.9375H19.0416H20.1666V33.2344V32.5312H19.0416H17.9166V33.2344ZM29.1666 33.2344V33.9375H30.2916H31.4166V33.2344V32.5312H30.2916H29.1666V33.2344ZM7.41663 33.9375V34.6875H8.49475H9.57288V33.9375V33.1875H8.49475H7.41663V33.9375ZM39.7604 33.9375V34.6875H40.8385H41.9166V33.9375V33.1875H40.8385H39.7604V33.9375ZM23.5416 35.3438V36.0938H24.6666H25.7916V35.3438V34.5938H24.6666H23.5416V35.3438ZM12.2916 36.0469V36.75H13.4166H14.5416V36.0469V35.3438H13.4166H12.2916V36.0469ZM34.7916 36.0469V36.75H35.9166H37.0416V36.0469V35.3438H35.9166H34.7916V36.0469ZM17.9166 37.4531V38.1562H19.0416H20.1666V37.4531V36.75H19.0416H17.9166V37.4531ZM29.1666 37.4531V38.1562H30.2916H31.4166V37.4531V36.75H30.2916H29.1666V37.4531ZM7.41663 38.1562V38.9062H8.49475H9.57288V38.1562V37.4062H8.49475H7.41663V38.1562ZM39.7604 38.1562V38.9062H40.8385H41.9166V38.1562V37.4062H40.8385H39.7604V38.1562ZM2.07288 41.9933V43.2188L3.45569 43.2158C4.77569 43.213 4.84516 43.2034 4.98513 43.0049C5.06575 42.8904 5.33069 42.5154 5.57397 42.1716L6.01619 41.5462L5.47422 41.3886C4.84497 41.2055 3.38969 40.922 2.61194 40.8308L2.07288 40.7677V41.9933ZM24.1657 42.1205C23.5647 42.8634 23.0729 43.5051 23.0729 43.5463C23.0729 43.5875 23.5685 44.2896 24.1744 45.1064L25.276 46.5915L26.0213 46.5692L26.7666 46.5469L27.198 45.7969C27.4352 45.3844 27.7723 44.7863 27.947 44.4679L28.2648 43.8889L27.5204 42.4295C27.111 41.6269 26.7127 40.9522 26.6354 40.9301C26.558 40.9081 26.2166 40.8629 25.8767 40.8298L25.2586 40.7694L24.1657 42.1205ZM46.0008 40.9297C45.5401 41.0012 45.1328 41.092 45.096 41.1315C45.0155 41.2174 44.0729 43.4933 44.0729 43.6015C44.0729 43.6698 47.1243 45.8438 47.2202 45.8438C47.2423 45.8438 47.2604 44.7047 47.2604 43.3125V40.7812L47.0494 40.7903C46.9334 40.7953 46.4615 40.858 46.0008 40.9297ZM22.5104 40.9405C21.8105 41.06 20.5274 41.3966 19.34 41.7723L17.9978 42.197L18.298 42.7312C18.8204 43.6611 18.6198 43.6107 20.2384 43.2187C21.0256 43.028 21.6827 42.8551 21.6986 42.8345C21.7144 42.8138 22.0744 42.3644 22.4986 41.8359C23.3328 40.7962 23.3328 40.8002 22.5104 40.9405ZM29.1274 42.3053L29.6262 43.2776L31.0605 43.583C31.8493 43.7509 32.5839 43.9095 32.6929 43.9355C32.8627 43.9759 32.9255 43.8976 33.1302 43.3898L33.3692 42.7969L32.9319 42.6764C32.5622 42.5745 29.0504 41.4818 28.7336 41.3701C28.6758 41.3498 28.8531 41.7706 29.1274 42.3053ZM41.776 42.0493C41.1057 42.2723 40.1565 42.5505 39.6666 42.6677C39.1768 42.7848 38.7638 42.8881 38.749 42.8971C38.7341 42.9061 38.8568 43.1304 39.0217 43.3957C39.3118 43.8623 39.3323 43.8759 39.6581 43.8165C39.8433 43.7827 40.5793 43.6438 41.2937 43.5079L42.5925 43.2607L42.9108 42.4716C43.0859 42.0376 43.2291 41.6696 43.2291 41.6538C43.2291 41.5848 42.9203 41.6688 41.776 42.0493ZM7.26475 42.3516C7.16191 42.4933 6.87897 42.8901 6.63606 43.2331L6.19431 43.8569L7.28791 45.0378C7.88931 45.6874 8.41197 46.2188 8.44938 46.2188C8.48669 46.2188 9.01722 45.7856 9.62828 45.2561L10.7392 44.2936L10.8399 43.6239L10.9407 42.9544L10.374 42.8428C10.0623 42.7815 9.31356 42.5879 8.71009 42.4126C8.10672 42.2372 7.57675 42.0938 7.5325 42.0938C7.48816 42.0938 7.36769 42.2098 7.26475 42.3516ZM15.4791 42.8558C15.0408 42.9514 14.1683 43.0574 13.5401 43.0914L12.398 43.1533L12.3202 43.7251L12.2425 44.2969L13.1343 44.7952C15.1323 45.9116 15.9665 46.3309 16.0357 46.2534C16.0758 46.2086 16.43 45.7643 16.8228 45.2661L17.5368 44.3603L17.047 43.51C16.7538 43.0009 16.5008 42.6642 16.4166 42.671C16.3393 42.6771 15.9174 42.7603 15.4791 42.8558ZM34.847 43.1138C34.8281 43.1457 34.6581 43.5467 34.4692 44.0048L34.1258 44.8378L34.466 45.7158L34.8062 46.5938H35.998H37.1898L37.647 45.6644L38.1043 44.7351L37.714 44.0891C37.1051 43.0814 37.226 43.1506 35.9849 43.1004C35.3778 43.0759 34.8659 43.082 34.847 43.1138ZM20.279 44.7183C19.49 44.9128 18.8328 45.0875 18.8185 45.1063C18.8042 45.1252 18.5531 45.4442 18.2608 45.8153C17.9684 46.1864 17.7291 46.5133 17.7291 46.5419C17.7291 46.5704 19.0172 46.5938 20.5914 46.5938H23.4537L22.6041 45.4688C22.1369 44.85 21.7454 44.3484 21.734 44.3541C21.7228 44.3598 21.068 44.5237 20.279 44.7183ZM2.07288 45.6094V46.5938H4.38813H6.70338L6.38181 46.2422C6.20491 46.0489 5.7865 45.6058 5.45191 45.2578L4.84356 44.625H3.45822H2.07288V45.6094ZM29.0002 45.6154C28.7308 46.0923 28.5104 46.5076 28.5104 46.5382C28.5104 46.5687 29.5651 46.5938 30.8541 46.5938C32.1432 46.5938 33.1979 46.5742 33.1979 46.5503C33.1979 46.5028 32.8188 45.5272 32.7885 45.4969C32.7782 45.4866 32.1805 45.3472 31.4603 45.1871C30.7402 45.027 30.0023 44.8628 29.8205 44.8222L29.4901 44.7482L29.0002 45.6154ZM10.8854 46.128L10.3698 46.5917L11.8151 46.5927C12.61 46.5933 13.2416 46.575 13.2187 46.5521C13.1017 46.435 11.6165 45.6568 11.5169 45.6603C11.4531 45.6625 11.169 45.873 10.8854 46.128Z" fill="#1A8281"/>
</svg>
