<svg width="64" height="64" viewBox="0 0 64 64" fill="none" xmlns="http://www.w3.org/2000/svg">
<path fill-rule="evenodd" clip-rule="evenodd" d="M23.7966 0.239523C22.3459 0.632398 20.7929 1.49665 19.6546 2.54415C19.1411 3.0169 19.0791 3.03852 17.9389 3.1434C14.197 3.4874 11.4075 5.66365 10.304 9.0999C9.98225 10.1019 9.94163 10.1609 9.11763 10.8183C7.43725 12.159 6.34775 13.928 5.93075 15.9928C5.72112 17.0305 5.724 17.4696 5.954 19.642L6.02863 20.3466L5.15475 21.3579C2.583 24.334 1.94963 28.2016 3.51425 31.3749C4.19375 32.7528 5.62488 34.2223 6.9625 34.9155C7.94063 35.4224 9.4895 35.8708 10.3013 35.8819C10.8096 35.8889 10.8149 35.8939 11.2329 36.7695C11.7177 37.7853 12.9249 39.1398 13.9094 39.7728C14.264 40.0008 14.9955 40.336 15.5349 40.5176L16.5155 40.8479L16.9911 41.7948C17.7225 43.2506 18.1865 43.773 21.471 46.8384L24.5235 49.6874L24.4721 51.6249C24.4324 53.1224 24.3696 53.6836 24.1956 54.0965C23.9434 54.695 23.1631 55.4279 22.5756 55.6181C22.3621 55.6871 19.8969 56.1096 17.0971 56.5569C12.1131 57.353 11.046 57.5935 9.886 58.1823C8.41275 58.9301 6.87475 60.4708 6.06725 62.0074C5.55525 62.9815 5.52913 63.2193 5.88413 63.6705C6.08213 63.9224 6.25413 63.9999 6.61475 63.9999C7.15575 63.9999 7.30375 63.8631 7.8255 62.8814C8.6125 61.4009 10.278 60.0083 11.856 59.5116C12.3134 59.3676 14.9937 58.8818 17.8125 58.4318C21.702 57.8109 23.0958 57.5413 23.5941 57.3135C24.5358 56.8831 25.5203 55.9029 25.9526 54.9651C26.2673 54.2829 26.3166 54.0139 26.3541 52.7744C26.3776 51.9972 26.4341 51.3813 26.4796 51.4055C28.9265 52.71 30.2957 53.069 32.431 52.9658C34.03 52.8884 35.1105 52.595 36.4688 51.8694L37.375 51.3853V52.238C37.375 54.6776 38.3329 56.4018 40.1624 57.2554C40.767 57.5375 41.5508 57.7163 43.7264 58.0679C46.3455 58.4911 46.5342 58.5063 46.8259 58.3151C47.5151 57.8635 47.4841 56.925 46.7705 56.6369C46.5874 56.563 45.3688 56.3316 44.0625 56.1228C41.1922 55.6639 40.7776 55.5241 40.1419 54.8019C39.5021 54.075 39.375 53.5113 39.375 51.3999V49.6605L42.2812 46.9278C45.7041 43.7091 46.0689 43.3015 46.8101 41.8664C47.3216 40.876 47.4111 40.7709 47.806 40.6969C48.0446 40.6521 48.7062 40.3831 49.2762 40.0991C50.6524 39.4136 51.8791 38.2011 52.5698 36.8441C53.0341 35.9319 53.0864 35.8759 53.4754 35.8754C55.5066 35.8728 58.875 34.1078 58.875 33.046C58.875 32.647 58.536 32.1929 58.1457 32.069C57.8376 31.9711 57.4705 32.135 56.625 32.7479C55.85 33.3095 54.9589 33.6845 54.0889 33.815L53.5 33.9033V33.3328C53.5 32.5759 53.2747 31.5473 52.9826 30.9698C52.757 30.5239 52.7549 30.4356 52.9356 29.0571C53.6179 23.8523 52.3154 18.404 49.4209 14.3551C47.9202 12.2561 45.0881 9.6249 44.3295 9.6249C43.8624 9.6249 43.375 10.1355 43.375 10.6249C43.375 11.0558 43.4775 11.1704 44.9144 12.3465C47.7244 14.6463 49.9167 18.4014 50.7547 22.35C51.0426 23.7061 51.2106 26.7224 51.071 28.0263L50.9825 28.853L50.3989 28.5949C49.9878 28.413 49.4271 28.3148 48.5014 28.2621L47.1875 28.1874L46.8299 27.4723C46.5291 26.8706 46.4549 26.5215 46.3618 25.2715C45.9931 20.3251 43.5254 16.5508 39.3125 14.4906C37.6166 13.6613 36.4289 13.3651 34.4688 13.2833L32.875 13.2168V11.9875V10.7584L33.7812 10.2534C34.2798 9.97565 35.0531 9.63265 35.5 9.49115C36.5525 9.15802 38.2155 9.05015 39.1875 9.25202C40.6623 9.55827 40.832 9.55427 41.1808 9.20552C41.868 8.51827 41.4184 7.75477 40.125 7.41302C39.5726 7.26702 38.8324 7.1984 37.8125 7.19865C36.1526 7.1989 34.9286 7.46315 33.5938 8.10927L32.875 8.45715V5.85352C32.875 3.62352 32.9019 3.2499 33.0624 3.2499C33.1654 3.2499 33.7419 3.02965 34.3436 2.7604C34.9452 2.49115 35.6906 2.20352 36 2.12102C36.7459 1.9224 38.5179 1.92065 39.375 2.11765C40.413 2.35627 41.7215 3.0439 42.6066 3.8159C43.7544 4.81677 44.1799 4.99815 45.667 5.12015C48.7087 5.36965 50.8126 7.0049 51.6984 9.80815C52.1079 11.1041 52.3719 11.5116 53.2296 12.1718C55.394 13.8374 56.3644 16.0195 56.0185 18.4439C55.7121 20.5921 55.8619 21.1598 57.1034 22.5584C57.9525 23.515 58.6134 24.6789 58.951 25.8124C59.1201 26.3805 59.1701 26.9481 59.1567 28.1526C59.1395 29.7223 59.1434 29.7463 59.4615 29.9964C59.8877 30.3318 60.2837 30.3165 60.7118 29.9481L61.0625 29.6463L61.0615 27.7294C61.0606 25.9001 61.0428 25.7623 60.6698 24.7173C60.1769 23.3366 59.631 22.4163 58.7234 21.4364C57.8107 20.4511 57.6895 20.1414 57.894 19.3185C58.1154 18.4274 58.0786 16.4756 57.822 15.4999C57.3522 13.7136 56.2014 11.9709 54.75 10.8479C53.8695 10.1666 53.8169 10.0931 53.5666 9.19277C53.2004 7.8754 52.5351 6.77377 51.4434 5.6764C49.8556 4.08065 48.1693 3.3079 45.9514 3.15977L44.8401 3.08565L43.8898 2.29227C42.0429 0.750648 40.4601 0.131148 38.1204 0.0337727C36.2948 -0.0421023 35.1865 0.175148 33.5556 0.928648C32.2841 1.51615 31.5215 1.53265 30.3902 0.997523C28.8025 0.246398 28.1849 0.100273 26.375 0.0473977C24.9886 0.00702265 24.5285 0.0412727 23.7966 0.239523ZM5.98863 1.35902C5.8295 1.48777 5.63563 1.78265 5.55775 2.01415C5.43125 2.38965 5.35087 2.44615 4.81588 2.53577C4.23563 2.63315 4.20238 2.62177 3.80975 2.19315C3.5865 1.9494 3.2875 1.7499 3.14525 1.7499C2.36713 1.7499 1.84437 2.44727 2.12125 3.1159C2.20462 3.31715 2.37375 3.57315 2.497 3.68465C2.71212 3.8794 2.71225 3.91077 2.49825 4.4749C2.298 5.0029 2.22738 5.07027 1.801 5.1404C1.31262 5.22077 0.75 5.72127 0.75 6.07552C0.75 6.41027 1.116 6.98015 1.386 7.0659C1.531 7.1119 1.88325 7.11915 2.16863 7.0819C2.64213 7.02002 2.71775 7.05077 3.03375 7.43327C3.36637 7.83602 3.37388 7.8754 3.22463 8.4334C3.09363 8.92315 3.09875 9.0669 3.25725 9.34915C3.48175 9.74915 3.96125 9.94315 4.43313 9.82465C4.692 9.75965 4.83913 9.58977 5.032 9.1334C5.27638 8.55502 5.31325 8.52527 5.86263 8.46265C6.39425 8.40215 6.467 8.42927 6.82937 8.82352C7.31775 9.3549 7.86262 9.39865 8.31812 8.94302C8.71187 8.5494 8.7095 8.07177 8.31125 7.54965C8.01625 7.1629 8.00663 7.1039 8.15038 6.56627C8.2935 6.03115 8.33537 5.98915 8.8025 5.91452C9.62712 5.78265 10.0636 5.1369 9.79737 4.44302C9.66625 4.10152 9.06575 3.8719 8.47725 3.93827C7.982 3.99427 7.90912 3.96427 7.59212 3.5744C7.29825 3.21277 7.26575 3.0999 7.37337 2.81652C7.606 2.20477 7.52988 1.66652 7.17063 1.38402C6.76188 1.06252 6.36513 1.05402 5.98863 1.35902ZM25.1451 2.00702C23.5856 2.21402 22.4779 2.75102 20.9678 4.03215C20.036 4.82252 19.2552 5.12402 18.1335 5.1264C16.7059 5.1294 15.1815 5.74927 14.0414 6.79027C13.1388 7.61452 12.5895 8.47552 12.1795 9.7089C11.7097 11.1224 11.3694 11.633 10.4439 12.3124C8.59975 13.6664 7.62875 15.7088 7.79962 17.8749C7.84025 18.3905 7.90837 19.1584 7.95087 19.5814C8.06712 20.7369 7.79362 21.4134 6.74188 22.5713C3.69538 25.9254 3.98913 30.594 7.38963 32.8648C8.13075 33.3596 9.49175 33.8749 10.058 33.8749C10.3228 33.8749 10.3438 33.8116 10.4052 32.8241C10.4526 32.0649 10.5601 31.5784 10.7929 31.07C11.0949 30.4105 11.1056 30.322 10.9659 29.652C10.8757 29.2198 10.8185 27.8509 10.821 26.1874C10.8256 23.1078 10.9906 22.0081 11.8225 19.5121C13.4858 14.5213 17.204 10.2643 21.757 8.13865C24.4426 6.88477 27.0685 6.81115 29.8123 7.91277L30.875 8.33952V5.79465C30.875 3.81227 30.8398 3.2499 30.7153 3.2499C30.6274 3.2499 30.1463 3.05377 29.6461 2.81415C28.1165 2.08102 26.615 1.81177 25.1451 2.00702ZM4.77863 4.58352C4.4925 4.69865 4.229 5.36977 4.31537 5.76327C4.48512 6.53565 5.5715 6.79502 6.09375 6.1879C6.67912 5.5074 6.22725 4.48877 5.34937 4.50977C5.12287 4.51515 4.866 4.5484 4.77863 4.58352ZM24.226 9.31827C21.5462 9.96815 17.8344 12.8278 15.895 15.7364C13.7269 18.9881 12.748 22.3148 12.7519 26.4185C12.753 27.5289 12.7971 28.5055 12.8501 28.5889C12.9236 28.7045 13.1329 28.6823 13.7344 28.4951C14.2504 28.3345 14.8801 28.2499 15.5592 28.2499C16.535 28.2499 16.6086 28.2309 16.8067 27.9286C17.2113 27.3113 17.3995 26.5515 17.5054 25.1085C17.6586 23.0209 18.3041 20.6898 18.842 20.2811C19.1587 20.0406 19.8406 20.0905 20.125 20.3749C20.4379 20.6878 20.4426 21.1935 20.1399 21.964C19.8022 22.8231 19.5264 24.2623 19.4485 25.5708C19.3662 26.9519 19.015 28.1416 18.4354 29.003L18 29.65V34.1736C18 39.1428 18.0385 39.4849 18.7666 40.9811C19.2541 41.9828 19.9765 42.7464 23.9486 46.4584C28.1751 50.4081 28.9123 50.8444 31.5649 50.966C33.1912 51.0405 34.0966 50.8574 35.4485 50.18C36.4258 49.6905 36.9421 49.2443 41.375 45.0584C44.4685 42.1373 44.8484 41.6723 45.4819 40.0301L45.8069 39.1874L45.8489 34.4304L45.8908 29.6735L45.455 29.026C44.7503 27.9785 44.5016 27.1425 44.3729 25.3858C44.2406 23.5813 43.9346 22.3618 43.2842 21.0463C41.9555 18.359 39.4214 16.2983 36.4375 15.4788C35.5181 15.2263 35.1555 15.2041 31.9375 15.2041C28.7346 15.2041 28.3526 15.2271 27.4375 15.4758C26.1386 15.8286 24.3779 16.7076 23.4566 17.463C22.3751 18.35 22.0526 18.5053 21.6112 18.3514C21.1846 18.2026 21 17.9144 21 17.3965C21 17.1051 21.1589 16.8796 21.7506 16.3319C23.8116 14.4238 26.8326 13.2499 29.6822 13.2499H30.875V12.0084C30.875 10.7776 30.8719 10.7646 30.508 10.5055C29.9455 10.1051 28.646 9.53102 27.8175 9.31727C26.9112 9.08327 25.1929 9.08377 24.226 9.31827ZM21.9661 24.7811C21.6516 25.0189 21.5167 25.5105 21.6561 25.9105C21.8291 26.4069 23.3495 27.1508 25.1875 27.6384C26.868 28.0843 29.5461 27.8645 29.8729 27.2539C30.0791 26.8684 30.0206 26.2705 29.75 25.9999C29.4627 25.7126 29.1905 25.6954 28.0119 25.89C26.9159 26.071 25.57 25.8151 23.9559 25.1188C22.7526 24.5996 22.3064 24.5239 21.9661 24.7811ZM40.1461 24.9995C38.4039 25.8236 37.0129 26.0601 35.2469 25.8321C34.528 25.7393 34.3952 25.7559 34.1281 25.9723C33.7546 26.2746 33.7144 26.9901 34.0499 27.361C34.5479 27.9113 37.0085 28.0543 38.6691 27.6296C39.8446 27.3289 41.5721 26.5931 41.9618 26.2271C42.329 25.882 42.3478 25.2226 42 24.8749C41.6473 24.5221 41.0736 24.5606 40.1461 24.9995ZM24.2044 29.134C23.9525 29.332 23.875 29.504 23.875 29.8646C23.875 30.3954 24.105 30.6688 24.7366 30.889L25.1446 31.0311L24.666 31.2458C24.0443 31.5245 23.8346 31.7911 23.8486 32.2855C23.8606 32.7068 24.3404 33.2499 24.7006 33.2499C25.1091 33.2499 28.4481 31.8699 28.6562 31.615C28.954 31.2505 28.931 30.8249 28.5938 30.457C28.3149 30.1529 25.2161 28.8749 24.7575 28.8749C24.6344 28.8749 24.3855 28.9915 24.2044 29.134ZM37.1875 29.5129C35.4173 30.1965 35 30.4829 35 31.0148C35 31.6189 35.454 31.938 37.2796 32.6169C39.1045 33.2955 39.4696 33.3265 39.8154 32.8328C40.2226 32.2514 39.9755 31.5886 39.2266 31.2534L38.7234 31.028L39.1739 30.8794C39.7039 30.7045 40 30.3324 40 29.8414C40 29.4091 39.4975 28.8729 39.0994 28.8801C38.9416 28.8831 38.0812 29.1678 37.1875 29.5129ZM14.1549 30.4168C12.979 30.8433 12.375 31.8141 12.375 33.2783C12.375 35.4336 13.5305 37.3776 15.3638 38.3066L16 38.6291V34.4395V30.2499L15.2812 30.2594C14.886 30.2646 14.379 30.3354 14.1549 30.4168ZM47.847 34.4374C47.828 36.7406 47.8439 38.625 47.8824 38.6249C48.1189 38.6248 49.5186 37.6596 49.9375 37.2079C51.1657 35.8834 51.7961 33.7181 51.3779 32.2599C51.0339 31.0603 49.9154 30.2499 48.6037 30.2499H47.8815L47.847 34.4374ZM29.3494 34.8964C28.7679 35.3494 28.9005 36.3325 29.5788 36.597C31.1976 37.2283 33.7769 37.0968 34.5938 36.3414C34.9787 35.9853 34.967 35.3799 34.5677 35.0049C34.2416 34.6984 34.1419 34.6974 32.5625 34.9845C32.1771 35.0546 31.6739 35.052 31.25 34.9778C29.8976 34.7409 29.567 34.7268 29.3494 34.8964ZM54.5091 38.7043C54.1804 39.1221 54.1838 39.2169 54.561 40.1451L54.872 40.9105L54.4302 41.3994C54.1872 41.6683 53.9269 42.0235 53.8516 42.1888C53.7196 42.4785 53.6801 42.4866 52.7546 42.4153C51.816 42.3429 51.7885 42.349 51.5223 42.6874C51.3725 42.8779 51.25 43.159 51.25 43.3124C51.25 43.7496 51.7072 44.2323 52.1929 44.3078C52.4305 44.3447 52.8219 44.4055 53.0625 44.443C53.3766 44.492 53.5 44.5751 53.5 44.7379C53.5 44.8626 53.6562 45.2744 53.8471 45.6529L54.1942 46.3411L53.7239 46.9518C53.0511 47.825 53.0981 48.5531 53.8473 48.8634C54.3644 49.0776 54.7586 48.8794 55.3105 48.1275C55.6525 47.6618 55.8376 47.508 55.9847 47.5679C56.0962 47.6133 56.5451 47.681 56.9821 47.7184L57.7767 47.7863L58.1249 48.562C58.3162 48.9886 58.568 49.3743 58.6841 49.4188C59.0894 49.5743 59.6268 49.4981 59.875 49.2499C60.198 48.9269 60.193 48.3919 59.8599 47.6174L59.5947 47.0011L60.0531 46.4938C60.3052 46.2148 60.5735 45.8503 60.6494 45.6839C60.7815 45.3938 60.8239 45.3843 61.6749 45.4556C62.4432 45.52 62.6036 45.4966 62.8688 45.2811C63.0904 45.1009 63.175 44.9084 63.175 44.5848C63.175 43.9741 62.8505 43.6526 62.1419 43.561C61.056 43.4209 61.0432 43.4134 60.8801 42.8309C60.7959 42.5296 60.6234 42.1254 60.4969 41.9326L60.2669 41.582L60.7585 40.8956C61.0287 40.5181 61.25 40.0809 61.25 39.924C61.25 39.4604 60.7301 38.9583 60.2503 38.9583C59.8316 38.9583 59.5499 39.1888 58.9375 40.032C58.7079 40.3483 58.6519 40.3661 58.2509 40.2506C58.0106 40.1815 57.5542 40.1249 57.2365 40.1249C56.6683 40.1249 56.6555 40.1159 56.4469 39.5696C56.1036 38.6708 55.8073 38.3749 55.25 38.3749C54.8784 38.3749 54.7089 38.4501 54.5091 38.7043ZM30.9155 38.8048C27.7884 39.7826 26.7867 44.2613 29.1274 46.8005C31.728 49.6219 36 47.4925 36 43.3749C36 40.2954 33.4574 38.01 30.9155 38.8048ZM31.003 40.898C29.3979 41.989 29.3979 44.7608 31.003 45.8518C31.5492 46.2231 32.3955 46.1804 32.9985 45.751C34.317 44.812 34.317 41.9378 32.9985 40.9988C32.3955 40.5694 31.5492 40.5266 31.003 40.898ZM6.61013 40.8758C6.49888 40.9408 6.33988 41.1579 6.25688 41.3581C6.12638 41.6734 6.14937 41.8306 6.428 42.5273C6.60512 42.9699 6.75 43.363 6.75 43.4009C6.75 43.4388 6.38837 43.8385 5.94625 44.2894L5.14262 45.109L4.20437 44.774L3.26625 44.4389L2.91438 44.7006C2.64975 44.8974 2.55325 45.0849 2.52525 45.4564C2.48 46.0575 2.66975 46.2578 3.67075 46.665L4.3845 46.9554L4.411 48.1551L4.4375 49.3549L3.75 49.629C2.5625 50.1025 2.15662 50.8838 2.78925 51.4781C3.16425 51.8304 3.675 51.824 4.5075 51.4566L5.172 51.1633L6.0255 52.0168L6.87887 52.8701L6.56112 53.6524C6.352 54.167 6.26912 54.5526 6.319 54.7796C6.46462 55.4428 7.32812 55.7238 7.86037 55.2811C8.005 55.1608 8.2555 54.7343 8.41687 54.3331L8.71025 53.6039L9.91113 53.5808L11.112 53.5576L11.4467 54.3451C11.935 55.4939 12.4854 55.7799 13.1706 55.2408C13.5986 54.9041 13.6032 54.3654 13.1861 53.4224L12.8724 52.7128L13.1549 52.5214C13.5147 52.2775 14.375 51.3664 14.375 51.2291C14.375 51.0535 14.6725 51.1109 15.4958 51.4454C16.1771 51.7223 16.3339 51.7455 16.647 51.6158C17.0719 51.4398 17.25 51.1559 17.25 50.6549C17.25 50.1971 16.8891 49.8689 16 49.5178L15.3125 49.2463V48.0654V46.8845L16.1555 46.5121C16.7375 46.2551 17.0444 46.0392 17.1466 45.8148C17.3385 45.3937 17.1737 44.9208 16.7165 44.5803C16.3404 44.3003 16.4315 44.2848 14.9279 44.8849C14.5504 45.0355 14.5272 45.0225 13.7002 44.1955L12.8574 43.3526L13.1799 42.5468C13.6463 41.3819 13.383 40.7499 12.4315 40.7499C11.9449 40.7499 11.6265 41.0919 11.2679 41.9999L10.9964 42.6874H9.81612H8.636L8.30225 41.9023C8.11875 41.4704 7.85063 41.0344 7.7065 40.9335C7.41013 40.7259 6.9115 40.6996 6.61013 40.8758ZM56.2373 42.4086C55.7475 42.7358 55.3754 43.3959 55.3754 43.9374C55.3754 45.3181 57.0324 46.2245 58.226 45.4969C58.6439 45.242 59.1195 44.412 59.1195 43.9374C59.1195 43.4628 58.6439 42.6328 58.226 42.3779C57.6531 42.0286 56.786 42.042 56.2373 42.4086ZM8.68163 44.7906C7.649 45.1885 6.8595 45.9908 6.51988 46.9873C6.11987 48.1605 6.49638 49.7304 7.38725 50.6046C8.15188 51.355 8.68437 51.5594 9.875 51.5594C11.0974 51.5594 11.6315 51.3435 12.3925 50.5418C13.052 49.8469 13.2828 49.3045 13.3483 48.295C13.3975 47.536 13.3603 47.3025 13.0989 46.7318C12.4827 45.386 11.3062 44.621 9.875 44.6356C9.42813 44.6401 8.89113 44.7099 8.68163 44.7906ZM32.0421 55.6845C31.6801 55.938 31.5948 56.3828 31.7978 56.9579C31.9621 57.4238 31.9549 57.4586 31.6092 57.8726C31.2954 58.2486 31.1873 58.2984 30.7529 58.2671C30.0445 58.2159 29.751 58.3438 29.5658 58.7843C29.3351 59.3328 29.5401 59.8521 30.0754 60.0759C30.3045 60.1715 30.5926 60.2499 30.7157 60.2499C30.867 60.2499 31.0039 60.4289 31.1383 60.8029C31.3316 61.3405 31.3291 61.3655 31.0481 61.7091C30.6344 62.2146 30.6484 62.9019 31.0794 63.2408C31.5615 63.62 31.9571 63.5678 32.4675 63.0574C32.8797 62.6451 32.9479 62.6205 33.4621 62.6976C33.9589 62.7721 34.0339 62.8294 34.2096 63.2688C34.43 63.8195 34.6847 63.9999 35.2417 63.9999C35.97 63.9999 36.321 63.2818 36.0024 62.4438C35.9009 62.1765 35.9379 62.0399 36.2195 61.6444C36.5468 61.1848 36.5811 61.1694 37.1603 61.225C37.9169 61.2978 38.375 60.9453 38.375 60.2906C38.375 59.7574 38.02 59.401 37.3884 59.3C36.9494 59.2298 36.8763 59.1644 36.6885 58.6726C36.4799 58.1263 36.4804 58.1218 36.8019 57.7396C37.2166 57.2469 37.2226 56.7111 36.8181 56.3068C36.3905 55.879 35.9665 55.9179 35.3916 56.4373C34.945 56.8408 34.8636 56.8685 34.3384 56.7965C33.8895 56.735 33.7546 56.6601 33.6999 56.442C33.6616 56.2899 33.5126 56.0158 33.3686 55.8326C33.0677 55.4501 32.4718 55.3835 32.0421 55.6845ZM49.8969 57.563C49.263 58.3689 49.6606 58.9236 51.1151 59.2623C51.6915 59.3965 52.5624 59.7138 53.0504 59.9673C54.1236 60.5249 55.4154 61.7749 55.9258 62.7499C56.4385 63.7295 56.7161 63.9999 57.2093 63.9999C57.6591 63.9999 58.1152 63.6474 58.1394 63.2811C58.1721 62.7841 58.082 62.5208 57.5939 61.6874C56.2114 59.3268 53.4642 57.496 50.9906 57.2868C50.2045 57.2203 50.157 57.2323 49.8969 57.563ZM33.3641 58.9101C33.0456 59.1548 32.8479 59.6246 32.9284 59.9455C33.034 60.3664 33.4885 60.7499 33.8817 60.7499C34.796 60.7499 35.249 59.5623 34.5456 59.009C34.1794 58.7209 33.6665 58.678 33.3641 58.9101Z" fill="#1A8281"/>
</svg>
