<svg width="58" height="64" viewBox="0 0 58 64" fill="none" xmlns="http://www.w3.org/2000/svg">
<path fill-rule="evenodd" clip-rule="evenodd" d="M25.6041 0.0844572C17.882 1.04933 12.0655 3.72146 7.28999 8.49808C3.23749 12.5515 0.909487 17.2868 0.283362 22.7501C0.102237 24.3301 0.193862 27.3696 0.467362 28.8568C1.28911 33.3241 3.33174 37.4473 6.35511 40.7418C7.10761 41.5618 7.13011 41.6066 7.21486 42.4482C7.26261 42.9236 7.44461 43.9528 7.61924 44.7355C9.52836 53.2931 15.8567 60.2733 24.1885 63.0118C25.8159 63.5467 27.8702 64.0001 28.6666 64.0001C30.3025 64.0001 33.9247 62.8962 36.5177 61.6076C38.4555 60.6446 38.7235 60.3996 38.7235 59.5908C38.7235 59.1945 38.645 59.0295 38.318 58.7373C38.0655 58.5116 37.774 58.3751 37.5449 58.3751C37.342 58.3751 36.5419 58.7018 35.7597 59.1041C34.9801 59.5051 33.8386 60.0171 33.2231 60.242C31.6966 60.7996 29.3891 61.3752 28.6845 61.3742C27.3641 61.3722 24.6659 60.5495 22.3541 59.4441C16.8617 56.8176 12.6754 52.0608 10.7424 46.2501C9.78924 43.3847 9.54899 41.1123 9.54686 34.9376C9.54536 30.598 9.67586 28.8025 10.0991 27.342C10.779 24.9956 12.1895 22.8488 14.0417 21.341C15.2095 20.3902 17.5061 19.1908 19.4791 18.5012C24.4585 16.7608 30.1256 16.4868 35.2291 17.7398C38.0315 18.4277 41.0142 19.6735 42.6439 20.8362C45.5982 22.9445 47.356 26.1048 47.6681 29.8696C47.8204 31.707 47.8206 37.9848 47.6686 40.4547C47.443 44.1177 46.4855 47.4145 44.783 50.39C44.444 50.9825 44.1666 51.6181 44.1666 51.8023C44.1666 52.6501 44.8817 53.2298 45.7309 53.0705C46.3096 52.962 46.7064 52.4161 47.7351 50.3126C48.9826 47.762 49.8827 44.7921 50.1184 42.4482C50.2031 41.6066 50.2256 41.5618 50.9781 40.7418C54.0089 37.4392 56.0547 33.3078 56.8635 28.8568C57.1379 27.3467 57.2305 24.3182 57.0504 22.7501C56.4221 17.2833 54.0956 12.5512 50.0432 8.49808C45.3897 3.84346 39.0539 0.882707 32.1402 0.131957C31.0177 0.00995716 26.4645 -0.0230428 25.6041 0.0844572ZM26.6791 2.63521C20.9254 3.00146 15.318 5.13646 11.0397 8.58983C9.69149 9.67808 7.61536 11.8791 6.63961 13.2543C5.00311 15.5611 3.73636 18.4267 3.14061 21.1691C2.76811 22.8843 2.73199 27.102 3.07574 28.7501C3.63286 31.421 4.80174 34.231 6.29161 36.4813L6.97911 37.5198L7.05374 32.9162C7.13211 28.0835 7.15299 27.8875 7.80011 25.9206L8.05249 25.1536L7.61549 24.3581C7.03374 23.2991 6.54161 21.9672 6.54161 21.4516C6.54161 20.9225 6.92186 20.434 7.47636 20.251C8.05174 20.0611 8.69449 20.3555 8.96949 20.9348C9.07786 21.1635 9.16661 21.3858 9.16661 21.4292C9.16661 21.4726 9.25061 21.7092 9.35336 21.955L9.54011 22.402L10.1077 21.6467C11.3712 19.966 13.459 18.3303 15.6781 17.2826L16.8842 16.7132L16.5229 15.9161C16.0182 14.8035 15.6685 13.2381 15.6675 12.0882C15.6667 11.2241 15.7007 11.0796 15.9684 10.812C16.7881 9.99221 18.1601 10.4906 18.171 11.6121C18.1796 12.5086 18.5286 14.0145 18.929 14.8831C19.2726 15.6285 19.3792 15.7611 19.596 15.7122C19.738 15.6802 20.3885 15.5081 21.0416 15.3296C22.5012 14.9307 24.7202 14.5487 26.2604 14.4311L27.4166 14.3428V11.5993V8.85583L27.782 8.49046C28.4879 7.78458 29.6377 8.11346 29.9116 9.09946C29.9824 9.35421 30.0405 10.6387 30.0409 11.9541L30.0416 14.3455L31.1354 14.4335C32.6839 14.558 34.8697 14.9423 36.5041 15.3775C37.2741 15.5823 37.9267 15.7501 37.9544 15.7501C37.982 15.7501 38.1865 15.3553 38.4089 14.873C38.8052 14.0131 39.1536 12.5052 39.1622 11.6121C39.1731 10.4906 40.5451 9.99221 41.3649 10.812C41.6325 11.0796 41.6665 11.2241 41.6657 12.0882C41.6647 13.2381 41.315 14.8035 40.8104 15.9161L40.449 16.7132L41.6551 17.2826C43.8742 18.3303 45.962 19.966 47.2255 21.6467L47.7931 22.402L47.9799 21.955C48.0826 21.7092 48.1666 21.4726 48.1666 21.4292C48.1666 21.3858 48.2554 21.1635 48.3637 20.9348C48.6387 20.3555 49.2815 20.0611 49.8569 20.251C50.4114 20.434 50.7916 20.9225 50.7916 21.4516C50.7916 21.9672 50.2995 23.2991 49.7177 24.3581L49.2807 25.1536L49.5331 25.9206C50.1802 27.8875 50.2011 28.0835 50.2795 32.9162L50.3541 37.5198L51.0416 36.4813C52.5311 34.2315 53.685 31.4556 54.2552 28.7501C54.6015 27.107 54.5667 22.8913 54.1926 21.1691C53.3405 17.2461 51.4292 13.7073 48.5435 10.7096C46.2779 8.35608 44.1882 6.85096 41.1521 5.38558C36.6836 3.22896 31.8327 2.30708 26.6791 2.63521ZM27.532 20.8655C27.2455 21.1521 27.1666 21.3428 27.1666 21.7501C27.1666 22.1573 27.2455 22.3481 27.532 22.6347C27.8795 22.9822 27.9502 23.0001 28.9791 23.0001C30.008 23.0001 30.0787 22.9822 30.4262 22.6347C30.7127 22.3481 30.7916 22.1573 30.7916 21.7501C30.7916 21.3428 30.7127 21.1521 30.4262 20.8655C30.0787 20.518 30.008 20.5001 28.9791 20.5001C27.9502 20.5001 27.8795 20.518 27.532 20.8655ZM22.2916 21.2036C21.4066 21.4363 21.0416 21.8282 21.0416 22.546C21.0416 22.9133 21.1227 23.165 21.3036 23.3592C21.7531 23.8416 22.1107 23.9046 23.1227 23.6795C24.2045 23.4387 24.6666 23.0242 24.6666 22.2948C24.6666 21.7278 24.4944 21.4217 24.0441 21.1888C23.6037 20.9611 23.2007 20.9645 22.2916 21.2036ZM33.9612 21.2491C33.2551 21.534 33.0665 22.5883 33.6067 23.2305C34.0376 23.7425 35.5572 24.1275 36.1607 23.8776C36.918 23.5638 37.1486 22.545 36.6077 21.9022C36.1335 21.3386 34.6479 20.972 33.9612 21.2491ZM17.1666 22.9951C16.6264 23.1547 15.8646 23.5892 15.5901 23.8942C15.2272 24.2975 15.149 24.7158 15.3475 25.191C15.5621 25.7046 15.9869 26.0001 16.5105 26.0001C17.0189 26.0001 18.328 25.3563 18.5951 24.9751C19.2539 24.0345 18.2691 22.6693 17.1666 22.9951ZM39.5875 23.4716C39.2596 23.7372 39.0416 24.1472 39.0416 24.4981C39.0416 25.079 39.4015 25.479 40.3424 25.944C41.1874 26.3616 41.3072 26.3893 41.7027 26.2588C42.2772 26.0692 42.549 25.7477 42.6266 25.1661C42.7076 24.5585 42.4119 24.1587 41.4917 23.6323C40.7279 23.1953 40.004 23.1342 39.5875 23.4716ZM28.2291 25.3723C28.0916 25.4308 27.3335 26.1301 26.5445 26.9261C25.2159 28.2665 25.1097 28.409 25.1097 28.8528C25.1097 29.8896 26.0266 30.4692 26.9466 30.014L27.4166 29.7815V31.5878V33.3943L27.782 33.7597C28.4879 34.4656 29.6377 34.1367 29.9116 33.1507C29.9824 32.896 30.0405 32.0615 30.0409 31.2961L30.0416 29.9046L30.5007 30.0623C31.5452 30.4215 32.4964 29.583 32.2334 28.535C32.1282 28.1163 29.7856 25.7101 29.2232 25.4432C28.771 25.2286 28.5962 25.2161 28.2291 25.3723ZM17.6041 30.3682C17.1869 30.539 16.8991 30.9536 16.8275 31.4868C16.7665 31.9418 16.8042 32.0377 17.2006 32.4341C17.6169 32.8503 17.6882 32.8751 18.4729 32.8751C19.769 32.8751 20.2916 32.499 20.2916 31.5665C20.2916 30.992 20.0046 30.5552 19.5147 30.3845C19.0679 30.2287 17.968 30.2193 17.6041 30.3682ZM37.8401 30.3661C37.4399 30.5377 37.0416 31.1148 37.0416 31.5232C37.0416 32.0297 37.3367 32.5486 37.7256 32.7257C38.1759 32.9308 39.4795 32.9136 39.8985 32.697C40.6096 32.3292 40.7486 31.3607 40.1812 30.7257C39.8499 30.3548 39.7519 30.3196 38.9625 30.2876C38.4904 30.2685 37.9854 30.3038 37.8401 30.3661ZM12.9307 31.7542C12.0566 32.3875 11.9599 33.1987 12.6854 33.8092C13.1469 34.1975 13.7394 34.2206 14.4134 33.8767C15.0401 33.557 15.2916 33.1878 15.2916 32.5877C15.2916 32.2218 15.2037 32.018 14.9262 31.7405C14.4096 31.2238 13.6557 31.2291 12.9307 31.7542ZM22.3075 31.6371C21.4894 32.3993 21.7245 33.3396 22.8791 33.923C23.8729 34.4251 24.9166 33.9075 24.9166 32.9125C24.9166 32.3123 24.6651 31.9432 24.0384 31.6235C23.392 31.2937 22.67 31.2993 22.3075 31.6371ZM33.2429 31.6707C32.2662 32.2618 32.1434 33.2401 32.9625 33.9036C33.7717 34.5591 35.5416 33.6818 35.5416 32.6251C35.5416 32.2583 35.2104 31.6573 34.9235 31.5038C34.512 31.2836 33.7589 31.3583 33.2429 31.6707ZM42.6354 31.5101C42.3644 31.668 42.0416 32.274 42.0416 32.6251C42.0416 33.6818 43.8115 34.5591 44.6207 33.9036C45.4426 33.2378 45.3041 32.2092 44.3181 31.655C43.7929 31.3598 43.0092 31.2923 42.6354 31.5101ZM15.0862 36.3741C14.6842 36.5362 14.4166 36.9986 14.4166 37.5307C14.4166 38.2222 15.1684 38.9913 16.4669 39.6285C18.1454 40.4521 19.822 40.5311 21.589 39.87C22.9592 39.3573 24.1666 38.3065 24.1666 37.6266C24.1666 37.0965 23.9174 36.6318 23.5235 36.4282C22.9437 36.1283 22.5252 36.2102 21.7882 36.7672C21.412 37.0516 20.9354 37.3557 20.7291 37.4428C19.6439 37.9015 18.2246 37.7578 17.2244 37.0882C16.8952 36.8678 16.4804 36.5895 16.3025 36.4695C15.955 36.2351 15.5159 36.2007 15.0862 36.3741ZM33.6642 36.5938C32.8191 37.3557 33.108 38.2461 34.5116 39.2058C36.4697 40.5447 39.3174 40.6537 41.2916 39.4655C42.1361 38.9572 42.7797 38.3523 42.9162 37.9386C43.1772 37.1478 42.5472 36.2496 41.7325 36.2506C41.3681 36.251 41.1014 36.391 40.1745 37.068C39.5381 37.5327 38.5096 37.7955 37.6995 37.7002C36.9459 37.6117 36.2512 37.2961 35.4299 36.6692C34.7309 36.1357 34.1976 36.113 33.6642 36.5938ZM24.9775 45.225C24.1472 45.5121 23.471 45.9273 22.0459 47.0257C20.2694 48.3946 20.2337 48.83 21.7685 50.4083C24.234 52.944 27.3137 53.9625 30.5154 53.3011C32.4647 52.8985 33.9971 52.0206 35.5647 50.4083C37.1487 48.7795 37.0942 48.4107 35.038 46.8472C34.2494 46.2476 33.2666 45.6045 32.8541 45.4183C31.8782 44.9777 30.4077 44.876 29.3716 45.1771C28.7264 45.3647 28.6035 45.366 28.0166 45.1917C27.1629 44.9382 25.7625 44.9535 24.9775 45.225ZM25.3541 47.876C25.0791 48.0137 24.6334 48.3138 24.3635 48.5427L23.8729 48.959L24.551 49.4655C25.4265 50.1195 26.0634 50.4341 27.0046 50.678C29.0265 51.202 31.3845 50.6693 32.9697 49.3306L33.4604 48.9162L32.7822 48.4043C32.4092 48.1228 31.9457 47.8323 31.7522 47.7588C31.1747 47.5393 30.0876 47.5966 29.5416 47.8751C29.2721 48.0126 28.8784 48.1251 28.6666 48.1251C28.4549 48.1251 28.0611 48.0126 27.7916 47.8751C27.1332 47.5392 26.0251 47.5396 25.3541 47.876ZM41.4651 54.9928C40.6809 55.3238 40.4151 56.4438 40.9682 57.0868C41.2265 57.3871 41.3631 57.4376 41.9166 57.4376C42.4701 57.4376 42.6067 57.3871 42.865 57.0868C43.0731 56.8448 43.1666 56.584 43.1666 56.2451C43.1666 55.3711 42.22 54.6743 41.4651 54.9928Z" fill="#1A8281"/>
</svg>
