<svg width="64" height="64" viewBox="0 0 64 64" fill="none" xmlns="http://www.w3.org/2000/svg">
<path fill-rule="evenodd" clip-rule="evenodd" d="M18.5625 0.192039C10.9143 1.60329 4.89013 6.73741 3.611 12.9345C3.3115 14.3857 3.30588 16.4537 3.5975 17.8795L3.81575 18.9469L3.3465 19.567C1.9015 21.4772 1.24488 23.8648 1.51288 26.2349C1.57813 26.8112 1.84225 27.9362 2.09988 28.7349C2.55413 30.1432 2.56375 30.21 2.4135 30.9373C2.30025 31.4854 2.29138 31.9599 2.3805 32.6999C2.72913 35.595 4.09763 37.773 6.46338 39.1975C7.21775 39.6518 8.91288 40.2498 9.44638 40.2498C9.71613 40.2498 9.8335 40.4177 10.3805 41.5863C11.22 43.3795 12.4985 45.292 12.9954 45.4979C13.477 45.6974 14.0294 45.4967 14.2338 45.0479C14.4516 44.5698 14.421 44.4744 13.7098 43.4218C12.4799 41.6015 11.774 40.1289 11.2305 38.2498C11.0011 37.4563 9.78825 31.0332 9.49925 29.0808L9.354 28.0992L10.1914 26.6433C11.4096 24.5252 13.2076 21.845 14.3988 20.3715C16.0484 18.3307 16.125 18.2214 16.125 17.9093C16.125 17.4618 15.5935 16.9998 15.0788 16.9998C14.7036 16.9998 14.5564 17.1035 13.9696 17.781C12.1879 19.8387 10.0633 22.8804 8.5625 25.522L7.8125 26.8422L6.91663 26.9105C5.96788 26.983 5.09838 27.2998 4.41263 27.8228L3.999 28.1383L3.8835 27.8345C3.33375 26.3887 3.29413 24.462 3.78338 22.9643C4.1375 21.8802 4.871 20.6685 5.58863 19.9824C5.84925 19.7333 7.49688 18.4493 9.25 17.129C11.0031 15.8087 12.5079 14.6382 12.5938 14.5278C12.8705 14.1722 12.785 13.5455 12.4206 13.2589C11.8053 12.7748 11.624 12.8659 8.47988 15.2418L5.51288 17.4838L5.42875 16.9228C5.29963 16.0614 5.44813 13.526 5.67688 12.6873C6.65038 9.11791 9.82475 5.67691 13.9239 3.74791C16.5331 2.52004 18.7656 1.97929 21.3125 1.95816C22.7764 1.94604 24.3531 2.12954 24.7169 2.35429C24.8149 2.41491 24.8035 2.63416 24.677 3.12166C24.3348 4.44154 24.5096 5.65754 25.254 7.13254C25.447 7.51491 25.6421 8.02629 25.6876 8.26891C25.777 8.74541 25.564 9.74979 25.3736 9.74979C25.063 9.74979 22.1908 11.0894 21.0698 11.7572C19.4959 12.6948 17.7068 14.0089 17.4308 14.43C17.1866 14.8025 17.2624 15.2622 17.6281 15.6279C18.0361 16.0359 18.5045 15.9378 19.4056 15.2555C21.3045 13.8182 23.3088 12.6708 25.3086 11.8764L26.2441 11.5048L27.3408 11.8917C29.4413 12.6328 31.6811 13.923 33.5 15.4394C36.351 17.8163 39.445 21.7475 42.1556 26.4373L43.0949 28.0623L42.9784 28.9373C42.8361 30.0053 41.6831 36.3714 41.4259 37.5087C41.2448 38.3098 41.2313 38.3288 40.8795 38.2772C40.1395 38.1685 39.258 38.7127 38.7746 39.5763C38.6668 39.7692 38.5151 39.705 37.3893 38.9903C36.6939 38.5488 36.1254 38.1594 36.126 38.1249C36.1265 38.0905 36.3541 37.9325 36.6318 37.774C37.4128 37.3279 37.5723 36.4897 36.9579 36.0594C36.3545 35.6368 35.3541 36.022 34.3176 37.0764C33.4201 37.9893 32.6836 40.1052 32.9863 40.9012C33.3945 41.975 34.8711 41.713 34.8769 40.5657C34.8808 39.8064 35.01 39.8067 36.2005 40.5682C36.8121 40.9593 37.3595 41.3225 37.4169 41.3753C37.4744 41.428 37.3759 41.7443 37.1981 42.0782C36.7079 42.9993 36.7736 43.7668 37.4023 44.4578C37.6475 44.7273 37.6474 44.7297 37.366 45.1102C36.6093 46.1338 32.7666 49.2084 30.7359 50.415C28.1786 51.9348 26.4496 52.3125 24.6098 51.7538C22.8035 51.205 20.796 50.0035 18.1441 47.8837C17.2958 47.2055 16.6118 46.7498 16.4421 46.7498C16.2863 46.7498 16.0105 46.8664 15.8294 47.0089C15.5756 47.2084 15.5 47.3783 15.5 47.7483C15.5 48.2932 15.7889 48.5918 17.7811 50.106L18.8749 50.9373V52.2028C18.875 53.0239 18.8073 53.6603 18.6821 54.0149C18.47 54.6162 17.8864 55.292 17.326 55.5854C17.1271 55.6894 14.5919 56.1594 11.692 56.6299C5.29925 57.6669 4.65338 57.8729 2.76138 59.479C1.61813 60.4497 0.375 62.3353 0.375 63.0988C0.375 63.8502 1.46588 64.3057 1.96875 63.7643C2.089 63.6348 2.38438 63.1764 2.625 62.7455C3.40863 61.3425 4.87413 60.1359 6.48475 59.5677C6.76225 59.4698 9.31213 59.0165 12.1509 58.5604C17.9219 57.6334 18.3818 57.4997 19.4414 56.44C20.3198 55.5615 20.875 54.1278 20.875 52.7378V52.2599L22.1563 52.8797C25.1951 54.3497 27.256 54.3522 30.3178 52.8897L31.5946 52.2797L31.6558 53.2334C31.743 54.5965 32.1205 55.4872 32.9814 56.361C33.8788 57.2722 34.5359 57.5827 36.2033 57.8833C37.9834 58.2043 38.3155 58.1955 38.6931 57.8179C39.0755 57.4357 39.0848 56.9839 38.7188 56.5729C38.4805 56.3054 38.2091 56.2188 36.9448 56.0067C35.0818 55.694 34.4863 55.3699 33.9743 54.3898C33.6521 53.7732 33.625 53.6118 33.625 52.3132V50.905L34.5734 50.1913C35.9359 49.1658 37.9865 47.3739 38.7356 46.5543C39.0898 46.1668 39.4488 45.8772 39.5335 45.9107C39.668 45.9639 52.3763 54.0885 52.4755 54.1848C52.4964 54.205 52.3981 54.4108 52.2573 54.6419C51.9311 55.1769 51.9329 55.5057 52.2641 55.9269C52.487 56.2102 52.6093 56.2569 53.0454 56.225C53.5306 56.1897 53.5971 56.1357 54.125 55.3474C54.4535 54.8569 54.7548 54.5312 54.8491 54.5643C54.9814 54.6108 58.4683 56.8172 58.603 56.9398C58.6253 56.96 58.5549 57.1478 58.4468 57.3569C58.1839 57.8653 58.1989 58.151 58.5091 58.5454C58.8243 58.9462 59.5926 59.0069 59.9078 58.656C60.0158 58.5357 60.8964 57.2019 61.8646 55.692C63.7573 52.7404 63.8604 52.4738 63.3181 51.9317C62.8879 51.5014 62.4373 51.5375 61.932 52.0428L61.514 52.4608L59.6633 51.279C58.6454 50.629 57.7666 50.0548 57.7106 50.0029C57.6545 49.9509 57.8374 49.5547 58.1169 49.1223C58.709 48.206 58.7598 47.7482 58.3181 47.3067C57.8581 46.8465 57.4229 46.9063 56.8699 47.5053L56.4031 48.0109L54.155 46.5678C52.8255 45.7145 51.7795 45.1248 51.5953 45.1248C51.0986 45.1248 50.625 45.5752 50.625 46.0474C50.625 46.2699 50.6953 46.5434 50.7813 46.6552C50.8673 46.7669 51.9219 47.4872 53.125 48.2558C54.3281 49.0245 55.332 49.6712 55.3559 49.6928C55.403 49.7358 53.9276 52.0817 53.6816 52.355C53.5323 52.521 53.5046 52.5075 52.0161 51.5413C51.9905 51.5247 52.1171 51.2594 52.2974 50.9519C52.881 49.9559 52.6086 49.1248 51.6986 49.1248C51.2696 49.1248 51.0016 49.3465 50.4861 50.1279L50.2848 50.4332L49.5799 49.9653C49.1921 49.7078 48.875 49.4667 48.875 49.4294C48.875 49.392 49.0156 49.1545 49.1875 48.9017C49.776 48.0355 49.468 47.1248 48.5864 47.1248C48.1089 47.1248 47.902 47.2672 47.4974 47.8748C47.3371 48.1154 47.1886 48.3349 47.1674 48.3625C47.1195 48.4247 45.75 47.523 45.75 47.4294C45.75 47.392 45.8906 47.1545 46.0625 46.9017C46.651 46.0355 46.343 45.1248 45.4614 45.1248C44.9839 45.1248 44.777 45.2672 44.3724 45.8748C44.2121 46.1154 44.0644 46.334 44.0443 46.3607C44.024 46.3873 43.6443 46.1723 43.2003 45.883L42.393 45.3572L43.2724 43.9909C43.756 43.2395 44.1986 42.6248 44.2559 42.6248C44.3133 42.6248 45.0708 43.0842 45.9394 43.6457C47.7178 44.7952 48.0953 44.8923 48.5823 44.3262C49.2406 43.5608 48.999 43.2633 46.3315 41.556L44.0178 40.075L44.8546 39.7494C46.886 38.9592 48.5915 37.2719 49.4661 35.1873C50.0305 33.8424 50.278 31.743 49.9931 30.7173C49.878 30.3029 49.9241 30.0592 50.3839 28.6548C50.8295 27.293 50.9144 26.8612 50.9691 25.6744C51.0724 23.4385 50.5094 21.5332 49.2055 19.7059L48.655 18.9345L48.8265 18.1234C49.4234 15.2997 49.0285 12.2977 47.717 9.68729C46.6171 7.49829 44.3051 4.95654 42.059 3.46716C39.6611 1.87716 36.7499 0.709164 34.0215 0.242789C31.6215 -0.167461 28.4419 -0.0345858 26.8001 0.544664C26.3341 0.709039 26.2093 0.698664 25.1789 0.410539C24.222 0.142914 23.7411 0.0917891 21.8125 0.0529141C20.192 0.0201641 19.2828 0.0590391 18.5625 0.192039ZM29.3575 2.00916C28.8323 2.07366 28.0738 2.22666 27.6719 2.34891C26.9894 2.55679 26.9271 2.60816 26.7274 3.12929C26.3623 4.08216 26.4331 4.87529 27.0021 6.20729C27.6459 7.71391 27.7981 8.42216 27.6516 9.22804L27.5378 9.85504L28.3001 10.1287C29.5284 10.5695 32.0995 11.943 33.2785 12.7883C37.03 15.4779 40.5014 19.6185 43.8125 25.3535L44.6875 26.869L45.2681 26.8719C46.0565 26.8758 47.3486 27.2923 47.9711 27.7432L48.4834 28.1143L48.7105 27.4633C48.8851 26.9623 48.9373 26.4379 48.9363 25.1873C48.9348 23.3848 48.7655 22.7219 47.9703 21.4033C47.3108 20.3099 46.6188 19.6889 43.1486 17.0769C41.1189 15.5489 39.8153 14.4839 39.7433 14.2945C39.5704 13.84 39.8898 13.1573 40.3263 13.0477C40.5149 13.0003 40.8139 13.0179 40.9908 13.0868C41.1678 13.1557 42.5879 14.1753 44.1466 15.3525L46.9809 17.493L47.0699 16.6612C47.6244 11.4837 44.3601 6.52566 38.5705 3.75191C35.6036 2.33054 32.1141 1.67041 29.3575 2.00916ZM17.8109 23.5114C16.6583 23.5978 15.1 23.9217 14.1698 24.2682C13.6905 24.4468 13.4886 24.6004 13.376 24.8723C13.1789 25.3483 13.3519 25.8777 13.7841 26.1214C14.0639 26.2792 14.1965 26.2815 14.7115 26.1384C16.6755 25.5922 17.4841 25.4613 18.875 25.4645C20.2953 25.4678 20.824 25.5742 22.2033 26.1343C22.7323 26.349 23.2959 26.1175 23.5115 25.5969C23.8334 24.8199 23.0721 24.188 21.2925 23.755C20.1404 23.4747 19.1888 23.4082 17.8109 23.5114ZM31.1715 23.7398C29.8483 24.0977 29.0849 24.4975 28.9448 24.906C28.7865 25.3669 28.9791 25.8809 29.398 26.116C29.7063 26.289 29.8188 26.272 30.9589 25.8809C32.0739 25.4984 32.3205 25.4593 33.625 25.4583C34.839 25.4573 35.3193 25.5214 36.7139 25.8709C38.2958 26.2674 38.379 26.2759 38.6883 26.0733C39.324 25.6567 39.3413 24.8542 38.7233 24.4492C38.5649 24.3454 37.8451 24.1114 37.1239 23.9292C35.3099 23.4709 32.4966 23.3814 31.1715 23.7398ZM6.125 29.0738C5.55513 29.3203 4.91988 29.9359 4.589 30.5623C4.0835 31.5195 4.30538 33.5058 5.09113 35.0562C5.55988 35.9814 6.89375 37.2542 7.89288 37.7297C8.905 38.2113 9.18525 38.2383 9.077 37.8435C8.992 37.5342 7.5 29.1474 7.5 28.9793C7.5 28.808 6.59588 28.8702 6.125 29.0738ZM44.9454 29.2658C44.5534 31.5704 43.4675 37.5255 43.3821 37.8387L43.2729 38.24L43.8858 38.0072C46.5789 36.9839 48.2595 34.5065 48.1059 31.7868C48.066 31.0815 47.9819 30.7873 47.681 30.3007C47.2299 29.5709 46.361 28.9957 45.5763 28.9073C45.0226 28.8448 45.0164 28.8484 44.9454 29.2658ZM15.125 30.2134C14.4489 30.462 14.2644 31.3598 14.7881 31.8519C15.2301 32.2672 16.832 32.6248 18.25 32.6248C19.5146 32.6248 21.1553 32.2975 21.7088 31.9349C22.3094 31.5413 22.1845 30.6205 21.4846 30.284C21.2188 30.1562 21.0226 30.1738 20.3018 30.3905C19.1018 30.7513 17.3566 30.7519 16.25 30.3922C15.3736 30.1073 15.4018 30.1117 15.125 30.2134ZM30.8454 30.3204C30.2118 30.6642 30.2139 31.5283 30.8493 31.9554C32.1561 32.834 36.2165 32.8307 37.5608 31.9499C38.1663 31.5532 38.1268 30.6364 37.4901 30.3072C37.147 30.1298 37.0503 30.1289 36.5233 30.2989C34.9319 30.8123 33.5693 30.8314 32.0625 30.3618C31.1764 30.0855 31.2723 30.0888 30.8454 30.3204ZM23.0218 37.289C22.6793 37.6537 22.6655 38.2903 22.9931 38.6179C23.6284 39.2532 26.4834 39.5857 27.9893 39.1998C29.0568 38.9264 29.3925 38.7514 29.6164 38.352C29.8579 37.9212 29.6898 37.3933 29.2285 37.1344C28.9328 36.9684 28.7978 36.9723 27.9543 37.1712C26.8105 37.4408 25.407 37.4497 24.5625 37.1927C23.698 36.9297 23.3384 36.9522 23.0218 37.289ZM39.8673 41.5319C39.4246 42.2239 39.0194 42.862 38.9666 42.95C38.9008 43.06 39.1473 43.2888 39.7558 43.6824C40.2425 43.9973 40.6868 44.2263 40.7433 44.1915C40.7996 44.1567 41.227 43.53 41.6931 42.7989C42.3655 41.744 42.504 41.4477 42.364 41.3625C42.2669 41.3037 41.8465 41.0344 41.4298 40.7645L40.672 40.2737L39.8673 41.5319ZM21.3788 42.6597C21.209 42.7457 20.9859 42.9659 20.8829 43.1493C20.4483 43.9237 21.2253 44.6177 22.8359 44.8939C23.6034 45.0255 23.8559 45.0154 24.7658 44.8168C26.0739 44.5312 26.441 44.5304 27.6854 44.8105C28.5153 44.9973 28.8266 45.013 29.5338 44.9035C31.2004 44.6455 31.9929 43.9779 31.6015 43.1617C31.3188 42.5714 30.9029 42.4607 30.0594 42.7509C29.1464 43.0649 28.5388 43.0648 27.4375 42.7498C26.3856 42.449 25.9554 42.438 25.2345 42.6939C24.2708 43.0359 23.2818 43.0605 22.4419 42.7635C22.0318 42.6184 21.6943 42.5007 21.6919 42.5017C21.6895 42.5027 21.5486 42.5738 21.3788 42.6597ZM24.8294 46.8839C24.5019 47.1414 24.4031 47.6018 24.5776 48.0567C24.7203 48.4283 25.3215 48.6248 26.3159 48.6248C27.2029 48.6248 27.2946 48.5994 27.6346 48.2594C28.0855 47.8085 28.106 47.3444 27.6931 46.9317C27.4134 46.6518 27.2885 46.6248 26.2725 46.6248C25.335 46.6248 25.1066 46.6658 24.8294 46.8839ZM56.2058 52.1197C56.0239 52.3945 55.875 52.6682 55.875 52.7278C55.875 52.8357 59.5633 55.2498 59.7281 55.2498C59.7759 55.2498 59.8933 55.1233 59.989 54.9685C60.0849 54.8138 60.2413 54.567 60.3368 54.4202C60.5034 54.1637 60.4416 54.1093 58.7864 53.0555C57.8383 52.452 56.9441 51.882 56.7995 51.789C56.5569 51.633 56.5108 51.6588 56.2058 52.1197ZM41.6819 57.1817C41.3144 57.549 41.2804 58.1052 41.601 58.5012C41.7879 58.732 42.1236 58.8303 43.544 59.0702C44.4883 59.2298 45.5538 59.4462 45.9118 59.5512C47.4294 59.9964 49.154 61.427 49.9245 62.8798C50.4456 63.8627 50.594 63.9998 51.1353 63.9998C51.4959 63.9998 51.6679 63.9223 51.8659 63.6704C52.2044 63.2402 52.1929 63.0008 51.7956 62.2144C50.6391 59.9242 48.5721 58.2148 46.1875 57.5765C45.4338 57.3748 42.5923 56.8748 42.1991 56.8748C42.0834 56.8748 41.8506 57.0129 41.6819 57.1817Z" fill="#1A8281"/>
</svg>
