<svg width="38" height="38" viewBox="0 0 38 38" fill="none" xmlns="http://www.w3.org/2000/svg">
<path d="M7.68959 1C7.71423 2.41792 7.64153 3.80957 7.51339 5.22146C7.48657 5.53006 7.48657 5.53006 7.45921 5.84489C7.40256 6.49595 7.34481 7.1469 7.28684 7.79784C7.22897 8.45092 7.17136 9.10401 7.11447 9.75717C7.07921 10.1618 7.04339 10.5663 7.0069 10.9708C6.74203 12.7839 6.74203 12.7839 7.23099 14.4465C7.38648 14.6024 7.54197 14.7582 7.70218 14.9188C7.95255 15.1737 7.95255 15.1737 8.20798 15.4338C8.44978 15.671 8.44978 15.671 8.69647 15.913C8.81406 16.0363 8.93165 16.1596 9.05281 16.2866C10.0545 17.3238 11.1844 18.2071 12.3212 19.0944C12.5128 19.2472 12.7044 19.4 12.9018 19.5574C14.6226 20.8895 16.8832 22.5821 19.168 22.4747C23.5637 21.543 28.9236 17.8681 31.4519 14.1234C31.5106 13.5321 31.5106 13.5321 31.4976 12.851C31.4977 12.7229 31.4977 12.5948 31.4978 12.4629C31.4975 12.04 31.4944 11.6173 31.4912 11.1944C31.4905 10.9011 31.4899 10.6077 31.4895 10.3143C31.4879 9.5425 31.484 8.77073 31.4795 7.99895C31.4754 7.21125 31.4736 6.42355 31.4715 5.63584C31.4672 4.09055 31.4604 2.54528 31.4519 1C32.05 1.19685 32.6481 1.3937 33.2643 1.59652C33.2589 1.74712 33.2535 1.89772 33.248 2.05288C33.199 3.49124 33.1625 4.9292 33.1391 6.36817C33.1266 7.10755 33.1098 7.84625 33.082 8.58524C32.949 12.2145 33.1041 14.8857 35.4077 17.8902C36.1004 18.9275 36.3395 20.1687 36.5201 21.3819C36.5545 21.6111 36.5889 21.8404 36.6243 22.0766C36.6744 22.4275 36.6744 22.4275 36.7254 22.7854C36.7611 23.0201 36.7968 23.2547 36.8336 23.4965C37.5308 28.2469 35.9009 32.5182 34.4725 36.99C31.5455 37.0476 28.6444 36.8458 25.7258 36.6484C22.0125 36.3993 18.3644 36.332 14.6477 36.5202C12.4043 36.6279 10.1616 36.6139 7.91614 36.6048C7.48035 36.6038 7.04456 36.6029 6.60877 36.602C5.55941 36.5999 4.51006 36.5965 3.46071 36.5923C2.70775 34.4066 2.18662 32.28 1.93781 29.9809C1.88811 29.5433 1.83829 29.1058 1.78835 28.6683C1.76479 28.4585 1.74124 28.2488 1.71697 28.0327C1.64203 27.3918 1.554 26.7535 1.46289 26.1147C0.751935 21.0303 0.751935 21.0303 2.23265 18.9555C2.54544 18.5602 2.85846 18.1649 3.17168 17.7699C5.58901 14.6769 5.95838 12.0506 5.88656 8.22241C5.87218 7.34894 5.89846 6.47941 5.93464 5.60672C5.94043 5.4666 5.94622 5.32648 5.95218 5.18212C5.96367 4.90745 5.97525 4.63278 5.98694 4.35812C6.02669 3.37163 6.05148 2.38458 6.07859 1.39768C6.70046 1.0468 6.93104 1 7.68959 1ZM6.48134 1.79536C6.48134 4.22319 6.48134 6.65103 6.48134 9.15244C6.54779 9.15244 6.61425 9.15244 6.68272 9.15244C6.88208 6.65898 7.08144 4.16553 7.28684 1.59652C6.86908 1.56688 6.86908 1.56688 6.48134 1.79536ZM31.8546 1.59652C31.8607 1.8054 31.8668 2.01428 31.8731 2.2295C31.9417 4.60325 32.0027 6.97714 32.056 9.35128C32.0593 9.49571 32.0627 9.64015 32.0661 9.78897C32.0848 10.6207 32.0976 11.4523 32.1064 12.2842C32.1106 12.4859 32.1149 12.6876 32.1193 12.8954C32.1202 13.0782 32.1211 13.2609 32.1221 13.4492C32.124 13.605 32.1258 13.7608 32.1278 13.9213C32.038 14.4231 31.8427 14.5991 31.4519 14.9188C31.5183 15.05 31.5848 15.1813 31.6533 15.3165C32.3512 14.766 32.6391 14.4893 32.7514 13.5984C32.7423 13.2927 32.7282 12.9871 32.7105 12.6818C32.6996 12.3155 32.6903 11.9492 32.6822 11.5828C32.6771 11.3662 32.672 11.1497 32.6668 10.9266C32.6522 9.22052 32.7142 7.51472 32.7608 5.80944C32.7706 5.43357 32.7804 5.05771 32.7901 4.68184C32.8133 3.78594 32.8372 2.89007 32.8615 1.9942C32.3631 1.79735 32.3631 1.79735 31.8546 1.59652ZM6.27997 9.15244C6.27997 9.93984 6.27997 10.7272 6.27997 11.5385C6.34642 11.5385 6.41287 11.5385 6.48134 11.5385C6.48134 10.7511 6.48134 9.9637 6.48134 9.15244C6.41489 9.15244 6.34843 9.15244 6.27997 9.15244ZM6.07859 13.1292C5.9267 14.1193 5.9267 14.1193 5.87721 15.1176C6.14303 15.1176 6.40885 15.1176 6.68272 15.1176C6.68272 14.3998 6.48921 13.8136 6.27997 13.1292C6.21351 13.1292 6.14706 13.1292 6.07859 13.1292ZM5.27309 15.3165C5.47446 15.7142 5.47446 15.7142 5.47446 15.7142L5.27309 15.3165ZM32.2574 15.3165C32.0796 15.468 31.9018 15.6194 31.7185 15.7755C30.4321 16.8693 29.1428 17.9577 27.8216 19.0105C27.3613 19.3809 26.907 19.7558 26.4545 20.1352C24.9081 21.4206 23.4667 22.4992 21.5845 23.2701C21.5598 25.1359 21.5985 26.9915 21.686 28.8554C21.6955 29.0651 21.7051 29.2748 21.7149 29.4908C21.7382 30.0021 21.7619 30.5135 21.7859 31.0248C23.3036 31.1292 24.8214 31.233 26.3393 31.3359C27.0443 31.3838 27.7492 31.4318 28.4541 31.4804C29.2664 31.5363 30.0787 31.5913 30.891 31.6462C31.1416 31.6636 31.3921 31.681 31.6502 31.6989C32.9303 31.7847 34.1964 31.8392 35.4794 31.8202C35.6103 31.3813 35.7401 30.9422 35.8696 30.5029C35.942 30.2583 36.0144 30.0138 36.089 29.7619C36.5482 28.0611 36.5585 26.4077 36.4863 24.6619C36.479 24.4123 36.4717 24.1626 36.4642 23.9054C36.1573 20.8929 34.3244 18.0137 32.6601 15.5153C32.5272 15.4497 32.3943 15.3841 32.2574 15.3165ZM6.07859 15.5153C3.98479 17.6038 1.7127 20.6746 1.71126 23.7175C1.76461 25.313 2.03051 26.8982 2.30202 28.4694C2.47835 29.515 2.57047 30.5652 2.65521 31.6213C8.55252 31.5008 8.55252 31.5008 14.4483 31.3231C14.6607 31.3161 14.8731 31.309 15.092 31.3018C15.2827 31.2945 15.4734 31.2871 15.6699 31.2796C15.832 31.2736 15.9941 31.2675 16.1612 31.2613C16.5665 31.2452 16.5665 31.2452 16.9529 31.0248C17.0193 28.597 17.0858 26.1692 17.1542 23.6677C16.1574 23.1428 15.1606 22.6179 14.1336 22.077C13.5691 21.7425 13.0331 21.4169 12.4974 21.0455C12.3609 20.9514 12.2243 20.8573 12.0836 20.7603C10.5213 19.6309 9.1839 18.2543 7.84643 16.8791C7.67448 16.7028 7.50254 16.5265 7.32539 16.3448C7.17212 16.1851 7.01885 16.0253 6.86093 15.8608C6.51802 15.4704 6.51802 15.4704 6.07859 15.5153ZM33.4656 15.913C33.667 16.3107 33.667 16.3107 33.667 16.3107L33.4656 15.913ZM34.0698 16.9072C34.2711 17.3049 34.2711 17.3049 34.2711 17.3049L34.0698 16.9072ZM8.89784 17.106C9.21418 17.8905 9.72738 18.3377 10.3578 18.8956C10.5458 19.0637 10.7337 19.2319 10.9273 19.4051C11.5076 19.8831 12.0884 20.2841 12.724 20.6851C12.8569 20.6195 12.9898 20.5539 13.1267 20.4863C11.7459 19.3182 10.3706 18.1611 8.89784 17.106ZM34.2711 17.3049C34.4725 17.7026 34.4725 17.7026 34.4725 17.7026L34.2711 17.3049ZM34.4725 17.7026C34.6054 18.0306 34.7383 18.3587 34.8753 18.6968C34.9417 18.5655 35.0082 18.4343 35.0766 18.2991C34.8773 18.1022 34.6779 17.9054 34.4725 17.7026ZM35.0766 18.6968C35.278 19.0944 35.278 19.0944 35.278 19.0944L35.0766 18.6968ZM35.278 19.0944C35.4794 19.4921 35.4794 19.4921 35.4794 19.4921L35.278 19.0944ZM13.1267 20.6851C13.1932 20.8164 13.2596 20.9476 13.3281 21.0828C13.461 21.0172 13.5939 20.9516 13.7309 20.884C13.5315 20.8184 13.3321 20.7528 13.1267 20.6851ZM13.7309 21.0828C13.7973 21.2141 13.8638 21.3453 13.9322 21.4805C14.0651 21.4149 14.198 21.3493 14.335 21.2817C14.1356 21.2161 13.9363 21.1504 13.7309 21.0828ZM14.335 21.4805C14.4014 21.6117 14.4679 21.743 14.5364 21.8782C14.6693 21.8126 14.8022 21.747 14.9391 21.6793C14.7397 21.6137 14.5404 21.5481 14.335 21.4805ZM21.4358 22.3932C19.8653 23.0636 18.3852 23.0678 16.7892 22.4871C16.6093 22.4156 16.4295 22.3441 16.2441 22.2704C15.8097 22.1022 15.3938 21.9776 14.9391 21.8782C15.4085 22.3945 15.8857 22.6868 16.5123 22.9967C16.7635 23.1235 16.7635 23.1235 17.0197 23.253C18.5175 23.855 19.6962 23.5643 21.1817 23.0712C22.7042 22.5273 22.7042 22.5273 23.7996 21.4805C22.9701 21.4805 22.1713 22.0429 21.4358 22.3932ZM20.0018 23.7664C19.4937 23.8845 19.0349 23.8858 18.5135 23.879C18.3339 23.8772 18.1542 23.8754 17.9692 23.8736C17.8331 23.8713 17.6971 23.869 17.557 23.8666C17.4255 26.2557 17.3311 28.632 17.3556 31.0248C18.6847 31.0248 20.0138 31.0248 21.3831 31.0248C21.4661 27.3229 21.4661 27.3229 20.9804 23.6677C20.4089 23.6421 20.4089 23.6421 20.0018 23.7664ZM11.3163 31.699C10.3603 31.7356 9.40429 31.7712 8.44829 31.807C6.58435 31.8768 4.72046 31.9476 2.85658 32.019C2.88668 32.2675 2.91678 32.516 2.94778 32.7721C2.96471 32.9118 2.98164 33.0516 2.99908 33.1956C3.08163 33.7762 3.22257 34.3354 3.37261 34.9022C3.42686 35.1093 3.48112 35.3164 3.53701 35.5298C3.57829 35.6836 3.61956 35.8374 3.66209 35.9958C4.47837 36.188 5.24127 36.2203 6.07938 36.2211C6.2144 36.2213 6.34943 36.2216 6.48855 36.2219C6.92667 36.2222 7.36475 36.221 7.80287 36.2195C8.02908 36.2193 8.02908 36.2193 8.25987 36.219C9.93499 36.2167 11.6055 36.201 13.2778 36.0952C19.2646 35.7438 25.2354 36.0821 31.2091 36.5014C32.0978 36.5625 32.9768 36.6075 33.8684 36.5923C34.8312 34.4547 34.8312 34.4547 35.278 32.2179C33.8021 32.1124 32.326 32.0086 30.8498 31.9068C30.1638 31.8594 29.4779 31.8115 28.7921 31.7623C22.9296 31.344 17.1821 31.4736 11.3163 31.699Z" fill="black"/>
</svg>
