<svg width="38" height="38" viewBox="0 0 38 38" fill="none" xmlns="http://www.w3.org/2000/svg">
<path d="M8.27668 3.5C8.68571 3.5 9.09474 3.5 9.51617 3.5C9.74091 4.18635 9.72507 4.87974 9.7334 5.59326C9.73834 5.88372 9.74342 6.17418 9.74862 6.46463C9.75123 6.61854 9.75384 6.77246 9.75653 6.93103C9.77593 7.92866 9.80774 8.92598 9.83803 9.92333C9.86382 10.7945 9.88487 11.6653 9.8949 12.5368C9.94653 16.671 10.0095 19.8271 12.897 23.0489C13.4086 23.6408 13.8174 24.2874 14.2306 24.9481C14.3815 25.1804 14.5327 25.4125 14.6844 25.6443C14.8505 25.9005 15.0165 26.1567 15.1824 26.413C15.2881 26.5761 15.3937 26.7393 15.5026 26.9074C15.8463 27.4383 16.1895 27.9696 16.5325 28.5009C16.6418 28.67 16.751 28.8392 16.8636 29.0134C16.9648 29.1706 17.066 29.3277 17.1703 29.4896C17.2608 29.63 17.3513 29.7705 17.4446 29.9152C17.6613 30.2609 17.6613 30.2609 17.8384 30.6107C18.2859 30.7254 18.2859 30.7254 18.7238 30.7857C18.7697 30.634 18.8156 30.4824 18.863 30.3262C19.0815 29.7265 19.349 29.2356 19.6838 28.6915C19.7434 28.5942 19.803 28.497 19.8644 28.3967C20.0585 28.0809 20.2542 27.7661 20.4502 27.4515C20.5171 27.3433 20.584 27.2351 20.653 27.1237C21.7217 25.3965 22.8264 23.6956 23.975 22.0191C24.1049 21.8254 24.1049 21.8254 24.2374 21.6279C24.567 21.1657 24.567 21.1657 24.9628 20.708C26.3411 19.0181 26.421 17.5087 26.465 15.3917C26.4775 15.0585 26.4907 14.7254 26.5045 14.3922C26.539 13.5227 26.5646 12.6531 26.5881 11.7832C26.6185 10.7214 26.6593 9.65983 26.6986 8.59824C26.7289 7.77373 26.7576 6.94925 26.7818 6.12453C26.7864 5.97386 26.7911 5.82318 26.7959 5.66794C26.8045 5.3862 26.8124 5.10445 26.8197 4.82267C26.8491 3.88904 26.8491 3.88904 27.046 3.5C27.455 3.5 27.8641 3.5 28.2855 3.5C28.2958 3.65608 28.3061 3.81216 28.3167 3.97296C28.4145 5.44996 28.5133 6.92687 28.6135 8.40371C28.6649 9.16281 28.7159 9.92194 28.7659 10.6811C28.8142 11.415 28.8637 12.1487 28.914 12.8824C28.9329 13.1612 28.9514 13.4399 28.9694 13.7187C29.1449 16.7491 29.1449 16.7491 30.3882 19.4713C30.5655 19.747 30.7423 20.0231 30.9187 20.2994C31.0102 20.4415 31.1017 20.5837 31.196 20.7302C33.2798 24.0097 35.143 27.4891 36.475 31.1355C36.5259 31.2722 36.5769 31.409 36.6294 31.5499C36.9439 32.462 37.0702 33.32 36.9619 34.2838C36.6516 34.5903 36.2447 34.4806 35.8313 34.4821C35.6934 34.4817 35.5556 34.4813 35.4136 34.4809C35.2682 34.4812 35.1228 34.4815 34.9731 34.4818C34.4822 34.4825 33.9913 34.4819 33.5004 34.4814C33.15 34.4816 32.7996 34.4819 32.4492 34.4823C31.4948 34.4831 30.5403 34.4828 29.5859 34.4822C28.5894 34.4818 27.5929 34.4822 26.5964 34.4825C24.9226 34.4828 23.2489 34.4824 21.5751 34.4815C19.637 34.4806 17.6989 34.4809 15.7608 34.4818C14.1 34.4826 12.4393 34.4828 10.7785 34.4823C9.78517 34.482 8.79185 34.482 7.79852 34.4826C6.86489 34.4831 5.93126 34.4827 4.99763 34.4817C4.65392 34.4815 4.31021 34.4815 3.9665 34.4819C3.49939 34.4824 3.0323 34.4818 2.56519 34.4809C2.42734 34.4813 2.2895 34.4817 2.14747 34.4821C1.21413 34.4787 1.21413 34.4787 1.01685 34.2838C0.933704 33.1353 1.16636 32.2293 1.53699 31.1464C1.59264 30.9802 1.64829 30.814 1.70563 30.6428C1.88675 30.1065 2.07156 29.5716 2.25633 29.0366C2.31602 28.8592 2.37571 28.6817 2.43721 28.499C3.38424 25.6903 4.57227 23.0802 5.97478 20.4661C6.09714 20.2369 6.09714 20.2369 6.22197 20.0031C6.81377 18.8953 6.81377 18.8953 7.09426 18.3822C7.5532 17.5407 7.76687 16.9262 7.79528 15.9733C7.80178 15.7688 7.80829 15.5643 7.81499 15.3535C7.82127 15.1316 7.82754 14.9098 7.83401 14.6811C7.845 14.3303 7.856 13.9796 7.86702 13.6288C7.88232 13.1356 7.8969 12.6423 7.91148 12.1491C7.94367 11.0618 7.97701 9.97454 8.01108 8.8873C8.01826 8.65775 8.02543 8.4282 8.03282 8.19169C8.08383 6.62523 8.15562 5.06279 8.27668 3.5ZM8.63082 3.84982C8.57931 5.12444 8.52903 6.3991 8.47952 7.67379C8.46261 8.10561 8.44544 8.53741 8.42799 8.96921C8.318 11.6954 8.25123 14.4144 8.27668 17.1428C8.39355 17.1428 8.51041 17.1428 8.63082 17.1428C8.81036 15.1832 8.89083 13.2201 8.97255 11.2546C8.99593 10.6955 9.02032 10.1364 9.04479 9.57737C9.12639 7.66691 9.18825 5.76212 9.16203 3.84982C8.98673 3.84982 8.81143 3.84982 8.63082 3.84982ZM27.4002 3.84982C27.3728 5.48358 27.454 7.09034 27.5938 8.71786C27.6138 8.95774 27.6336 9.19762 27.6534 9.43751C27.7049 10.0607 27.7576 10.6837 27.8106 11.3068C27.8647 11.9458 27.9177 12.585 27.9708 13.2241C28.0747 14.4722 28.1797 15.7201 28.2855 16.9679C28.4024 16.9679 28.5192 16.9679 28.6396 16.9679C28.6613 15.3507 28.5975 13.7513 28.4847 12.1381C28.4688 11.9022 28.4529 11.6662 28.4371 11.4303C28.3958 10.8175 28.3537 10.2048 28.3113 9.59206C28.268 8.96352 28.2256 8.33493 28.1831 7.70633C28.1001 6.47907 28.016 5.25188 27.9314 4.02472C27.7561 3.967 27.5808 3.90928 27.4002 3.84982ZM27.046 8.39743C26.995 9.4799 26.9445 10.5624 26.8947 11.6449C26.8777 12.0123 26.8605 12.3798 26.8432 12.7472C26.7049 15.5559 26.7049 15.5559 26.6919 18.3672C26.8672 18.2806 26.8672 18.2806 27.046 18.1923C27.0972 17.2593 27.1476 16.3262 27.1973 15.3932C27.2143 15.0766 27.2315 14.7601 27.2489 14.4436C27.5123 11.4046 27.5123 11.4046 27.2231 8.39743C27.1647 8.39743 27.1062 8.39743 27.046 8.39743ZM9.3391 9.44687C9.33469 10.3863 9.33149 11.3258 9.32937 12.2652C9.32849 12.5841 9.32728 12.903 9.32574 13.2219C9.32357 13.683 9.32258 14.1442 9.32181 14.6053C9.32089 14.7455 9.31998 14.8857 9.31904 15.0301C9.31863 16.5321 9.31863 16.5321 9.51617 18.0174C9.63303 18.1328 9.7499 18.2482 9.87031 18.3672C9.75344 15.4235 9.63657 12.4798 9.51617 9.44687C9.45773 9.44687 9.3993 9.44687 9.3391 9.44687ZM27.5772 13.8196C27.4896 15.6377 27.4896 15.6377 27.4002 17.4926C27.5755 17.3772 27.7508 17.2618 27.9314 17.1428C27.9885 16.7868 27.9885 16.7868 27.9445 16.3817C27.9348 16.2329 27.9251 16.0841 27.9151 15.9308C27.9022 15.7752 27.8893 15.6196 27.876 15.4593C27.8598 15.224 27.8598 15.224 27.8432 14.9838C27.816 14.5955 27.7863 14.2075 27.7543 13.8196C27.6959 13.8196 27.6374 13.8196 27.5772 13.8196ZM27.9832 17.5897C24.5917 21.2816 22.0854 25.7313 19.5198 29.9962C19.3354 30.3024 19.1469 30.6061 18.9553 30.9079C18.6946 31.2839 18.6946 31.2839 18.7238 31.6602C22.9591 32.2459 22.9591 32.2459 27.2231 32.5347C27.8287 30.0245 27.8287 30.0245 28.1084 27.4624C28.2253 27.4624 28.3422 27.4624 28.4626 27.4624C28.3821 27.9836 28.3008 28.5046 28.2191 29.0256C28.1967 29.171 28.1744 29.3163 28.1513 29.466C27.9977 30.4412 27.8031 31.3984 27.5772 32.3598C29.5639 32.3796 31.5457 32.3581 33.5312 32.2833C33.7253 32.2764 33.9194 32.2696 34.1194 32.2625C34.3001 32.2552 34.4808 32.2478 34.6669 32.2403C34.828 32.2339 34.989 32.2274 35.155 32.2208C35.5526 32.2077 35.5526 32.2077 35.8995 32.01C35.4285 27.3063 31.9449 22.6244 29.4074 18.7423C29.1159 18.2801 28.8696 17.8122 28.6396 17.3177C28.261 17.2785 28.261 17.2785 27.9832 17.5897ZM8.09961 17.4926C7.59063 18.4552 7.08389 19.4189 6.57901 20.3836C6.40771 20.7102 6.23584 21.0365 6.06336 21.3625C4.94897 23.4698 3.95483 25.5738 3.14168 27.8122C3.07113 28.003 3.00059 28.1938 2.92791 28.3903C2.75758 28.8592 2.59398 29.3296 2.4334 29.8018C2.37839 29.9569 2.32338 30.112 2.26671 30.2719C2.19036 30.4958 2.19036 30.4958 2.11246 30.7242C2.0675 30.8543 2.02253 30.9845 1.9762 31.1186C1.89261 31.5328 1.94569 31.7879 2.07926 32.1849C4.38089 32.389 6.67577 32.3782 8.98496 32.3598C8.78609 31.7949 8.58676 31.2301 8.38735 30.6654C8.3312 30.5059 8.27505 30.3464 8.2172 30.182C8.16242 30.027 8.10764 29.872 8.0512 29.7123C8.00112 29.5703 7.95105 29.4283 7.89946 29.2821C7.73982 28.8462 7.56793 28.4165 7.39134 27.9871C7.88557 28.4072 8.06896 28.8016 8.28429 29.4048C8.34649 29.5768 8.40869 29.7487 8.47277 29.9258C8.53589 30.1049 8.599 30.2841 8.66402 30.4686C8.72919 30.6498 8.79435 30.831 8.8615 31.0176C9.02205 31.4646 9.18119 31.912 9.3391 32.3598C11.3077 32.4179 13.2261 32.3603 15.1824 32.1193C15.3651 32.0973 15.5478 32.0752 15.7361 32.0525C16.8301 31.9086 16.8301 31.9086 17.8384 31.4853C16.5657 29.3993 15.2515 27.3449 13.8998 25.3081C13.4612 24.6463 13.025 23.983 12.5886 23.3198C12.2538 22.8117 11.9178 22.3043 11.5815 21.797C11.1566 21.156 10.7355 20.5128 10.3171 19.8676C10.1277 19.5788 9.93815 19.29 9.74857 19.0012C9.66342 18.8681 9.57827 18.7349 9.49053 18.5977C9.41066 18.477 9.33078 18.3563 9.24849 18.2319C9.18008 18.1265 9.11168 18.0211 9.0412 17.9126C8.74762 17.6043 8.51112 17.5801 8.09961 17.4926ZM16.4426 32.1631C16.2069 32.1952 15.9712 32.2272 15.7354 32.2589C15.6128 32.2755 15.4902 32.2921 15.3639 32.3092C11.6694 32.8008 8.02342 32.8367 4.30369 32.5737C3.38469 32.5169 2.46838 32.519 1.54806 32.5347C1.51519 32.762 1.48232 32.9893 1.44845 33.2234C1.42997 33.3513 1.41148 33.4791 1.39243 33.6108C1.38535 33.7175 1.37828 33.8241 1.37099 33.934C1.6781 34.2374 2.07455 34.1303 2.4839 34.1315C2.61911 34.131 2.75432 34.1305 2.89363 34.1299C3.03622 34.1301 3.17882 34.1302 3.32574 34.1304C3.80725 34.1307 4.28876 34.1297 4.77027 34.1288C5.11397 34.1287 5.45766 34.1287 5.80135 34.1288C6.73751 34.1289 7.67367 34.1279 8.60983 34.1266C9.58702 34.1256 10.5642 34.1254 11.5414 34.1252C13.3932 34.1247 15.2451 34.1233 17.0969 34.1215C19.2046 34.1196 21.3123 34.1186 23.4199 34.1177C27.7568 34.1159 32.0938 34.1128 36.4307 34.1089C36.606 33.3882 36.585 33.0337 36.2536 32.3598C36.0604 32.3704 35.8672 32.381 35.6681 32.3919C33.5029 32.5096 31.3373 32.6159 29.1708 32.7096C28.9612 32.7188 28.7515 32.728 28.5355 32.7375C25.9974 32.8343 23.5201 32.5721 21.0057 32.259C20.8758 32.2429 20.7459 32.2268 20.612 32.2103C20.2565 32.1658 19.9012 32.1201 19.5458 32.0742C18.4839 31.9685 17.4972 32.0127 16.4426 32.1631Z" fill="black"/>
</svg>
