<svg width="48" height="48" viewBox="0 0 48 48" fill="none" xmlns="http://www.w3.org/2000/svg">
<path fill-rule="evenodd" clip-rule="evenodd" d="M14.8745 0.147125C7.16944 1.34563 1.31897 6.32984 0.136219 12.7032C0.0111562 13.3769 -0.0115312 13.9246 0.0237187 15.4219C0.0638437 17.1254 0.09375 17.3955 0.350719 18.375C1.00125 20.8551 2.07028 23.1057 3.57469 25.1621C4.01072 25.758 4.14563 26.0319 4.26759 26.5678C4.49344 27.5612 5.18334 29.566 5.74959 30.8745C6.67416 33.0114 7.52213 34.2477 9.243 35.9683L10.3833 37.1082L10.2096 39.3433C10.1139 40.5724 10.0347 41.7091 10.0335 41.8693C10.0312 42.1578 10.0245 42.1618 9.25781 42.3241C7.89572 42.6124 4.68347 43.392 3.28125 43.7746C0.173344 44.6226 0 44.7041 0 45.3177C0 45.693 0.206813 45.9923 0.5205 46.071C0.683344 46.1119 1.29872 45.9771 2.37431 45.6652C4.3875 45.0812 7.24837 44.3658 9.32812 43.9262C11.0817 43.5556 11.2778 43.4851 11.4197 43.1735C11.4729 43.0568 11.5851 42.0173 11.6689 40.8635C11.7528 39.7097 11.8418 38.632 11.8667 38.4685L11.9119 38.1714L12.5107 38.5351C13.3047 39.0176 14.7111 39.6122 15.5197 39.8075C16.3881 40.0172 17.8503 40.0129 18.7031 39.798C19.6499 39.5596 20.8444 39.0644 21.755 38.533C22.5081 38.0934 22.5481 38.0809 22.5716 38.2776C22.5852 38.3913 22.6752 39.533 22.7717 40.8147C22.9267 42.8754 22.9684 43.1664 23.1327 43.3307C23.2694 43.4673 23.9612 43.6612 25.7453 44.0628C27.0799 44.3633 28.6418 44.726 29.2163 44.8689C30.2227 45.1193 30.2698 45.1228 30.5095 44.9657C30.9613 44.6698 31.0313 44.0739 30.6545 43.7328C30.4624 43.559 29.2974 43.2467 26.4375 42.6027C25.3805 42.3646 24.4998 42.1544 24.4805 42.1357C24.4612 42.1169 24.3591 40.9432 24.2536 39.5273L24.0618 36.9529L24.6169 36.4554C25.4213 35.7342 26.0622 35.0476 26.162 34.8002C26.3456 34.3446 25.8818 33.75 25.3425 33.75C25.2626 33.75 24.8752 34.0597 24.4814 34.4382C21.9968 36.8271 19.5369 38.2142 17.457 38.3991C14.9577 38.6214 10.9581 36.1646 8.73206 33.0399C8.04609 32.077 7.12275 30.2297 6.57722 28.7289C6.17372 27.6188 5.6025 25.5938 5.69287 25.5938C5.72297 25.5938 7.05947 25.8023 8.66288 26.0572C12.5622 26.677 12.3609 26.6545 12.9802 26.54C14.3098 26.2942 15.1647 25.622 15.9264 24.2233C16.5234 23.1272 17.03 22.4063 17.2031 22.4063C17.3749 22.4063 17.8896 23.1335 18.4305 24.1407C18.998 25.1973 19.5486 25.7949 20.2913 26.1606C21.4086 26.7106 21.6519 26.7085 25.3976 26.1166C27.2233 25.8282 28.7315 25.6065 28.7491 25.6241C28.7666 25.6416 28.655 26.1047 28.501 26.6531C28.1968 27.7363 28.2131 27.9792 28.6087 28.2562C28.7265 28.3388 28.9355 28.4063 29.073 28.4063C29.5454 28.4063 29.7188 28.1457 30.0485 26.9412C30.317 25.9601 30.4199 25.7298 30.8424 25.1648C31.5392 24.2331 32.1841 23.1351 32.8074 21.8192C33.7344 19.8625 34.2257 18.1402 34.4224 16.1577C34.9903 10.432 31.451 4.81766 25.4797 1.97281C23.5964 1.07544 21.5496 0.453313 19.4531 0.140844C18.298 -0.031281 16.0012 -0.0281872 14.8745 0.147125ZM15.8438 1.59697C11.0051 2.18553 6.83953 4.32237 4.24988 7.54437C3.02494 9.06847 2.27981 10.5369 1.81584 12.3409C1.58372 13.2437 1.55353 13.5298 1.55044 14.8594C1.54772 15.9807 1.59337 16.5961 1.73091 17.2969L1.91494 18.2344L1.98937 17.0625C2.12934 14.8614 2.57728 13.1846 3.51262 11.3602C4.31578 9.79353 6.09319 7.55975 6.60206 7.47725C7.14169 7.38978 7.67587 7.91 7.55231 8.40247C7.52109 8.52678 7.18472 8.96609 6.80475 9.37869C5.40506 10.8988 4.40475 12.7124 3.93056 14.5903C3.60019 15.8983 3.58097 16.2782 3.88181 15.5546C4.70297 13.5791 6.50888 12.219 8.55797 12.0331C9.10284 11.9836 9.33159 11.9099 9.73406 11.6541C10.7295 11.0215 12.3613 10.2134 13.8292 9.62638C17.8589 8.01481 21.7918 7.34506 25.0169 7.72128L25.9869 7.83444L25.72 7.61506C25.2204 7.20434 23.7682 6.39453 22.8404 6.00913C18.8311 4.34375 14.5888 4.50416 10.6378 6.47047C9.91434 6.83047 9.20766 7.12503 9.0675 7.12503C8.55544 7.12503 8.22028 6.51078 8.46947 6.02891C8.72841 5.52819 10.9479 4.45344 12.8685 3.89881C14.4598 3.43934 15.2843 3.33472 17.2969 3.33669C18.9653 3.33838 19.3015 3.36603 20.3492 3.58813C23.8823 4.33681 26.9305 6.08262 29.0191 8.55359C31.2277 11.1665 32.2806 13.7654 32.4284 16.9688L32.4868 18.2344L32.6563 17.3907C32.9051 16.1524 32.9559 14.4092 32.7772 13.2431C32.0695 8.62363 28.2613 4.47941 23.029 2.63469C20.6119 1.7825 17.7345 1.36691 15.8438 1.59697ZM21.0234 9.29628C20.6496 9.34934 20.3438 9.42266 20.3438 9.45922C20.3438 9.49578 20.6918 9.66669 21.1172 9.83919C22.1204 10.2458 23.4753 10.9273 24.4365 11.5089C25.0962 11.908 25.292 11.9799 25.8629 12.0329C28.0753 12.2386 30.0833 13.9183 30.7061 16.0845L30.8391 16.5469L30.7874 16.0313C30.5992 14.1528 29.7787 12.1311 28.5102 10.4201C28.1045 9.87275 27.9783 9.76541 27.68 9.71375C24.9656 9.2435 22.4892 9.08825 21.0234 9.29628ZM15.75 10.5825C14.6489 10.9715 13.1436 11.5752 13.0558 11.663C13.0397 11.6791 14.906 11.6923 17.2031 11.6923C19.5003 11.6923 21.3671 11.6796 21.3516 11.6641C21.1622 11.4747 17.4676 10.1201 17.1682 10.1302C17.0842 10.133 16.4461 10.3365 15.75 10.5825ZM13.0781 13.3208C10.1684 13.4405 8.45897 13.5932 7.82044 13.7905C6.53034 14.1889 5.45934 15.3889 5.16788 16.7624C5.10225 17.0718 5.0625 18.4042 5.0625 20.2943V23.3294L5.30381 23.6161C5.43647 23.7738 5.70019 23.9457 5.88975 23.9978C6.71578 24.2253 12.3346 25.0467 12.6833 24.991C13.5208 24.857 14.1214 24.3426 14.6381 23.3163C15.1972 22.2062 15.9735 21.2323 16.5338 20.9378C16.8779 20.7571 17.5283 20.7571 17.8724 20.9378C18.4399 21.2359 19.214 22.2212 19.8151 23.4106C20.2972 24.3645 20.9435 24.8863 21.7732 24.9916C22.0284 25.0241 23.3331 24.8566 25.4007 24.5261C28.782 23.9855 28.966 23.9327 29.2252 23.4285C29.3783 23.1304 29.3908 17.484 29.2398 16.7624C28.9552 15.4022 27.868 14.1865 26.5805 13.7889C25.1855 13.3579 18.1226 13.1131 13.0781 13.3208ZM9.14175 17.2138C8.38969 17.3956 7.26966 17.9593 6.98259 18.3005C6.52106 18.8489 6.81984 19.5938 7.50131 19.5938C7.70072 19.5938 7.89 19.5516 7.92188 19.5C8.01478 19.3497 8.15616 19.3918 8.15719 19.5703C8.15906 19.9065 8.61047 20.6847 9.02381 21.0641C9.74709 21.7281 10.7202 21.9105 11.6613 21.5584C12.4922 21.2475 13.3039 20.2921 13.3104 19.6172C13.3126 19.3998 13.4445 19.3345 13.5469 19.5C13.5787 19.5516 13.7637 19.5938 13.958 19.5938C14.4187 19.5938 14.7188 19.2902 14.7188 18.824C14.7188 18.4293 14.3526 18.0565 13.5813 17.6656C12.4495 17.0921 10.4761 16.8913 9.14175 17.2138ZM22.5 17.1221C21.6203 17.2889 20.177 17.9655 19.8711 18.3545C19.3406 19.0288 20.1346 19.913 20.9018 19.5024C21.0501 19.4231 21.0864 19.4655 21.1763 19.8223C21.4773 21.0179 22.8469 21.9027 24.1042 21.7137C25.0447 21.5723 26.0003 20.7083 26.2526 19.7714C26.3391 19.4504 26.3741 19.4159 26.529 19.4988C27.2004 19.8582 27.9145 19.2284 27.6224 18.5346C27.5345 18.3258 27.3134 18.1266 26.8964 17.8804C25.9302 17.3098 25.2555 17.1346 23.9062 17.1042C23.2617 17.0895 22.6289 17.0976 22.5 17.1221ZM10.2017 18.6358C9.8055 18.6631 9.75703 18.692 9.70416 18.9327C9.52163 19.7637 10.4645 20.4219 11.2531 20.0141C11.681 19.7928 11.9539 19.1065 11.7408 18.7875C11.6625 18.6704 10.8555 18.5908 10.2017 18.6358ZM23.1797 18.6377L22.6875 18.6661V19.0924C22.6875 19.4523 22.7372 19.5685 23.0062 19.8375C23.6552 20.4865 24.6194 20.1252 24.7243 19.1939C24.7611 18.8686 24.7402 18.7426 24.6448 18.7122C24.4322 18.6445 23.7048 18.6075 23.1797 18.6377ZM42.2183 19.336C42.114 19.452 41.8467 20.011 41.6242 20.5782C40.9593 22.2732 40.6126 22.6201 38.948 23.2568C37.7296 23.7227 37.5 23.9 37.5 24.375C37.5 24.8501 37.7296 25.0273 38.948 25.4933C40.6126 26.1299 40.9593 26.4769 41.6242 28.1719C42.1074 29.4038 42.2789 29.625 42.75 29.625C43.2211 29.625 43.3926 29.4038 43.8758 28.1719C44.5407 26.4769 44.8874 26.1299 46.552 25.4933C47.7704 25.0273 48 24.8501 48 24.375C48 23.9 47.7704 23.7227 46.552 23.2568C44.8874 22.6201 44.5407 22.2732 43.8758 20.5782C43.3926 19.3463 43.2211 19.125 42.75 19.125C42.5137 19.125 42.349 19.1903 42.2183 19.336ZM42.5414 22.4387C42.3163 22.9107 41.4073 23.8465 40.9257 24.1019C40.6916 24.2262 40.5 24.3491 40.5 24.375C40.5 24.401 40.6916 24.5239 40.9257 24.6481C41.4073 24.9036 42.3163 25.8393 42.5414 26.3113C42.6236 26.4838 42.7176 26.625 42.75 26.625C42.7824 26.625 42.8764 26.4838 42.9586 26.3113C43.1837 25.8393 44.0927 24.9036 44.5743 24.6481C44.8084 24.5239 45 24.401 45 24.375C45 24.3491 44.8084 24.2262 44.5743 24.1019C44.0927 23.8465 43.1837 22.9107 42.9586 22.4387C42.8764 22.2662 42.7824 22.125 42.75 22.125C42.7176 22.125 42.6236 22.2662 42.5414 22.4387ZM35.4104 25.4782C35.3279 25.5693 35.1067 26.0112 34.9187 26.4602C34.5081 27.4413 34.2216 27.7216 33.2686 28.0755C32.5026 28.36 32.1562 28.6624 32.1562 29.0469C32.1562 29.4644 32.3893 29.6783 33.2008 30.0054C34.2548 30.4303 34.5087 30.6785 34.931 31.6971C35.3065 32.6032 35.4992 32.8125 35.9576 32.8125C36.3551 32.8125 36.5826 32.5405 36.9372 31.6407C37.0998 31.2282 37.3406 30.7772 37.4723 30.6385C37.604 30.4998 38.0543 30.2505 38.473 30.0846C39.6106 29.6338 39.8662 29.3347 39.6193 28.7437C39.505 28.4702 39.3835 28.3927 38.586 28.0836C37.5194 27.6703 37.3403 27.487 36.8767 26.3335C36.7028 25.9009 36.4896 25.4942 36.4029 25.4297C36.1684 25.2552 35.5864 25.2837 35.4104 25.4782ZM15.0023 26.3414C14.575 26.7687 14.6844 27.307 15.2876 27.7438C15.8336 28.1394 16.6054 28.4063 17.2031 28.4063C18.1055 28.4063 19.3917 27.7658 19.6025 27.2115C19.904 26.4185 18.9687 25.8266 18.3015 26.388C17.9564 26.6784 17.6093 26.8125 17.2031 26.8125C16.7969 26.8125 16.4498 26.6784 16.1047 26.388C15.7626 26.1001 15.2647 26.079 15.0023 26.3414ZM35.4268 28.6063L34.9943 29.0612L35.4548 29.5217L35.9152 29.9822L36.3742 29.5232L36.8332 29.0642L36.3758 28.5946C36.1242 28.3363 35.9051 28.131 35.8889 28.1382C35.8727 28.1456 35.6647 28.3562 35.4268 28.6063ZM26.1925 29.9426C25.5907 30.5443 25.5 30.6789 25.5 30.9692C25.5 31.2489 25.9559 32.0022 28.2981 35.5935L31.0961 39.8837L31.008 40.2622C30.8928 40.7568 30.9783 41.8345 31.1781 42.4079C31.3414 42.8765 31.9962 43.8002 33.7799 46.0782C35.2106 47.9053 35.3067 48 35.7304 48C36.3488 48 36.6756 47.3101 36.3087 46.7787C36.2208 46.6512 35.4152 45.6045 34.5186 44.4526C33.6219 43.3008 32.8029 42.1652 32.6985 41.9292C32.24 40.8926 32.7186 39.3493 33.8916 38.0824C35.1879 36.6823 36.7475 36.0342 37.9904 36.3794C38.3838 36.4888 39.1951 37.0902 43.0312 40.1165C47.0671 43.3003 46.9559 43.2188 47.264 43.2188C47.827 43.2188 48.2274 42.418 47.8828 41.9811C47.7743 41.8435 43.4908 38.4466 40.7812 36.3494C40.1367 35.8506 39.3733 35.3158 39.0847 35.1609C38.3922 34.7893 37.4397 34.626 36.6791 34.7486L36.1025 34.8415L31.8149 32.0457C28.3085 29.7594 27.4688 29.25 27.2062 29.25C26.932 29.25 26.7838 29.3513 26.1925 29.9426ZM16.0312 29.8476C14.9437 30.1392 13.2181 30.8402 12.9609 31.095C12.5048 31.547 12.7874 32.1461 13.9293 33.1468C14.834 33.9398 15.1449 34.1608 15.8437 34.5074C17.382 35.2706 18.7211 34.8388 20.7218 32.9351C22.1716 31.5553 22.0705 31.1822 20.0312 30.386C18.8665 29.9313 17.7183 29.6235 17.2089 29.6295C16.9995 29.632 16.4695 29.7301 16.0312 29.8476ZM27.3067 31.1485C27.3377 31.2287 31.4673 37.6114 31.8234 38.1297C31.8311 38.1407 32.0247 37.8925 32.2538 37.5779C32.6812 36.991 33.5963 36.1035 34.0547 35.8314C34.1964 35.7472 34.3125 35.65 34.3125 35.6153C34.3125 35.5495 27.4192 31.0313 27.3187 31.0313C27.2871 31.0313 27.2816 31.0841 27.3067 31.1485ZM15.9375 31.5132C15.4477 31.6708 15.0134 31.8313 14.9724 31.8697C14.881 31.9555 15.5689 32.5284 16.2917 32.9685C16.7637 33.256 16.8874 33.2907 17.3217 33.257C17.7198 33.2262 17.9382 33.1348 18.4507 32.7846C18.8002 32.5458 19.1841 32.2461 19.3039 32.1185L19.5217 31.8867L19.176 31.7422C18.534 31.474 17.5602 31.2188 17.193 31.2225C16.9923 31.2246 16.4273 31.3554 15.9375 31.5132Z" fill="#1A8281"/>
</svg>
