<svg width="16" height="17" viewBox="0 0 16 17" fill="none" xmlns="http://www.w3.org/2000/svg">
<path fill-rule="evenodd" clip-rule="evenodd" d="M14.0928 0.674605C13.9963 0.757539 13.9938 0.769246 13.9755 1.21696C13.9571 1.67072 13.9557 1.67705 13.8065 1.97131C13.7237 2.13454 13.5538 2.39276 13.4288 2.54516C12.8104 3.29951 12.6934 3.55049 12.6934 4.12305C12.6934 4.54148 12.7787 4.83204 12.9979 5.16033C13.2294 5.50704 13.1458 5.53148 12.8974 5.18969C11.9024 3.82011 10.5982 2.94798 9.11558 2.66055C8.78476 2.59642 7.86462 2.51423 7.77599 2.54088C7.75419 2.54741 7.38829 2.56148 6.96289 2.57206L6.18946 2.59136L6.36446 2.51968C6.60862 2.41969 7.05451 2.31827 7.40706 2.28251C7.74445 2.24834 8.62522 2.28779 9.14645 2.36049C9.33766 2.38714 9.5017 2.40211 9.51098 2.39371C9.52023 2.38531 9.47449 2.27562 9.40935 2.14997C8.96786 1.29842 8.21709 0.819555 7.33204 0.824969C6.87008 0.827781 6.73434 0.867437 6.03125 1.20494C5.04776 1.67702 4.65158 1.75721 4.03392 1.60913C3.56613 1.49698 3.40811 1.5186 3.31009 1.7082C3.26572 1.79395 3.26752 1.82608 3.32577 1.99145C3.48429 2.44163 3.86946 3.00536 4.26813 3.37067C4.70055 3.76688 5.16128 4.0276 5.70469 4.18352C6.09109 4.29436 6.86931 4.29384 7.27417 4.18246C7.8103 4.03495 8.49198 3.66046 8.89519 3.29195C9.07431 3.12827 9.09474 3.11881 9.21993 3.14201C9.43821 3.18248 10.1026 3.46236 10.4614 3.665C11.6632 4.34383 12.5777 5.31639 13.1729 6.54883C14.2606 8.80083 13.9699 11.4475 12.416 13.4395C12.1763 13.7467 11.6462 14.2747 11.3209 14.5301C9.32388 16.0984 6.56524 16.3651 4.30199 15.2088C3.4042 14.7501 2.54013 14.004 1.94416 13.173C1.6407 12.7498 1.22898 11.9332 1.06491 11.429C0.452731 9.54804 0.711164 7.5158 1.77478 5.84714C1.87287 5.69323 1.95313 5.53109 1.95313 5.48679C1.95313 5.31699 1.7263 5.20463 1.59531 5.30957C1.51118 5.377 1.27461 5.74502 1.07932 6.11229C0.0378517 8.07113 0.00171104 10.4588 0.983274 12.4551C1.36634 13.2342 1.7899 13.819 2.39895 14.4097C3.60048 15.575 5.0833 16.2395 6.79077 16.3778C8.48625 16.5151 10.2918 15.9528 11.6513 14.8641C12.4763 14.2035 13.1314 13.381 13.59 12.43C14.4965 10.5501 14.5253 8.37087 13.6686 6.48804L13.5362 6.19727L13.5606 5.83635C13.6227 4.91782 13.788 4.14759 14.0264 3.66602C14.1664 3.38325 14.3633 3.07015 14.3633 3.13023C14.3633 3.14279 14.2857 3.46643 14.1908 3.84946C13.9896 4.6621 13.8166 5.75781 13.8896 5.75781C13.9047 5.75781 14.0705 5.65572 14.258 5.53091C14.9642 5.06073 15.4132 4.49222 15.6343 3.78818C15.704 3.56621 15.7164 3.45445 15.7143 3.06836C15.712 2.64757 15.7026 2.58426 15.596 2.26964C15.4469 1.82987 15.2293 1.46088 14.9333 1.14588C14.6877 0.884453 14.3195 0.589844 14.2383 0.589844C14.2125 0.589844 14.147 0.627988 14.0928 0.674605Z" fill="#1A8281"/>
</svg>
